SplineFontDB: 3.2
FontName: CSLSans-Thin
FullName: CSL Sans Thin
FamilyName: CSL Sans Thin
Weight: Thin
Copyright: Copyright (c) 2019 IBM Corp. with Reserved Font Name "Plex"\n\nCopyright (c) 2019 The HMI Sans Project Authors (https://github.com/somegoodpixels/hmi-sans)\nCopyright (c) 2021 The CSL Sans Project Authors (https://github.com/cssobral2013/CSL-Sans)\nThis Font Software is licensed under the SIL Open Font License, Version 1.1.\nThis license is copied below, and is also available with a FAQ at: http://scripts.sil.org/OFL.
Version: 2.001;January 21, 2022;FontCreator 14.0.0.2808 64-bit
ItalicAngle: 0
UnderlinePosition: -99
UnderlineWidth: 16
Ascent: 800
Descent: 200
InvalidEm: 0
sfntRevision: 0x00020041
LayerCount: 2
Layer: 0 1 "Back" 1
Layer: 1 1 "Fore" 0
XUID: [1021 651 537639564 30858]
StyleMap: 0x0000
FSType: 0
OS2Version: 3
OS2_WeightWidthSlopeOnly: 0
OS2_UseTypoMetrics: 0
CreationTime: 1550580383
ModificationTime: 1642760326
PfmFamily: 81
TTFWeight: 100
TTFWidth: 5
LineGap: 0
VLineGap: 0
Panose: 0 0 3 0 0 0 0 0 0 0
OS2TypoAscent: 1000
OS2TypoAOffset: 0
OS2TypoDescent: -220
OS2TypoDOffset: 0
OS2TypoLinegap: 0
OS2WinAscent: 1000
OS2WinAOffset: 0
OS2WinDescent: 220
OS2WinDOffset: 0
HheadAscent: 1000
HheadAOffset: 0
HheadDescent: -220
HheadDOffset: 0
OS2SubXSize: 650
OS2SubYSize: 600
OS2SubXOff: 0
OS2SubYOff: 75
OS2SupXSize: 650
OS2SupYSize: 600
OS2SupXOff: 0
OS2SupYOff: 350
OS2StrikeYSize: 16
OS2StrikeYPos: 303
OS2CapHeight: 698
OS2XHeight: 506
OS2Vendor: 'UKWN'
OS2CodePages: 2000019f.00000000
OS2UnicodeRanges: a10002ff.5000a07b.00000000.00000000
Lookup: 258 0 0 "'kern' Kerning Horizontal lookup 0" { "'kern' Kerning Horizontal lookup 0 per glyph data 0"  "'kern' Kerning Horizontal lookup 0 kerning class 1"  "'kern' Kerning Horizontal lookup 0 kerning class 2"  "'kern' Kerning Horizontal lookup 0 kerning class 3"  } ['kern' ('DFLT' <'dflt' > 'cyrl' <'dflt' > 'grek' <'dflt' > 'latn' <'dflt' > ) ]
DEI: 91125

StartChar: .notdef
Encoding: 65536 -1 0
Width: 472
Flags: W
LayerCount: 2
Fore
SplineSet
440 0 m 1,0,-1
 440 780 l 1,1,-1
 32 780 l 1,2,-1
 32 0 l 1,3,-1
 440 0 l 1,0,-1
424 16 m 1,4,-1
 48 16 l 1,5,-1
 48 764 l 1,6,-1
 424 764 l 1,7,-1
 424 16 l 1,4,-1
EndSplineSet
EndChar

StartChar: exclam
Encoding: 33 33 2
Width: 252
GlyphClass: 1
Flags: W
LayerCount: 2
Fore
SplineSet
132 176 m 1,0,-1
 137 415 l 1,1,-1
 137 698 l 1,2,-1
 115 698 l 1,3,-1
 115 415 l 1,4,-1
 120 176 l 1,5,-1
 132 176 l 1,0,-1
126 -5 m 256,6,7
 153 -5 153 -5 153 20 c 2,8,-1
 153 28 l 2,9,10
 153 53 153 53 128 53 c 0,11,12
 99 53 99 53 99 28 c 2,13,-1
 99 20 l 2,14,15
 99 -5 99 -5 126 -5 c 256,6,7
EndSplineSet
EndChar

StartChar: quotedbl
Encoding: 34 34 3
Width: 373
GlyphClass: 7
Flags: W
LayerCount: 2
Fore
SplineSet
120 490 m 1,0,-1
 120 740 l 1,1,-1
 100 740 l 1,2,-1
 100 490 l 1,3,-1
 120 490 l 1,0,-1
273 490 m 1,4,-1
 273 740 l 1,5,-1
 253 740 l 1,6,-1
 253 490 l 1,7,-1
 273 490 l 1,4,-1
EndSplineSet
EndChar

StartChar: numbersign
Encoding: 35 35 4
Width: 712
GlyphClass: 5
Flags: W
LayerCount: 2
Fore
SplineSet
410 0 m 1,0,-1
 448 220 l 1,1,-1
 603 220 l 1,2,-1
 603 239 l 1,3,-1
 451 239 l 1,4,-1
 488 459 l 1,5,-1
 642 459 l 1,6,-1
 642 478 l 1,7,-1
 492 478 l 1,8,-1
 530 698 l 1,9,-1
 509 698 l 1,10,-1
 471 478 l 1,11,-1
 285 478 l 1,12,-1
 323 698 l 1,13,-1
 302 698 l 1,14,-1
 264 478 l 1,15,-1
 109 478 l 1,16,-1
 109 459 l 1,17,-1
 261 459 l 1,18,-1
 224 239 l 1,19,-1
 70 239 l 1,20,-1
 70 220 l 1,21,-1
 220 220 l 1,22,-1
 182 0 l 1,23,-1
 203 0 l 1,24,-1
 241 220 l 1,25,-1
 427 220 l 1,26,-1
 389 0 l 1,27,-1
 410 0 l 1,0,-1
430 239 m 1,28,-1
 244 239 l 1,29,-1
 282 459 l 1,30,-1
 468 459 l 1,31,-1
 430 239 l 1,28,-1
EndSplineSet
EndChar

StartChar: dollar
Encoding: 36 36 5
Width: 547
Flags: W
LayerCount: 2
Fore
SplineSet
288 -82 m 1,0,-1
 288 0 l 1,1,2
 383 3 383 3 436 49 c 128,-1,3
 489 95 489 95 489 185 c 0,4,5
 489 253 489 253 455 296 c 0,6,7
 418 344 418 344 312 364 c 2,8,-1
 288 368 l 1,9,-1
 288 678 l 1,10,11
 406 672 406 672 459 590 c 1,12,-1
 477 603 l 1,13,14
 425 687 425 687 288 698 c 1,15,-1
 288 780 l 1,16,-1
 268 780 l 1,17,-1
 268 698 l 1,18,19
 173 698 173 698 115.5 656.5 c 128,-1,20
 58 615 58 615 58 530 c 0,21,22
 58 464 58 464 95 424 c 0,23,24
 133 378 133 378 237 357 c 2,25,-1
 268 351 l 1,26,-1
 268 20 l 1,27,28
 193 22 193 22 144 51 c 128,-1,29
 95 80 95 80 60 127 c 1,30,-1
 42 114 l 1,31,32
 120 5 120 5 268 0 c 1,33,-1
 268 -82 l 1,34,-1
 288 -82 l 1,0,-1
288 20 m 1,35,-1
 288 348 l 1,36,-1
 306 345 l 2,37,38
 371 336 371 336 418 302 c 0,39,40
 467 263 467 263 467 184 c 0,41,42
 467 28 467 28 288 20 c 1,35,-1
268 371 m 1,43,-1
 243 376 l 2,44,45
 176 387 176 387 128 422.5 c 128,-1,46
 80 458 80 458 80 530 c 0,47,48
 80 605 80 605 129.5 641.5 c 128,-1,49
 179 678 179 678 268 678 c 1,50,-1
 268 371 l 1,43,-1
EndSplineSet
EndChar

StartChar: percent
Encoding: 37 37 6
Width: 882
Flags: W
LayerCount: 2
Fore
SplineSet
210 0 m 1,0,-1
 694 698 l 1,1,-1
 671 698 l 1,2,-1
 187 0 l 1,3,-1
 210 0 l 1,0,-1
217 326 m 0,4,5
 246 326 246 326 272 337 c 0,6,7
 359 373 359 373 359 518 c 0,8,9
 359 615 359 615 317 666 c 0,10,11
 280 710 280 710 217 710 c 0,12,13
 159 710 159 710 118 666 c 0,14,15
 75 614 75 614 75 518 c 0,16,17
 75 421 75 421 118 371 c 0,18,19
 159 326 159 326 217 326 c 0,4,5
217 343 m 0,20,21
 171 343 171 343 134 380 c 0,22,23
 97 421 97 421 97 502 c 2,24,-1
 97 534 l 2,25,26
 97 615 97 615 134 656 c 0,27,28
 171 693 171 693 217 693 c 0,29,30
 264 693 264 693 300.5 656.5 c 128,-1,31
 337 620 337 620 337 534 c 2,32,-1
 337 502 l 2,33,34
 337 417 337 417 300.5 380 c 128,-1,35
 264 343 264 343 217 343 c 0,20,21
665 -12 m 0,36,37
 694 -12 694 -12 720 -1 c 0,38,39
 807 35 807 35 807 180 c 0,40,41
 807 277 807 277 765 328 c 0,42,43
 728 372 728 372 665 372 c 0,44,45
 607 372 607 372 566 328 c 0,46,47
 523 276 523 276 523 180 c 0,48,49
 523 83 523 83 566 33 c 0,50,51
 607 -12 607 -12 665 -12 c 0,36,37
665 5 m 0,52,53
 619 5 619 5 582 42 c 0,54,55
 545 83 545 83 545 164 c 2,56,-1
 545 196 l 2,57,58
 545 277 545 277 582 318 c 0,59,60
 619 355 619 355 665 355 c 0,61,62
 712 355 712 355 748.5 318.5 c 128,-1,63
 785 282 785 282 785 196 c 2,64,-1
 785 164 l 2,65,66
 785 79 785 79 748.5 42 c 128,-1,67
 712 5 712 5 665 5 c 0,52,53
EndSplineSet
EndChar

StartChar: ampersand
Encoding: 38 38 7
Width: 677
GlyphClass: 3
Flags: W
LayerCount: 2
Fore
SplineSet
271 -12 m 0,0,1
 350 -12 350 -12 407.5 22.5 c 128,-1,2
 465 57 465 57 497 116 c 1,3,-1
 612 0 l 1,4,-1
 640 0 l 1,5,-1
 507 135 l 1,6,7
 542 219 542 219 544 331 c 1,8,-1
 634 331 l 1,9,-1
 634 351 l 1,10,-1
 525 351 l 1,11,12
 525 227 525 227 493 149 c 1,13,-1
 273 367 l 1,14,15
 363 407 363 407 416 452.5 c 128,-1,16
 469 498 469 498 469 570 c 0,17,18
 469 629 469 629 426 669.5 c 128,-1,19
 383 710 383 710 309 710 c 0,20,21
 231 710 231 710 185.5 667 c 128,-1,22
 140 624 140 624 140 554 c 0,23,24
 140 505 140 505 165.5 463.5 c 128,-1,25
 191 422 191 422 239 371 c 1,26,27
 168 339 168 339 120 294 c 0,28,29
 70 243 70 243 70 166 c 0,30,31
 70 87 70 87 125 37.5 c 128,-1,32
 180 -12 180 -12 271 -12 c 0,0,1
259 380 m 1,33,34
 218 422 218 422 190.5 462.5 c 128,-1,35
 163 503 163 503 163 546 c 2,36,-1
 163 564 l 2,37,38
 163 618 163 618 202 654 c 0,39,40
 239 691 239 691 309 691 c 0,41,42
 363 691 363 691 404.5 660.5 c 128,-1,43
 446 630 446 630 446 574 c 2,44,-1
 446 560 l 2,45,46
 446 531 446 531 432 506 c 0,47,48
 395 440 395 440 259 380 c 1,33,34
271 8 m 0,49,50
 193 8 193 8 144 49 c 0,51,52
 93 89 93 89 93 156 c 2,53,-1
 93 176 l 2,54,55
 93 212 93 212 106 239 c 0,56,57
 139 307 139 307 253 358 c 1,58,-1
 483 129 l 1,59,60
 419 8 419 8 271 8 c 0,49,50
EndSplineSet
EndChar

StartChar: quotesingle
Encoding: 39 39 8
Width: 220
Flags: W
LayerCount: 2
Fore
SplineSet
120 490 m 1,0,-1
 120 740 l 1,1,-1
 100 740 l 1,2,-1
 100 490 l 1,3,-1
 120 490 l 1,0,-1
EndSplineSet
EndChar

StartChar: parenleft
Encoding: 40 40 9
Width: 332
Flags: W
LayerCount: 2
Fore
SplineSet
314 -138 m 1,0,1
 238 -70 238 -70 183 42 c 0,2,3
 126 162 126 162 126 294 c 2,4,-1
 126 328 l 2,5,6
 126 466 126 466 182 579.5 c 128,-1,7
 238 693 238 693 314 760 c 1,8,-1
 289 760 l 1,9,10
 216 695 216 695 163 580 c 0,11,12
 105 452 105 452 105 311 c 256,13,14
 105 170 105 170 163 42 c 0,15,16
 216 -73 216 -73 289 -138 c 1,17,-1
 314 -138 l 1,0,1
EndSplineSet
EndChar

StartChar: parenright
Encoding: 41 41 10
Width: 332
GlyphClass: 3
Flags: W
LayerCount: 2
Fore
SplineSet
43 -138 m 1,0,1
 115 -73 115 -73 170 42 c 0,2,3
 227 168 227 168 227 311 c 256,4,5
 227 454 227 454 170 580 c 0,6,7
 115 695 115 695 43 760 c 1,8,-1
 18 760 l 1,9,10
 94 693 94 693 150 579.5 c 128,-1,11
 206 466 206 466 206 328 c 2,12,-1
 206 294 l 2,13,14
 206 162 206 162 149 42 c 0,15,16
 94 -70 94 -70 18 -138 c 1,17,-1
 43 -138 l 1,0,1
EndSplineSet
EndChar

StartChar: asterisk
Encoding: 42 42 11
Width: 362
Flags: W
LayerCount: 2
Fore
SplineSet
274 436 m 1,0,-1
 289 447 l 1,1,-1
 194 575 l 1,2,-1
 345 621 l 1,3,-1
 339 640 l 1,4,-1
 189 590 l 1,5,-1
 191 747 l 1,6,-1
 171 747 l 1,7,-1
 173 590 l 1,8,-1
 23 640 l 1,9,-1
 17 621 l 1,10,-1
 168 575 l 1,11,-1
 73 447 l 1,12,-1
 88 436 l 1,13,-1
 181 565 l 1,14,-1
 274 436 l 1,0,-1
EndSplineSet
EndChar

StartChar: plus
Encoding: 43 43 12
Width: 600
Flags: W
LayerCount: 2
Fore
SplineSet
311 62 m 1,0,-1
 311 296 l 1,1,-1
 539 296 l 1,2,-1
 539 315 l 1,3,-1
 311 315 l 1,4,-1
 311 549 l 1,5,-1
 290 549 l 1,6,-1
 290 315 l 1,7,-1
 62 315 l 1,8,-1
 62 296 l 1,9,-1
 290 296 l 1,10,-1
 290 62 l 1,11,-1
 311 62 l 1,0,-1
EndSplineSet
EndChar

StartChar: comma
Encoding: 44 44 13
Width: 240
GlyphClass: 3
Flags: W
LayerCount: 2
Fore
SplineSet
70 -147 m 1,0,1
 103 -116 103 -116 125 -71.5 c 128,-1,2
 147 -27 147 -27 147 15 c 2,3,-1
 147 27 l 2,4,5
 147 53 147 53 121 53 c 0,6,7
 93 53 93 53 93 27 c 2,8,-1
 93 18 l 2,9,10
 93 -5 93 -5 125 -5 c 1,11,12
 119 -77 119 -77 51 -147 c 1,13,-1
 70 -147 l 1,0,1
EndSplineSet
EndChar

StartChar: hyphen
Encoding: 45 45 14
Width: 395
Flags: W
LayerCount: 2
Fore
SplineSet
312 295 m 1,0,-1
 312 315 l 1,1,-1
 83 315 l 1,2,-1
 83 295 l 1,3,-1
 312 295 l 1,0,-1
EndSplineSet
EndChar

StartChar: period
Encoding: 46 46 15
Width: 240
Flags: W
LayerCount: 2
Fore
SplineSet
120 -5 m 256,0,1
 147 -5 147 -5 147 20 c 2,2,-1
 147 28 l 2,3,4
 147 53 147 53 122 53 c 0,5,6
 93 53 93 53 93 28 c 2,7,-1
 93 20 l 2,8,9
 93 -5 93 -5 120 -5 c 256,0,1
EndSplineSet
EndChar

StartChar: slash
Encoding: 47 47 16
Width: 313
GlyphClass: 3
Flags: W
LayerCount: 2
Fore
SplineSet
33 -151 m 1,0,-1
 271 740 l 1,1,-1
 251 740 l 1,2,-1
 13 -151 l 1,3,-1
 33 -151 l 1,0,-1
EndSplineSet
EndChar

StartChar: zero
Encoding: 48 48 17
Width: 600
GlyphClass: 5
Flags: W
LayerCount: 2
Fore
SplineSet
300 -12 m 0,0,1
 410 -12 410 -12 469.5 72.5 c 128,-1,2
 529 157 529 157 529 349 c 256,3,4
 529 541 529 541 469.5 625.5 c 128,-1,5
 410 710 410 710 300 710 c 0,6,7
 191 710 191 710 131 625.5 c 128,-1,8
 71 541 71 541 71 349 c 256,9,10
 71 157 71 157 131 72.5 c 128,-1,11
 191 -12 191 -12 300 -12 c 0,0,1
300 8 m 256,12,13
 200 8 200 8 147.5 85 c 128,-1,14
 95 162 95 162 95 317 c 2,15,-1
 95 381 l 2,16,17
 95 536 95 536 147.5 613 c 128,-1,18
 200 690 200 690 300 690 c 256,19,20
 400 690 400 690 452.5 613 c 128,-1,21
 505 536 505 536 505 381 c 2,22,-1
 505 317 l 2,23,24
 505 162 505 162 452.5 85 c 128,-1,25
 400 8 400 8 300 8 c 256,12,13
EndSplineSet
EndChar

StartChar: one
Encoding: 49 49 18
Width: 600
Flags: W
LayerCount: 2
Fore
SplineSet
354 0 m 1,0,-1
 332 0 l 1,1,-1
 332 675 l 1,2,-1
 182 588 l 1,3,-1
 182 612 l 1,4,-1
 330 698 l 1,5,-1
 354 698 l 1,6,-1
 354 0 l 1,0,-1
EndSplineSet
EndChar

StartChar: two
Encoding: 50 50 19
Width: 600
Flags: W
LayerCount: 2
Fore
SplineSet
521 0 m 1,0,-1
 521 20 l 1,1,-1
 112 20 l 1,2,-1
 370 279 l 2,3,4
 427 335 427 335 456.5 392 c 128,-1,5
 486 449 486 449 486 516 c 0,6,7
 486 607 486 607 437 658.5 c 128,-1,8
 388 710 388 710 294 710 c 0,9,10
 208 710 208 710 157 667 c 128,-1,11
 106 624 106 624 87 555 c 1,12,-1
 107 551 l 1,13,14
 149 690 149 690 294 690 c 0,15,16
 378 690 378 690 420 645 c 128,-1,17
 462 600 462 600 462 532 c 2,18,-1
 462 502 l 2,19,20
 462 446 462 446 434.5 395.5 c 128,-1,21
 407 345 407 345 356 294 c 2,22,-1
 87 22 l 1,23,-1
 87 0 l 1,24,-1
 521 0 l 1,0,-1
EndSplineSet
EndChar

StartChar: three
Encoding: 51 51 20
Width: 600
Flags: W
LayerCount: 2
Fore
SplineSet
283 -12 m 0,0,1
 379 -12 379 -12 434.5 41 c 128,-1,2
 490 94 490 94 490 187 c 0,3,4
 490 265 490 265 448.5 310.5 c 128,-1,5
 407 356 407 356 335 365 c 1,6,-1
 335 368 l 1,7,8
 398 380 398 380 436.5 421.5 c 128,-1,9
 475 463 475 463 475 536 c 0,10,11
 475 616 475 616 424 663 c 128,-1,12
 373 710 373 710 287 710 c 0,13,14
 212 710 212 710 164 679.5 c 128,-1,15
 116 649 116 649 95 599 c 1,16,-1
 113 591 l 1,17,18
 136 637 136 637 176.5 663.5 c 128,-1,19
 217 690 217 690 287 690 c 0,20,21
 359 690 359 690 405 650.5 c 128,-1,22
 451 611 451 611 451 546 c 2,23,-1
 451 522 l 2,24,25
 451 458 451 458 404 417 c 128,-1,26
 357 376 357 376 280 376 c 2,27,-1
 186 376 l 1,28,-1
 186 356 l 1,29,-1
 282 356 l 2,30,31
 367 356 367 356 416.5 313 c 128,-1,32
 466 270 466 270 466 198 c 2,33,-1
 466 170 l 2,34,35
 466 98 466 98 414.5 53 c 128,-1,36
 363 8 363 8 283 8 c 0,37,38
 147 8 147 8 88 106 c 1,39,-1
 70 95 l 1,40,41
 138 -12 138 -12 283 -12 c 0,0,1
EndSplineSet
EndChar

StartChar: four
Encoding: 52 52 21
Width: 600
GlyphClass: 2
Flags: W
LayerCount: 2
Fore
SplineSet
432 0 m 1,0,-1
 432 160 l 1,1,-1
 550 160 l 1,2,-1
 550 179 l 1,3,-1
 432 179 l 1,4,-1
 432 698 l 1,5,-1
 407 698 l 1,6,-1
 47 181 l 1,7,-1
 47 160 l 1,8,-1
 412 160 l 1,9,-1
 412 0 l 1,10,-1
 432 0 l 1,0,-1
412 179 m 1,11,-1
 69 179 l 1,12,-1
 410 670 l 1,13,-1
 412 670 l 1,14,-1
 412 179 l 1,11,-1
EndSplineSet
EndChar

StartChar: five
Encoding: 53 53 22
Width: 600
Flags: W
LayerCount: 2
Fore
SplineSet
297 -12 m 0,0,1
 393 -12 393 -12 449 45.5 c 128,-1,2
 505 103 505 103 505 203 c 0,3,4
 505 302 505 302 452.5 357.5 c 128,-1,5
 400 413 400 413 304 413 c 0,6,7
 247 413 247 413 207 397.5 c 128,-1,8
 167 382 167 382 137 343 c 1,9,-1
 134 344 l 1,10,-1
 158 678 l 1,11,-1
 481 678 l 1,12,-1
 481 698 l 1,13,-1
 140 698 l 1,14,-1
 114 326 l 1,15,-1
 137 323 l 1,16,17
 166 359 166 359 203 376 c 128,-1,18
 240 393 240 393 304 393 c 0,19,20
 391 393 391 393 436 344 c 128,-1,21
 481 295 481 295 481 216 c 2,22,-1
 481 188 l 2,23,24
 481 110 481 110 433.5 59 c 128,-1,25
 386 8 386 8 297 8 c 0,26,27
 161 8 161 8 102 106 c 1,28,-1
 84 95 l 1,29,30
 152 -12 152 -12 297 -12 c 0,0,1
EndSplineSet
EndChar

StartChar: six
Encoding: 54 54 23
Width: 600
GlyphClass: 2
Flags: W
LayerCount: 2
Fore
SplineSet
300 -12 m 0,0,1
 396 -12 396 -12 453.5 48 c 128,-1,2
 511 108 511 108 511 205 c 0,3,4
 511 303 511 303 454 361 c 0,5,6
 395 417 395 417 299 417 c 0,7,8
 237 417 237 417 190 390.5 c 128,-1,9
 143 364 143 364 116 310 c 1,10,-1
 113 311 l 1,11,12
 151 554 151 554 392 698 c 1,13,-1
 360 698 l 1,14,15
 241 628 241 628 166 512 c 0,16,17
 87 387 87 387 87 226 c 0,18,19
 87 126 87 126 137 57 c 0,20,21
 191 -12 191 -12 300 -12 c 0,0,1
299 8 m 0,22,23
 211 8 211 8 161 60 c 128,-1,24
 111 112 111 112 111 190 c 2,25,-1
 111 218 l 2,26,27
 111 295 111 295 160 346 c 128,-1,28
 209 397 209 397 299 397 c 0,29,30
 388 397 388 397 437.5 346 c 128,-1,31
 487 295 487 295 487 218 c 2,32,-1
 487 187 l 2,33,34
 487 111 487 111 437.5 59.5 c 128,-1,35
 388 8 388 8 299 8 c 0,22,23
EndSplineSet
EndChar

StartChar: seven
Encoding: 55 55 24
Width: 600
Flags: W
LayerCount: 2
Fore
SplineSet
211 0 m 1,0,-1
 187 0 l 1,1,-1
 489 678 l 1,2,-1
 77 678 l 1,3,-1
 77 698 l 1,4,-1
 512 698 l 1,5,-1
 512 678 l 1,6,-1
 211 0 l 1,0,-1
EndSplineSet
EndChar

StartChar: eight
Encoding: 56 56 25
Width: 600
Flags: W
LayerCount: 2
Fore
SplineSet
300 -12 m 0,0,1
 404 -12 404 -12 466 40 c 128,-1,2
 528 92 528 92 528 180 c 0,3,4
 528 255 528 255 487.5 303 c 128,-1,5
 447 351 447 351 374 364 c 1,6,-1
 374 368 l 1,7,8
 435 380 435 380 469.5 423.5 c 128,-1,9
 504 467 504 467 504 535 c 0,10,11
 504 616 504 616 449 663 c 128,-1,12
 394 710 394 710 300 710 c 256,13,14
 206 710 206 710 151 663 c 128,-1,15
 96 616 96 616 96 535 c 0,16,17
 96 467 96 467 130.5 423.5 c 128,-1,18
 165 380 165 380 226 368 c 1,19,-1
 226 364 l 1,20,21
 153 351 153 351 112.5 303 c 128,-1,22
 72 255 72 255 72 180 c 0,23,24
 72 92 72 92 134 41 c 0,25,26
 194 -12 194 -12 300 -12 c 0,0,1
300 8 m 0,27,28
 206 8 206 8 152 53 c 0,29,30
 96 97 96 97 96 169 c 2,31,-1
 96 195 l 2,32,33
 96 267 96 267 152 311 c 0,34,35
 206 356 206 356 300 356 c 0,36,37
 392 356 392 356 448 311.5 c 128,-1,38
 504 267 504 267 504 195 c 2,39,-1
 504 169 l 2,40,41
 504 97 504 97 448 52.5 c 128,-1,42
 392 8 392 8 300 8 c 0,27,28
300 376 m 256,43,44
 218 376 218 376 169 415.5 c 128,-1,45
 120 455 120 455 120 521 c 2,46,-1
 120 545 l 2,47,48
 120 611 120 611 169 650.5 c 128,-1,49
 218 690 218 690 300 690 c 256,50,51
 382 690 382 690 431 650.5 c 128,-1,52
 480 611 480 611 480 545 c 2,53,-1
 480 521 l 2,54,55
 480 455 480 455 431 415.5 c 128,-1,56
 382 376 382 376 300 376 c 256,43,44
EndSplineSet
EndChar

StartChar: nine
Encoding: 57 57 26
Width: 600
GlyphClass: 1
Flags: W
LayerCount: 2
Fore
SplineSet
243 0 m 1,0,1
 361 71 361 71 437 187 c 0,2,3
 516 311 516 311 516 472 c 0,4,5
 516 578 516 578 467 641 c 0,6,7
 413 710 413 710 303 710 c 0,8,9
 207 710 207 710 149.5 650.5 c 128,-1,10
 92 591 92 591 92 493 c 0,11,12
 92 396 92 396 150 338.5 c 128,-1,13
 208 281 208 281 304 281 c 0,14,15
 366 281 366 281 413 307.5 c 128,-1,16
 460 334 460 334 487 388 c 1,17,-1
 490 387 l 1,18,19
 452 144 452 144 211 0 c 1,20,-1
 243 0 l 1,0,1
304 301 m 0,21,22
 216 301 216 301 166 352.5 c 128,-1,23
 116 404 116 404 116 480 c 2,24,-1
 116 511 l 2,25,26
 116 588 116 588 166 639 c 128,-1,27
 216 690 216 690 304 690 c 0,28,29
 390 690 390 690 441 638 c 128,-1,30
 492 586 492 586 492 508 c 2,31,-1
 492 480 l 2,32,33
 492 404 492 404 443 352.5 c 128,-1,34
 394 301 394 301 304 301 c 0,21,22
EndSplineSet
EndChar

StartChar: colon
Encoding: 58 58 27
Width: 258
Flags: W
LayerCount: 2
Fore
SplineSet
129 -5 m 256,0,1
 156 -5 156 -5 156 20 c 2,2,-1
 156 28 l 2,3,4
 156 53 156 53 131 53 c 0,5,6
 102 53 102 53 102 28 c 2,7,-1
 102 20 l 2,8,9
 102 -5 102 -5 129 -5 c 256,0,1
129 436 m 256,10,11
 156 436 156 436 156 461 c 2,12,-1
 156 469 l 2,13,14
 156 494 156 494 131 494 c 0,15,16
 102 494 102 494 102 469 c 2,17,-1
 102 461 l 2,18,19
 102 436 102 436 129 436 c 256,10,11
EndSplineSet
EndChar

StartChar: semicolon
Encoding: 59 59 28
Width: 258
GlyphClass: 2
Flags: W
LayerCount: 2
Fore
SplineSet
79 -147 m 1,0,1
 112 -116 112 -116 134 -71.5 c 128,-1,2
 156 -27 156 -27 156 15 c 2,3,-1
 156 27 l 2,4,5
 156 53 156 53 130 53 c 0,6,7
 102 53 102 53 102 27 c 2,8,-1
 102 18 l 2,9,10
 102 -5 102 -5 134 -5 c 1,11,12
 128 -77 128 -77 60 -147 c 1,13,-1
 79 -147 l 1,0,1
128 436 m 256,14,15
 155 436 155 436 155 461 c 2,16,-1
 155 469 l 2,17,18
 155 494 155 494 130 494 c 0,19,20
 101 494 101 494 101 469 c 2,21,-1
 101 461 l 2,22,23
 101 436 101 436 128 436 c 256,14,15
EndSplineSet
EndChar

StartChar: less
Encoding: 60 60 29
Width: 600
Flags: W
LayerCount: 2
Fore
SplineSet
515 38 m 1,0,-1
 515 61 l 1,1,-1
 108 304 l 1,2,-1
 108 306 l 1,3,-1
 515 549 l 1,4,-1
 515 572 l 1,5,-1
 85 314 l 1,6,-1
 85 296 l 1,7,-1
 515 38 l 1,0,-1
EndSplineSet
EndChar

StartChar: equal
Encoding: 61 61 30
Width: 600
GlyphClass: 2
Flags: W
LayerCount: 2
Fore
SplineSet
538 385 m 1,0,-1
 538 404 l 1,1,-1
 62 404 l 1,2,-1
 62 385 l 1,3,-1
 538 385 l 1,0,-1
538 207 m 1,4,-1
 538 226 l 1,5,-1
 62 226 l 1,6,-1
 62 207 l 1,7,-1
 538 207 l 1,4,-1
EndSplineSet
EndChar

StartChar: greater
Encoding: 62 62 31
Width: 600
GlyphClass: 5
Flags: W
LayerCount: 2
Fore
SplineSet
85 38 m 1,0,-1
 515 296 l 1,1,-1
 515 314 l 1,2,-1
 85 572 l 1,3,-1
 85 549 l 1,4,-1
 492 306 l 1,5,-1
 492 304 l 1,6,-1
 85 61 l 1,7,-1
 85 38 l 1,0,-1
EndSplineSet
EndChar

StartChar: question
Encoding: 63 63 32
Width: 456
GlyphClass: 3
Flags: W
LayerCount: 2
Fore
SplineSet
220 176 m 1,0,-1
 220 330 l 1,1,2
 317 339 317 339 369 391 c 128,-1,3
 421 443 421 443 421 531 c 0,4,5
 421 612 421 612 372 661 c 128,-1,6
 323 710 323 710 236 710 c 0,7,8
 79 710 79 710 37 559 c 1,9,-1
 57 554 l 1,10,11
 75 620 75 620 118 655.5 c 128,-1,12
 161 691 161 691 236 691 c 0,13,14
 313 691 313 691 355.5 649.5 c 128,-1,15
 398 608 398 608 398 542 c 2,16,-1
 398 516 l 2,17,18
 398 443 398 443 346.5 397.5 c 128,-1,19
 295 352 295 352 198 349 c 1,20,-1
 198 176 l 1,21,-1
 220 176 l 1,0,-1
209 -5 m 256,22,23
 236 -5 236 -5 236 20 c 2,24,-1
 236 28 l 2,25,26
 236 53 236 53 211 53 c 0,27,28
 182 53 182 53 182 28 c 2,29,-1
 182 20 l 2,30,31
 182 -5 182 -5 209 -5 c 256,22,23
EndSplineSet
EndChar

StartChar: at
Encoding: 64 64 33
Width: 880
Flags: W
LayerCount: 2
Fore
SplineSet
676 -121 m 1,0,-1
 676 -103 l 1,1,-1
 440 -103 l 2,2,3
 290 -103 290 -103 191 2 c 0,4,5
 144 52 144 52 118 121 c 128,-1,6
 92 190 92 190 92 274 c 2,7,-1
 92 326 l 2,8,9
 92 487 92 487 192 589.5 c 128,-1,10
 292 692 292 692 442 692 c 0,11,12
 588 692 588 692 689 599 c 0,13,14
 788 504 788 504 788 352 c 2,15,-1
 788 305 l 2,16,17
 788 201 788 201 755 144 c 128,-1,18
 722 87 722 87 668 87 c 0,19,20
 633 87 633 87 613.5 108.5 c 128,-1,21
 594 130 594 130 594 163 c 2,22,-1
 594 496 l 1,23,-1
 574 496 l 1,24,-1
 574 433 l 1,25,-1
 571 433 l 1,26,27
 557 462 557 462 524 485 c 128,-1,28
 491 508 491 508 436 508 c 0,29,30
 355 508 355 508 309.5 453 c 128,-1,31
 264 398 264 398 264 287 c 0,32,33
 264 178 264 178 309.5 123.5 c 128,-1,34
 355 69 355 69 436 69 c 0,35,36
 490 69 490 69 524.5 93.5 c 128,-1,37
 559 118 559 118 572 148 c 1,38,-1
 575 148 l 1,39,40
 590 69 590 69 668 69 c 0,41,42
 740 69 740 69 777 145 c 1,43,44
 810 222 810 222 810 330 c 0,45,46
 810 510 810 510 702 612 c 1,47,48
 592 710 592 710 442 710 c 0,49,50
 285 710 285 710 177 600 c 0,51,52
 126 547 126 547 98 471 c 128,-1,53
 70 395 70 395 70 300 c 0,54,55
 70 199 70 199 98.5 120.5 c 128,-1,56
 127 42 127 42 178 -11 c 0,57,58
 286 -121 286 -121 440 -121 c 2,59,-1
 676 -121 l 1,0,-1
436 87 m 0,60,61
 363 87 363 87 324.5 135.5 c 128,-1,62
 286 184 286 184 286 268 c 2,63,-1
 286 306 l 2,64,65
 286 392 286 392 324.5 441 c 128,-1,66
 363 490 363 490 436 490 c 0,67,68
 490 490 490 490 532 455 c 0,69,70
 574 417 574 417 574 362 c 2,71,-1
 574 212 l 2,72,73
 574 157 574 157 532 122 c 128,-1,74
 490 87 490 87 436 87 c 0,60,61
EndSplineSet
EndChar

StartChar: A
Encoding: 65 65 34
Width: 600
GlyphClass: 5
Flags: W
LayerCount: 2
Fore
SplineSet
568 0 m 1,0,-1
 315 698 l 1,1,-1
 285 698 l 1,2,-1
 32 0 l 1,3,-1
 55 0 l 1,4,-1
 140 234 l 1,5,-1
 460 234 l 1,6,-1
 545 0 l 1,7,-1
 568 0 l 1,0,-1
453 253 m 1,8,-1
 147 253 l 1,9,-1
 298 675 l 1,10,-1
 301 675 l 1,11,-1
 453 253 l 1,8,-1
EndSplineSet
EndChar

StartChar: B
Encoding: 66 66 35
Width: 615
GlyphClass: 7
Flags: W
LayerCount: 2
Fore
SplineSet
376 0 m 2,0,1
 462 0 462 0 506 51 c 128,-1,2
 550 102 550 102 550 189 c 0,3,4
 550 263 550 263 518 310 c 128,-1,5
 486 357 486 357 420 369 c 1,6,-1
 420 371 l 1,7,8
 518 401 518 401 518 528 c 0,9,10
 518 612 518 612 476.5 655 c 128,-1,11
 435 698 435 698 360 698 c 2,12,-1
 108 698 l 1,13,-1
 108 0 l 1,14,-1
 376 0 l 2,0,1
376 20 m 2,15,-1
 130 20 l 1,16,-1
 130 358 l 1,17,-1
 376 358 l 2,18,19
 449 358 449 358 490 313 c 1,20,21
 526 266 526 266 526 210 c 2,22,-1
 526 168 l 2,23,24
 526 110 526 110 490 66 c 0,25,26
 450 20 450 20 376 20 c 2,15,-1
360 378 m 2,27,-1
 130 378 l 1,28,-1
 130 678 l 1,29,-1
 360 678 l 2,30,31
 428 678 428 678 462 639 c 0,32,33
 494 599 494 599 494 549 c 2,34,-1
 494 507 l 2,35,36
 494 458 494 458 462 417 c 0,37,38
 428 378 428 378 360 378 c 2,27,-1
EndSplineSet
EndChar

StartChar: C
Encoding: 67 67 36
Width: 610
Flags: W
LayerCount: 2
Fore
SplineSet
329 -12 m 0,0,1
 410 -12 410 -12 466.5 29 c 128,-1,2
 523 70 523 70 550 140 c 1,3,-1
 531 148 l 1,4,5
 505 82 505 82 454.5 45 c 128,-1,6
 404 8 404 8 329 8 c 0,7,8
 219 8 219 8 156.5 87 c 128,-1,9
 94 166 94 166 94 328 c 2,10,-1
 94 370 l 2,11,12
 94 532 94 532 156.5 611 c 128,-1,13
 219 690 219 690 329 690 c 0,14,15
 467 690 467 690 526 558 c 1,16,-1
 545 567 l 1,17,18
 516 632 516 632 461 671 c 128,-1,19
 406 710 406 710 329 710 c 0,20,21
 204 710 204 710 137 620 c 128,-1,22
 70 530 70 530 70 349 c 256,23,24
 70 168 70 168 137 78 c 128,-1,25
 204 -12 204 -12 329 -12 c 0,0,1
EndSplineSet
EndChar

StartChar: D
Encoding: 68 68 37
Width: 658
Flags: W
LayerCount: 2
Fore
SplineSet
312 0 m 2,0,1
 452 0 452 0 520 87.5 c 128,-1,2
 588 175 588 175 588 349 c 256,3,4
 588 523 588 523 520 610.5 c 128,-1,5
 452 698 452 698 312 698 c 2,6,-1
 108 698 l 1,7,-1
 108 0 l 1,8,-1
 312 0 l 2,0,1
313 20 m 2,9,-1
 130 20 l 1,10,-1
 130 678 l 1,11,-1
 313 678 l 2,12,13
 440 678 440 678 504 596 c 0,14,15
 564 516 564 516 564 379 c 2,16,-1
 564 319 l 2,17,18
 564 183 564 183 504 102 c 0,19,20
 440 20 440 20 313 20 c 2,9,-1
EndSplineSet
EndChar

StartChar: E
Encoding: 69 69 38
Width: 561
Flags: W
LayerCount: 2
Fore
SplineSet
489 0 m 1,0,-1
 489 20 l 1,1,-1
 130 20 l 1,2,-1
 130 344 l 1,3,-1
 477 344 l 1,4,-1
 477 364 l 1,5,-1
 130 364 l 1,6,-1
 130 678 l 1,7,-1
 489 678 l 1,8,-1
 489 698 l 1,9,-1
 108 698 l 1,10,-1
 108 0 l 1,11,-1
 489 0 l 1,0,-1
EndSplineSet
EndChar

StartChar: F
Encoding: 70 70 39
Width: 535
GlyphClass: 2
Flags: W
LayerCount: 2
Fore
SplineSet
130 0 m 1,0,-1
 130 344 l 1,1,-1
 467 344 l 1,2,-1
 467 364 l 1,3,-1
 130 364 l 1,4,-1
 130 678 l 1,5,-1
 481 678 l 1,6,-1
 481 698 l 1,7,-1
 108 698 l 1,8,-1
 108 0 l 1,9,-1
 130 0 l 1,0,-1
EndSplineSet
EndChar

StartChar: G
Encoding: 71 71 40
Width: 666
Flags: W
LayerCount: 2
Fore
SplineSet
340 -12 m 0,0,1
 502 -12 502 -12 562 114 c 1,2,-1
 565 114 l 1,3,-1
 565 0 l 1,4,-1
 586 0 l 1,5,-1
 586 332 l 1,6,-1
 388 332 l 1,7,-1
 388 312 l 1,8,-1
 564 312 l 1,9,-1
 564 206 l 2,10,11
 564 110 564 110 497 59 c 128,-1,12
 430 8 430 8 340 8 c 0,13,14
 225 8 225 8 159.5 88.5 c 128,-1,15
 94 169 94 169 94 328 c 2,16,-1
 94 370 l 2,17,18
 94 529 94 529 159.5 609.5 c 128,-1,19
 225 690 225 690 340 690 c 0,20,21
 413 690 413 690 467.5 655.5 c 128,-1,22
 522 621 522 621 550 558 c 1,23,-1
 569 567 l 1,24,25
 539 633 539 633 480 671.5 c 128,-1,26
 421 710 421 710 340 710 c 0,27,28
 209 710 209 710 139.5 620 c 128,-1,29
 70 530 70 530 70 349 c 256,30,31
 70 168 70 168 139.5 78 c 128,-1,32
 209 -12 209 -12 340 -12 c 0,0,1
EndSplineSet
EndChar

StartChar: H
Encoding: 72 72 41
Width: 692
GlyphClass: 5
Flags: W
LayerCount: 2
Fore
SplineSet
584 0 m 1,0,-1
 584 698 l 1,1,-1
 562 698 l 1,2,-1
 562 364 l 1,3,-1
 130 364 l 1,4,-1
 130 698 l 1,5,-1
 108 698 l 1,6,-1
 108 0 l 1,7,-1
 130 0 l 1,8,-1
 130 344 l 1,9,-1
 562 344 l 1,10,-1
 562 0 l 1,11,-1
 584 0 l 1,0,-1
EndSplineSet
EndChar

StartChar: I
Encoding: 73 73 42
Width: 238
Flags: W
LayerCount: 2
Fore
SplineSet
130 0 m 1,0,-1
 130 698 l 1,1,-1
 108 698 l 1,2,-1
 108 0 l 1,3,-1
 130 0 l 1,0,-1
EndSplineSet
EndChar

StartChar: J
Encoding: 74 74 43
Width: 464
GlyphClass: 7
Flags: W
LayerCount: 2
Fore
SplineSet
192 -12 m 0,0,1
 129 -12 129 -12 83 22 c 128,-1,2
 37 56 37 56 22 113 c 1,3,-1
 41 119 l 1,4,5
 56 70 56 70 95 39 c 128,-1,6
 134 8 134 8 192 8 c 0,7,8
 342 8 342 8 342 183 c 2,9,-1
 342 698 l 1,10,-1
 364 698 l 1,11,-1
 364 183 l 2,12,13
 364 86 364 86 318.5 37 c 128,-1,14
 273 -12 273 -12 192 -12 c 0,0,1
EndSplineSet
EndChar

StartChar: K
Encoding: 75 75 44
Width: 572
GlyphClass: 7
Flags: W
LayerCount: 2
Fore
SplineSet
552 0 m 1,0,-1
 280 403 l 1,1,-1
 549 698 l 1,2,-1
 521 698 l 1,3,4
 327 484 327 484 132 271 c 1,5,-1
 130 271 l 1,6,-1
 130 698 l 1,7,-1
 108 698 l 1,8,-1
 108 0 l 1,9,-1
 130 0 l 1,10,-1
 130 239 l 1,11,-1
 265 387 l 1,12,-1
 526 0 l 1,13,-1
 552 0 l 1,0,-1
EndSplineSet
EndChar

StartChar: L
Encoding: 76 76 45
Width: 475
GlyphClass: 5
Flags: W
LayerCount: 2
Fore
SplineSet
455 0 m 1,0,-1
 455 20 l 1,1,-1
 130 20 l 1,2,-1
 130 698 l 1,3,-1
 108 698 l 1,4,-1
 108 0 l 1,5,-1
 455 0 l 1,0,-1
EndSplineSet
EndChar

StartChar: M
Encoding: 77 77 46
Width: 796
GlyphClass: 7
Flags: W
LayerCount: 2
Fore
SplineSet
688 0 m 1,0,-1
 688 698 l 1,1,-1
 655 698 l 1,2,-1
 400 278 l 1,3,-1
 397 278 l 1,4,-1
 141 698 l 1,5,-1
 108 698 l 1,6,-1
 108 0 l 1,7,-1
 129 0 l 1,8,-1
 129 673 l 1,9,-1
 132 673 l 1,10,-1
 398 236 l 1,11,-1
 664 673 l 1,12,-1
 667 673 l 1,13,-1
 667 0 l 1,14,-1
 688 0 l 1,0,-1
EndSplineSet
EndChar

StartChar: N
Encoding: 78 78 47
Width: 692
GlyphClass: 7
Flags: W
LayerCount: 2
Fore
SplineSet
584 0 m 1,0,-1
 584 698 l 1,1,-1
 563 698 l 1,2,-1
 563 27 l 1,3,-1
 560 27 l 1,4,-1
 140 698 l 1,5,-1
 108 698 l 1,6,-1
 108 0 l 1,7,-1
 129 0 l 1,8,-1
 129 671 l 1,9,-1
 132 671 l 1,10,-1
 552 0 l 1,11,-1
 584 0 l 1,0,-1
EndSplineSet
EndChar

StartChar: O
Encoding: 79 79 48
Width: 680
GlyphClass: 7
Flags: W
LayerCount: 2
Fore
SplineSet
340 -12 m 256,0,1
 471 -12 471 -12 540.5 78 c 128,-1,2
 610 168 610 168 610 349 c 256,3,4
 610 530 610 530 540.5 620 c 128,-1,5
 471 710 471 710 340 710 c 256,6,7
 209 710 209 710 139.5 620 c 128,-1,8
 70 530 70 530 70 349 c 256,9,10
 70 168 70 168 139.5 78 c 128,-1,11
 209 -12 209 -12 340 -12 c 256,0,1
340 8 m 256,12,13
 225 8 225 8 159.5 88.5 c 128,-1,14
 94 169 94 169 94 328 c 2,15,-1
 94 370 l 2,16,17
 94 529 94 529 159.5 609.5 c 128,-1,18
 225 690 225 690 340 690 c 256,19,20
 455 690 455 690 520.5 609.5 c 128,-1,21
 586 529 586 529 586 370 c 2,22,-1
 586 328 l 2,23,24
 586 169 586 169 520.5 88.5 c 128,-1,25
 455 8 455 8 340 8 c 256,12,13
EndSplineSet
EndChar

StartChar: P
Encoding: 80 80 49
Width: 594
GlyphClass: 1
Flags: W
LayerCount: 2
Fore
SplineSet
130 0 m 1,0,-1
 130 322 l 1,1,-1
 376 322 l 2,2,3
 462 322 462 322 506 373 c 128,-1,4
 550 424 550 424 550 510 c 256,5,6
 550 596 550 596 506 647 c 128,-1,7
 462 698 462 698 376 698 c 2,8,-1
 108 698 l 1,9,-1
 108 0 l 1,10,-1
 130 0 l 1,0,-1
376 342 m 2,11,-1
 130 342 l 1,12,-1
 130 678 l 1,13,-1
 376 678 l 2,14,15
 449 678 449 678 490 633 c 1,16,17
 526 587 526 587 526 531 c 2,18,-1
 526 489 l 2,19,20
 526 431 526 431 490 387 c 0,21,22
 449 342 449 342 376 342 c 2,11,-1
EndSplineSet
EndChar

StartChar: Q
Encoding: 81 81 50
Width: 680
GlyphClass: 1
Flags: W
LayerCount: 2
Fore
SplineSet
340 8 m 256,0,1
 225 8 225 8 159.5 88.5 c 128,-1,2
 94 169 94 169 94 328 c 2,3,-1
 94 370 l 2,4,5
 94 529 94 529 159.5 609.5 c 128,-1,6
 225 690 225 690 340 690 c 256,7,8
 455 690 455 690 520.5 609.5 c 128,-1,9
 586 529 586 529 586 370 c 2,10,-1
 586 328 l 2,11,12
 586 169 586 169 520.5 88.5 c 128,-1,13
 455 8 455 8 340 8 c 256,0,1
541 78 m 0,15,16
 610 168 610 168 610 349 c 256,17,18
 610 530 610 530 540.5 620 c 128,-1,19
 471 710 471 710 340 710 c 256,20,21
 209 710 209 710 139.5 620 c 128,-1,22
 70 530 70 530 70 349 c 256,23,24
 70 168 70 168 139.5 78 c 128,-1,25
 209 -12 209 -12 340 -12 c 0,26,27
 394 -12 394 -12 438 3 c 1,28,-1
 648 -118 l 1,29,-1
 658 -101 l 1,30,-1
 461 13 l 1,31,14
 508 35 508 35 541 78 c 0,15,16
EndSplineSet
EndChar

StartChar: R
Encoding: 82 82 51
Width: 630
GlyphClass: 3
Flags: W
LayerCount: 2
Fore
SplineSet
566 0 m 1,0,-1
 374 322 l 1,1,2
 462 322 462 322 506 373 c 128,-1,3
 550 424 550 424 550 510 c 256,4,5
 550 596 550 596 506 647 c 128,-1,6
 462 698 462 698 376 698 c 2,7,-1
 108 698 l 1,8,-1
 108 0 l 1,9,-1
 130 0 l 1,10,-1
 130 322 l 1,11,-1
 349 322 l 1,12,-1
 541 0 l 1,13,-1
 566 0 l 1,0,-1
376 342 m 2,14,-1
 130 342 l 1,15,-1
 130 678 l 1,16,-1
 376 678 l 2,17,18
 449 678 449 678 490 633 c 1,19,20
 526 587 526 587 526 531 c 2,21,-1
 526 489 l 2,22,23
 526 431 526 431 490 387 c 0,24,25
 449 342 449 342 376 342 c 2,14,-1
EndSplineSet
EndChar

StartChar: S
Encoding: 83 83 52
Width: 547
GlyphClass: 5
Flags: W
LayerCount: 2
Fore
SplineSet
276 -12 m 0,0,1
 374 -12 374 -12 431.5 35.5 c 128,-1,2
 489 83 489 83 489 178 c 0,3,4
 489 247 489 247 454 291 c 0,5,6
 417 341 417 341 312 362 c 2,7,-1
 242 375 l 1,8,9
 80 400 80 400 80 534 c 0,10,11
 80 613 80 613 130 651.5 c 128,-1,12
 180 690 180 690 269 690 c 0,13,14
 337 690 337 690 383 668 c 128,-1,15
 429 646 429 646 459 602 c 1,16,-1
 477 615 l 1,17,18
 413 710 413 710 271 710 c 0,19,20
 174 710 174 710 116 666.5 c 128,-1,21
 58 623 58 623 58 534 c 0,22,23
 58 466 58 466 95 423 c 0,24,25
 133 374 133 374 236 354 c 2,26,-1
 306 341 l 2,27,28
 371 331 371 331 418 297 c 1,29,30
 467 256 467 256 467 176 c 0,31,32
 467 93 467 93 417 50.5 c 128,-1,33
 367 8 367 8 276 8 c 0,34,35
 137 8 137 8 60 115 c 1,36,-1
 42 102 l 1,37,38
 125 -12 125 -12 276 -12 c 0,0,1
EndSplineSet
EndChar

StartChar: T
Encoding: 84 84 53
Width: 560
GlyphClass: 7
Flags: W
LayerCount: 2
Fore
SplineSet
291 0 m 1,0,-1
 291 678 l 1,1,-1
 543 678 l 1,2,-1
 543 698 l 1,3,-1
 17 698 l 1,4,-1
 17 678 l 1,5,-1
 269 678 l 1,6,-1
 269 0 l 1,7,-1
 291 0 l 1,0,-1
EndSplineSet
EndChar

StartChar: U
Encoding: 85 85 54
Width: 652
GlyphClass: 5
Flags: W
LayerCount: 2
Fore
SplineSet
326 -12 m 256,0,1
 452 -12 452 -12 502 51 c 128,-1,2
 552 114 552 114 552 270 c 2,3,-1
 552 698 l 1,4,-1
 530 698 l 1,5,-1
 530 268 l 2,6,7
 530 126 530 126 486 67 c 128,-1,8
 442 8 442 8 326 8 c 0,9,10
 208 8 208 8 166 67 c 0,11,12
 122 126 122 126 122 268 c 2,13,-1
 122 698 l 1,14,-1
 100 698 l 1,15,-1
 100 270 l 2,16,17
 100 114 100 114 150 51 c 128,-1,18
 200 -12 200 -12 326 -12 c 256,0,1
EndSplineSet
EndChar

StartChar: V
Encoding: 86 86 55
Width: 570
GlyphClass: 3
Flags: W
LayerCount: 2
Fore
SplineSet
300 0 m 1,0,-1
 540 698 l 1,1,-1
 517 698 l 1,2,-1
 287 25 l 1,3,-1
 284 25 l 1,4,-1
 54 698 l 1,5,-1
 30 698 l 1,6,-1
 270 0 l 1,7,-1
 300 0 l 1,0,-1
EndSplineSet
EndChar

StartChar: W
Encoding: 87 87 56
Width: 872
GlyphClass: 5
Flags: W
LayerCount: 2
Fore
SplineSet
656 0 m 1,0,-1
 842 698 l 1,1,-1
 819 698 l 1,2,-1
 642 31 l 1,3,-1
 639 31 l 1,4,-1
 452 698 l 1,5,-1
 420 698 l 1,6,-1
 233 31 l 1,7,-1
 230 31 l 1,8,-1
 54 698 l 1,9,-1
 30 698 l 1,10,-1
 216 0 l 1,11,-1
 246 0 l 1,12,-1
 434 674 l 1,13,-1
 437 674 l 1,14,-1
 626 0 l 1,15,-1
 656 0 l 1,0,-1
EndSplineSet
EndChar

StartChar: X
Encoding: 88 88 57
Width: 558
Flags: W
LayerCount: 2
Fore
SplineSet
530 0 m 1,0,-1
 293 357 l 1,1,-1
 521 698 l 1,2,-1
 495 698 l 1,3,-1
 280 376 l 1,4,-1
 278 376 l 1,5,-1
 63 698 l 1,6,-1
 37 698 l 1,7,-1
 266 354 l 1,8,-1
 28 0 l 1,9,-1
 54 0 l 1,10,-1
 279 335 l 1,11,-1
 281 335 l 1,12,-1
 504 0 l 1,13,-1
 530 0 l 1,0,-1
EndSplineSet
EndChar

StartChar: Y
Encoding: 89 89 58
Width: 546
Flags: W
LayerCount: 2
Fore
SplineSet
284 0 m 1,0,-1
 284 294 l 1,1,-1
 525 698 l 1,2,-1
 501 698 l 1,3,-1
 275 320 l 1,4,-1
 272 320 l 1,5,-1
 46 698 l 1,6,-1
 21 698 l 1,7,-1
 262 294 l 1,8,-1
 262 0 l 1,9,-1
 284 0 l 1,0,-1
EndSplineSet
EndChar

StartChar: Z
Encoding: 90 90 59
Width: 555
Flags: W
LayerCount: 2
Fore
SplineSet
527 0 m 1,0,-1
 527 20 l 1,1,-1
 63 20 l 1,2,-1
 506 676 l 1,3,-1
 506 698 l 1,4,-1
 62 698 l 1,5,-1
 62 678 l 1,6,-1
 482 678 l 1,7,-1
 39 22 l 1,8,-1
 39 0 l 1,9,-1
 527 0 l 1,0,-1
EndSplineSet
EndChar

StartChar: bracketleft
Encoding: 91 91 60
Width: 301
Flags: W
LayerCount: 2
Fore
SplineSet
232 -138 m 1,0,-1
 232 -120 l 1,1,-1
 128 -120 l 1,2,-1
 128 742 l 1,3,-1
 232 742 l 1,4,-1
 232 760 l 1,5,-1
 108 760 l 1,6,-1
 108 -138 l 1,7,-1
 232 -138 l 1,0,-1
EndSplineSet
EndChar

StartChar: backslash
Encoding: 92 92 61
Width: 313
Flags: W
LayerCount: 2
Fore
SplineSet
294 -151 m 1,0,-1
 61 740 l 1,1,-1
 41 740 l 1,2,-1
 274 -151 l 1,3,-1
 294 -151 l 1,0,-1
EndSplineSet
EndChar

StartChar: bracketright
Encoding: 93 93 62
Width: 301
Flags: W
LayerCount: 2
Fore
SplineSet
193 -138 m 1,0,-1
 193 760 l 1,1,-1
 69 760 l 1,2,-1
 69 742 l 1,3,-1
 173 742 l 1,4,-1
 173 -120 l 1,5,-1
 69 -120 l 1,6,-1
 69 -138 l 1,7,-1
 193 -138 l 1,0,-1
EndSplineSet
EndChar

StartChar: asciicircum
Encoding: 94 94 63
Width: 600
Flags: W
LayerCount: 2
Fore
SplineSet
514 322 m 1,0,-1
 532 332 l 1,1,-1
 311 698 l 1,2,-1
 289 698 l 1,3,-1
 68 332 l 1,4,-1
 86 322 l 1,5,-1
 299 676 l 1,6,-1
 301 676 l 1,7,-1
 514 322 l 1,0,-1
EndSplineSet
EndChar

StartChar: underscore
Encoding: 95 95 64
Width: 569
GlyphClass: 3
Flags: W
LayerCount: 2
Fore
SplineSet
539 -141 m 1,0,-1
 539 -123 l 1,1,-1
 30 -123 l 1,2,-1
 30 -141 l 1,3,-1
 539 -141 l 1,0,-1
EndSplineSet
EndChar

StartChar: grave
Encoding: 96 96 65
Width: 600
Flags: W
LayerCount: 2
Fore
SplineSet
317 587 m 1,0,-1
 332 597 l 1,1,-1
 221 751 l 1,2,-1
 202 739 l 1,3,-1
 317 587 l 1,0,-1
EndSplineSet
EndChar

StartChar: a
Encoding: 97 97 66
Width: 509
Flags: W
LayerCount: 2
Fore
SplineSet
224 -12 m 0,0,1
 146 -12 146 -12 103.5 24.5 c 128,-1,2
 61 61 61 61 61 130 c 256,3,4
 61 199 61 199 102 234 c 0,5,6
 149 275 149 275 251 275 c 2,7,-1
 393 275 l 1,8,-1
 393 349 l 2,9,10
 393 427 393 427 356.5 463 c 128,-1,11
 320 499 320 499 249 499 c 0,12,13
 135 499 135 499 96 404 c 1,14,-1
 78 412 l 1,15,16
 98 461 98 461 138 489.5 c 128,-1,17
 178 518 178 518 249 518 c 0,18,19
 414 518 414 518 414 356 c 2,20,-1
 414 0 l 1,21,-1
 393 0 l 1,22,-1
 393 77 l 1,23,-1
 390 77 l 1,24,25
 347 -12 347 -12 224 -12 c 0,0,1
224 7 m 0,26,27
 292 7 292 7 342.5 43.5 c 128,-1,28
 393 80 393 80 393 148 c 2,29,-1
 393 257 l 1,30,-1
 252 257 l 2,31,32
 163 257 163 257 123.5 226 c 128,-1,33
 84 195 84 195 84 145 c 2,34,-1
 84 115 l 2,35,36
 84 62 84 62 123 34.5 c 128,-1,37
 162 7 162 7 224 7 c 0,26,27
EndSplineSet
EndChar

StartChar: b
Encoding: 98 98 67
Width: 565
Flags: W
LayerCount: 2
Fore
SplineSet
293 -12 m 0,0,1
 393 -12 393 -12 449 54 c 128,-1,2
 505 120 505 120 505 253 c 256,3,4
 505 386 505 386 449 452 c 128,-1,5
 393 518 393 518 293 518 c 0,6,7
 232 518 232 518 186 490 c 0,8,9
 145 462 145 462 129 428 c 1,10,-1
 126 428 l 1,11,-1
 126 740 l 1,12,-1
 105 740 l 1,13,-1
 105 0 l 1,14,-1
 126 0 l 1,15,-1
 126 78 l 1,16,-1
 129 78 l 1,17,18
 145 42 145 42 186 17 c 0,19,20
 227 -12 227 -12 293 -12 c 0,0,1
293 7 m 0,21,22
 227 7 227 7 176.5 45 c 128,-1,23
 126 83 126 83 126 143 c 2,24,-1
 126 363 l 2,25,26
 126 423 126 423 176.5 461 c 128,-1,27
 227 499 227 499 293 499 c 0,28,29
 384 499 384 499 433 439.5 c 128,-1,30
 482 380 482 380 482 277 c 2,31,-1
 482 229 l 2,32,33
 482 126 482 126 433 66.5 c 128,-1,34
 384 7 384 7 293 7 c 0,21,22
EndSplineSet
EndChar

StartChar: c
Encoding: 99 99 68
Width: 487
Flags: W
LayerCount: 2
Fore
SplineSet
270 -12 m 0,0,1
 390 -12 390 -12 444 84 c 1,2,-1
 428 95 l 1,3,4
 405 53 405 53 367 30 c 128,-1,5
 329 7 329 7 270 7 c 0,6,7
 179 7 179 7 131 66.5 c 128,-1,8
 83 126 83 126 83 229 c 2,9,-1
 83 277 l 2,10,11
 83 380 83 380 131 439.5 c 128,-1,12
 179 499 179 499 270 499 c 0,13,14
 324 499 324 499 359 476 c 128,-1,15
 394 453 394 453 417 409 c 1,16,-1
 435 418 l 1,17,18
 384 518 384 518 270 518 c 0,19,20
 170 518 170 518 115 451.5 c 128,-1,21
 60 385 60 385 60 253 c 256,22,23
 60 121 60 121 115 54.5 c 128,-1,24
 170 -12 170 -12 270 -12 c 0,0,1
EndSplineSet
EndChar

StartChar: d
Encoding: 100 100 69
Width: 565
Flags: W
LayerCount: 2
Fore
SplineSet
272 -12 m 0,0,1
 338 -12 338 -12 380 17 c 0,2,3
 420 42 420 42 436 78 c 1,4,-1
 439 78 l 1,5,-1
 439 0 l 1,6,-1
 460 0 l 1,7,-1
 460 740 l 1,8,-1
 439 740 l 1,9,-1
 439 428 l 1,10,-1
 436 428 l 1,11,12
 420 462 420 462 380 490 c 1,13,14
 332 518 332 518 272 518 c 0,15,16
 172 518 172 518 116 452 c 128,-1,17
 60 386 60 386 60 253 c 256,18,19
 60 120 60 120 116 54 c 128,-1,20
 172 -12 172 -12 272 -12 c 0,0,1
272 7 m 0,21,22
 181 7 181 7 132 66.5 c 128,-1,23
 83 126 83 126 83 229 c 2,24,-1
 83 277 l 2,25,26
 83 380 83 380 132 439.5 c 128,-1,27
 181 499 181 499 272 499 c 0,28,29
 338 499 338 499 388.5 461 c 128,-1,30
 439 423 439 423 439 363 c 2,31,-1
 439 143 l 2,32,33
 439 83 439 83 388.5 45 c 128,-1,34
 338 7 338 7 272 7 c 0,21,22
EndSplineSet
EndChar

StartChar: e
Encoding: 101 101 70
Width: 533
Flags: W
LayerCount: 2
Fore
SplineSet
272 -12 m 0,0,1
 345 -12 345 -12 393.5 24 c 128,-1,2
 442 60 442 60 465 124 c 1,3,-1
 447 131 l 1,4,5
 400 7 400 7 272 7 c 0,6,7
 181 7 181 7 132 66.5 c 128,-1,8
 83 126 83 126 83 229 c 2,9,-1
 83 256 l 1,10,-1
 473 256 l 1,11,-1
 473 266 l 2,12,13
 473 382 473 382 416.5 450 c 128,-1,14
 360 518 360 518 268 518 c 0,15,16
 170 518 170 518 115 451 c 128,-1,17
 60 384 60 384 60 253 c 0,18,19
 60 121 60 121 116 54.5 c 128,-1,20
 172 -12 172 -12 272 -12 c 0,0,1
450 275 m 1,21,-1
 83 275 l 1,22,23
 83 380 83 380 131 439.5 c 128,-1,24
 179 499 179 499 268 499 c 0,25,26
 351 499 351 499 400.5 439.5 c 128,-1,27
 450 380 450 380 450 275 c 1,21,-1
EndSplineSet
EndChar

StartChar: f
Encoding: 102 102 71
Width: 285
Flags: W
LayerCount: 2
Fore
SplineSet
144 0 m 1,0,-1
 144 487 l 1,1,-1
 260 487 l 1,2,-1
 260 506 l 1,3,-1
 144 506 l 1,4,-1
 144 721 l 1,5,-1
 260 721 l 1,6,-1
 260 740 l 1,7,-1
 152 740 l 2,8,9
 124 740 124 740 123 711 c 2,10,-1
 123 506 l 1,11,-1
 30 506 l 1,12,-1
 30 487 l 1,13,-1
 123 487 l 1,14,-1
 123 0 l 1,15,-1
 144 0 l 1,0,-1
EndSplineSet
EndChar

StartChar: g
Encoding: 103 103 72
Width: 527
Flags: W
LayerCount: 2
Fore
SplineSet
262 -212 m 0,0,1
 150 -212 150 -212 100 -176.5 c 128,-1,2
 50 -141 50 -141 50 -82 c 0,3,4
 50 6 50 6 149 38 c 1,5,-1
 149 41 l 1,6,7
 96 56 96 56 96 108 c 0,8,9
 96 168 96 168 181 194 c 1,10,-1
 181 197 l 1,11,12
 90 237 90 237 90 349 c 0,13,14
 90 426 90 426 136 472 c 128,-1,15
 182 518 182 518 263 518 c 0,16,17
 303 518 303 518 335 506 c 1,18,-1
 501 506 l 1,19,-1
 501 487 l 1,20,-1
 371 487 l 1,21,22
 402 466 402 466 419 430.5 c 128,-1,23
 436 395 436 395 436 349 c 0,24,25
 436 272 436 272 388 226 c 128,-1,26
 340 180 340 180 263 180 c 0,27,28
 242 180 242 180 207 187 c 1,29,30
 116 163 116 163 116 109 c 0,31,32
 116 53 116 53 203 53 c 2,33,-1
 338 53 l 2,34,35
 501 53 501 53 501 -65 c 0,36,37
 501 -212 501 -212 262 -212 c 0,0,1
263 199 m 0,38,39
 335 199 335 199 373.5 236.5 c 128,-1,40
 412 274 412 274 412 330 c 2,41,-1
 412 368 l 2,42,43
 412 424 412 424 373.5 461.5 c 128,-1,44
 335 499 335 499 263 499 c 256,45,46
 191 499 191 499 152.5 461.5 c 128,-1,47
 114 424 114 424 114 368 c 2,48,-1
 114 330 l 2,49,50
 114 272 114 272 154.5 235.5 c 128,-1,51
 195 199 195 199 263 199 c 0,38,39
287 -193 m 2,52,53
 375 -193 375 -193 427 -161.5 c 128,-1,54
 479 -130 479 -130 479 -65 c 0,55,56
 479 -19 479 -19 447.5 7 c 128,-1,57
 416 33 416 33 335 33 c 2,58,-1
 180 33 l 1,59,60
 72 6 72 6 72 -83 c 0,61,62
 72 -133 72 -133 116.5 -163 c 128,-1,63
 161 -193 161 -193 238 -193 c 2,64,-1
 287 -193 l 2,52,53
EndSplineSet
EndChar

StartChar: h
Encoding: 104 104 73
Width: 556
Flags: W
LayerCount: 2
Fore
SplineSet
461 0 m 1,0,-1
 461 325 l 2,1,2
 461 516 461 516 287 518 c 0,3,4
 219 518 219 518 180.5 491.5 c 128,-1,5
 142 465 142 465 129 430 c 1,6,-1
 126 430 l 1,7,-1
 126 740 l 1,8,-1
 105 740 l 1,9,-1
 105 0 l 1,10,-1
 126 0 l 1,11,-1
 126 362 l 2,12,13
 126 430 126 430 174 465 c 0,14,15
 224 499 224 499 285 499 c 0,16,17
 440 499 440 499 440 321 c 2,18,-1
 440 0 l 1,19,-1
 461 0 l 1,0,-1
EndSplineSet
EndChar

StartChar: i
Encoding: 105 105 74
Width: 231
Flags: W
LayerCount: 2
Fore
SplineSet
115 673 m 256,0,1
 138 673 138 673 138 694 c 2,2,-1
 138 701 l 2,3,4
 138 722 138 722 115 722 c 256,5,6
 92 722 92 722 92 701 c 2,7,-1
 92 694 l 2,8,9
 92 673 92 673 115 673 c 256,0,1
126 0 m 1,10,-1
 126 506 l 1,11,-1
 105 506 l 1,12,-1
 105 0 l 1,13,-1
 126 0 l 1,10,-1
EndSplineSet
EndChar

StartChar: j
Encoding: 106 106 75
Width: 231
Flags: W
LayerCount: 2
Fore
SplineSet
97 -200 m 2,0,1
 126 -200 126 -200 126 -171 c 2,2,-1
 126 506 l 1,3,-1
 105 506 l 1,4,-1
 105 -181 l 1,5,-1
 20 -181 l 1,6,-1
 20 -200 l 1,7,-1
 97 -200 l 2,0,1
115 673 m 256,8,9
 138 673 138 673 138 694 c 2,10,-1
 138 701 l 2,11,12
 138 722 138 722 115 722 c 256,13,14
 92 722 92 722 92 701 c 2,15,-1
 92 694 l 2,16,17
 92 673 92 673 115 673 c 256,8,9
EndSplineSet
EndChar

StartChar: k
Encoding: 107 107 76
Width: 490
Flags: W
LayerCount: 2
Fore
SplineSet
471 0 m 1,0,-1
 229 292 l 1,1,-1
 444 506 l 1,2,-1
 416 506 l 1,3,-1
 129 220 l 1,4,-1
 126 220 l 1,5,-1
 126 740 l 1,6,-1
 105 740 l 1,7,-1
 105 0 l 1,8,-1
 126 0 l 1,9,-1
 126 190 l 1,10,-1
 214 277 l 1,11,-1
 445 0 l 1,12,-1
 471 0 l 1,0,-1
EndSplineSet
EndChar

StartChar: l
Encoding: 108 108 77
Width: 251
Flags: W
LayerCount: 2
Fore
SplineSet
211 0 m 1,0,-1
 211 19 l 1,1,-1
 126 19 l 1,2,-1
 126 740 l 1,3,-1
 105 740 l 1,4,-1
 105 29 l 2,5,6
 105 1 105 1 134 0 c 2,7,-1
 211 0 l 1,0,-1
EndSplineSet
EndChar

StartChar: m
Encoding: 109 109 78
Width: 879
Flags: W
LayerCount: 2
Fore
SplineSet
784 0 m 1,0,-1
 784 325 l 2,1,2
 784 516 784 516 611 518 c 0,3,4
 540 518 540 518 499.5 487 c 128,-1,5
 459 456 459 456 445 406 c 1,6,-1
 441 406 l 1,7,8
 407 518 407 518 282 518 c 0,9,10
 216 518 216 518 179 492 c 128,-1,11
 142 466 142 466 129 430 c 1,12,-1
 126 430 l 1,13,-1
 126 506 l 1,14,-1
 105 506 l 1,15,-1
 105 0 l 1,16,-1
 126 0 l 1,17,-1
 126 362 l 2,18,19
 126 430 126 430 173 464.5 c 128,-1,20
 220 499 220 499 280 499 c 0,21,22
 434 499 434 499 434 322 c 2,23,-1
 434 0 l 1,24,-1
 455 0 l 1,25,-1
 455 360 l 2,26,27
 455 426 455 426 501 465 c 1,28,29
 548 499 548 499 609 499 c 0,30,31
 684 499 684 499 723.5 456.5 c 128,-1,32
 763 414 763 414 763 322 c 2,33,-1
 763 0 l 1,34,-1
 784 0 l 1,0,-1
EndSplineSet
EndChar

StartChar: n
Encoding: 110 110 79
Width: 556
Flags: W
LayerCount: 2
Fore
SplineSet
461 0 m 1,0,-1
 461 325 l 2,1,2
 461 516 461 516 287 518 c 0,3,4
 219 518 219 518 180.5 491.5 c 128,-1,5
 142 465 142 465 129 430 c 1,6,-1
 126 430 l 1,7,-1
 126 506 l 1,8,-1
 105 506 l 1,9,-1
 105 0 l 1,10,-1
 126 0 l 1,11,-1
 126 362 l 2,12,13
 126 430 126 430 174 465 c 0,14,15
 224 499 224 499 285 499 c 0,16,17
 440 499 440 499 440 321 c 2,18,-1
 440 0 l 1,19,-1
 461 0 l 1,0,-1
EndSplineSet
EndChar

StartChar: o
Encoding: 111 111 80
Width: 540
Flags: W
LayerCount: 2
Fore
SplineSet
270 -12 m 256,0,1
 370 -12 370 -12 425 54.5 c 128,-1,2
 480 121 480 121 480 253 c 256,3,4
 480 385 480 385 425 451.5 c 128,-1,5
 370 518 370 518 270 518 c 256,6,7
 170 518 170 518 115 451.5 c 128,-1,8
 60 385 60 385 60 253 c 256,9,10
 60 121 60 121 115 54.5 c 128,-1,11
 170 -12 170 -12 270 -12 c 256,0,1
270 7 m 256,12,13
 179 7 179 7 131 66.5 c 128,-1,14
 83 126 83 126 83 229 c 2,15,-1
 83 277 l 2,16,17
 83 380 83 380 131 439.5 c 128,-1,18
 179 499 179 499 270 499 c 256,19,20
 361 499 361 499 409 439.5 c 128,-1,21
 457 380 457 380 457 277 c 2,22,-1
 457 229 l 2,23,24
 457 126 457 126 409 66.5 c 128,-1,25
 361 7 361 7 270 7 c 256,12,13
EndSplineSet
EndChar

StartChar: p
Encoding: 112 112 81
Width: 565
Flags: W
LayerCount: 2
Fore
SplineSet
126 -200 m 1,0,-1
 126 78 l 1,1,-1
 129 78 l 1,2,3
 145 42 145 42 186 17 c 0,4,5
 227 -12 227 -12 293 -12 c 0,6,7
 393 -12 393 -12 449 54 c 128,-1,8
 505 120 505 120 505 253 c 256,9,10
 505 386 505 386 449 452 c 128,-1,11
 393 518 393 518 293 518 c 0,12,13
 232 518 232 518 186 490 c 0,14,15
 145 462 145 462 129 428 c 1,16,-1
 126 428 l 1,17,-1
 126 506 l 1,18,-1
 105 506 l 1,19,-1
 105 -200 l 1,20,-1
 126 -200 l 1,0,-1
293 7 m 0,21,22
 227 7 227 7 176.5 45 c 128,-1,23
 126 83 126 83 126 143 c 2,24,-1
 126 363 l 2,25,26
 126 423 126 423 176.5 461 c 128,-1,27
 227 499 227 499 293 499 c 0,28,29
 384 499 384 499 433 439.5 c 128,-1,30
 482 380 482 380 482 277 c 2,31,-1
 482 229 l 2,32,33
 482 126 482 126 433 66.5 c 128,-1,34
 384 7 384 7 293 7 c 0,21,22
EndSplineSet
EndChar

StartChar: q
Encoding: 113 113 82
Width: 565
Flags: W
LayerCount: 2
Fore
SplineSet
460 -200 m 1,0,-1
 460 506 l 1,1,-1
 439 506 l 1,2,-1
 439 428 l 1,3,-1
 436 428 l 1,4,5
 420 462 420 462 380 490 c 1,6,7
 332 518 332 518 272 518 c 0,8,9
 172 518 172 518 116 452 c 128,-1,10
 60 386 60 386 60 253 c 256,11,12
 60 120 60 120 116 54 c 128,-1,13
 172 -12 172 -12 272 -12 c 0,14,15
 338 -12 338 -12 380 17 c 0,16,17
 420 42 420 42 436 78 c 1,18,-1
 439 78 l 1,19,-1
 439 -200 l 1,20,-1
 460 -200 l 1,0,-1
272 7 m 0,21,22
 181 7 181 7 132 66.5 c 128,-1,23
 83 126 83 126 83 229 c 2,24,-1
 83 277 l 2,25,26
 83 380 83 380 132 439.5 c 128,-1,27
 181 499 181 499 272 499 c 0,28,29
 338 499 338 499 388.5 461 c 128,-1,30
 439 423 439 423 439 363 c 2,31,-1
 439 143 l 2,32,33
 439 83 439 83 388.5 45 c 128,-1,34
 338 7 338 7 272 7 c 0,21,22
EndSplineSet
EndChar

StartChar: r
Encoding: 114 114 83
Width: 341
Flags: W
LayerCount: 2
Fore
SplineSet
126 0 m 1,0,-1
 126 349 l 2,1,2
 126 416 126 416 174 453 c 0,3,4
 223 487 223 487 284 487 c 2,5,-1
 328 487 l 1,6,-1
 328 506 l 1,7,-1
 287 506 l 2,8,9
 169 506 169 506 129 419 c 1,10,-1
 126 419 l 1,11,-1
 126 506 l 1,12,-1
 105 506 l 1,13,-1
 105 0 l 1,14,-1
 126 0 l 1,0,-1
EndSplineSet
EndChar

StartChar: s
Encoding: 115 115 84
Width: 462
Flags: W
LayerCount: 2
Fore
SplineSet
236 -12 m 0,0,1
 314 -12 314 -12 358.5 23.5 c 128,-1,2
 403 59 403 59 403 125 c 256,3,4
 403 191 403 191 364 223.5 c 128,-1,5
 325 256 325 256 258 265 c 2,6,-1
 214 272 l 2,7,8
 149 282 149 282 118 307.5 c 128,-1,9
 87 333 87 333 87 390 c 0,10,11
 87 444 87 444 125.5 471.5 c 128,-1,12
 164 499 164 499 227 499 c 0,13,14
 287 499 287 499 320.5 478.5 c 128,-1,15
 354 458 354 458 377 431 c 1,16,-1
 393 445 l 1,17,18
 335 518 335 518 226 518 c 0,19,20
 159 518 159 518 112.5 486 c 128,-1,21
 66 454 66 454 66 389 c 0,22,23
 66 323 66 323 104.5 292 c 128,-1,24
 143 261 143 261 210 252 c 2,25,-1
 254 245 l 2,26,27
 317 236 317 236 349.5 208.5 c 128,-1,28
 382 181 382 181 382 124 c 0,29,30
 382 10 382 10 236 7 c 0,31,32
 124 7 124 7 67 93 c 1,33,-1
 49 81 l 1,34,35
 84 31 84 31 129.5 9.5 c 128,-1,36
 175 -12 175 -12 236 -12 c 0,0,1
EndSplineSet
EndChar

StartChar: t
Encoding: 116 116 85
Width: 310
Flags: W
LayerCount: 2
Fore
SplineSet
259 0 m 1,0,-1
 259 19 l 1,1,-1
 146 19 l 1,2,-1
 146 487 l 1,3,-1
 267 487 l 1,4,-1
 267 506 l 1,5,-1
 146 506 l 1,6,-1
 146 650 l 1,7,-1
 125 650 l 1,8,-1
 125 531 l 2,9,10
 125 517 125 517 120.5 511.5 c 128,-1,11
 116 506 116 506 102 506 c 2,12,-1
 30 506 l 1,13,-1
 30 487 l 1,14,-1
 125 487 l 1,15,-1
 125 29 l 2,16,17
 125 1 125 1 154 0 c 2,18,-1
 259 0 l 1,0,-1
EndSplineSet
EndChar

StartChar: u
Encoding: 117 117 86
Width: 556
GlyphClass: 3
Flags: W
LayerCount: 2
Fore
SplineSet
269 -12 m 0,0,1
 337 -12 337 -12 375 14.5 c 128,-1,2
 413 41 413 41 427 76 c 1,3,-1
 430 76 l 1,4,-1
 430 0 l 1,5,-1
 451 0 l 1,6,-1
 451 506 l 1,7,-1
 430 506 l 1,8,-1
 430 144 l 2,9,10
 430 78 430 78 382 41 c 0,11,12
 333 7 333 7 271 7 c 0,13,14
 116 7 116 7 116 185 c 2,15,-1
 116 506 l 1,16,-1
 95 506 l 1,17,-1
 95 181 l 2,18,19
 95 -9 95 -9 269 -12 c 0,0,1
EndSplineSet
EndChar

StartChar: v
Encoding: 118 118 87
Width: 452
Flags: W
LayerCount: 2
Fore
SplineSet
239 0 m 1,0,-1
 427 506 l 1,1,-1
 406 506 l 1,2,-1
 228 24 l 1,3,-1
 225 24 l 1,4,-1
 47 506 l 1,5,-1
 25 506 l 1,6,-1
 213 0 l 1,7,-1
 239 0 l 1,0,-1
EndSplineSet
EndChar

StartChar: w
Encoding: 119 119 88
Width: 725
Flags: W
LayerCount: 2
Fore
SplineSet
536 0 m 1,0,-1
 690 506 l 1,1,-1
 669 506 l 1,2,-1
 525 27 l 1,3,-1
 522 27 l 1,4,-1
 374 506 l 1,5,-1
 352 506 l 1,6,-1
 204 27 l 1,7,-1
 201 27 l 1,8,-1
 57 506 l 1,9,-1
 35 506 l 1,10,-1
 189 0 l 1,11,-1
 215 0 l 1,12,-1
 361 472 l 1,13,-1
 364 472 l 1,14,-1
 510 0 l 1,15,-1
 536 0 l 1,0,-1
EndSplineSet
EndChar

StartChar: x
Encoding: 120 120 89
Width: 470
Flags: W
LayerCount: 2
Fore
SplineSet
436 0 m 1,0,-1
 248 255 l 1,1,-1
 431 506 l 1,2,-1
 407 506 l 1,3,-1
 236 271 l 1,4,-1
 234 271 l 1,5,-1
 63 506 l 1,6,-1
 39 506 l 1,7,-1
 222 255 l 1,8,-1
 34 0 l 1,9,-1
 58 0 l 1,10,-1
 234 239 l 1,11,-1
 236 239 l 1,12,-1
 412 0 l 1,13,-1
 436 0 l 1,0,-1
EndSplineSet
EndChar

StartChar: y
Encoding: 121 121 90
Width: 452
Flags: W
LayerCount: 2
Fore
SplineSet
141 -200 m 2,0,1
 165 -200 165 -200 172 -181 c 2,2,-1
 427 506 l 1,3,-1
 406 506 l 1,4,-1
 228 24 l 1,5,-1
 225 24 l 1,6,-1
 47 506 l 1,7,-1
 25 506 l 1,8,-1
 216 -7 l 1,9,-1
 150 -181 l 1,10,-1
 57 -181 l 1,11,-1
 57 -200 l 1,12,-1
 141 -200 l 2,0,1
EndSplineSet
EndChar

StartChar: z
Encoding: 122 122 91
Width: 417
Flags: W
LayerCount: 2
Fore
SplineSet
396 0 m 1,0,-1
 396 19 l 1,1,-1
 49 19 l 1,2,-1
 386 485 l 1,3,-1
 386 506 l 1,4,-1
 37 506 l 1,5,-1
 37 487 l 1,6,-1
 364 487 l 1,7,-1
 27 21 l 1,8,-1
 27 0 l 1,9,-1
 396 0 l 1,0,-1
EndSplineSet
EndChar

StartChar: braceleft
Encoding: 123 123 92
Width: 315
Flags: W
LayerCount: 2
Fore
SplineSet
247 -138 m 1,0,-1
 247 -120 l 1,1,-1
 142 -120 l 1,2,-1
 142 201 l 2,3,4
 142 248 142 248 115 275.5 c 128,-1,5
 88 303 88 303 43 303 c 1,6,-1
 43 319 l 1,7,8
 88 319 88 319 115 346.5 c 128,-1,9
 142 374 142 374 142 421 c 2,10,-1
 142 742 l 1,11,-1
 247 742 l 1,12,-1
 247 760 l 1,13,-1
 147 760 l 2,14,15
 122 760 122 760 122 734 c 2,16,-1
 122 421 l 2,17,18
 122 335 122 335 25 335 c 1,19,-1
 25 287 l 1,20,21
 122 287 122 287 122 201 c 2,22,-1
 122 -112 l 2,23,24
 122 -137 122 -137 147 -138 c 2,25,-1
 247 -138 l 1,0,-1
EndSplineSet
EndChar

StartChar: bar
Encoding: 124 124 93
Width: 236
GlyphClass: 3
Flags: W
LayerCount: 2
Fore
SplineSet
128 -138 m 1,0,-1
 128 760 l 1,1,-1
 108 760 l 1,2,-1
 108 -138 l 1,3,-1
 128 -138 l 1,0,-1
EndSplineSet
EndChar

StartChar: braceright
Encoding: 125 125 94
Width: 315
GlyphClass: 3
Flags: W
LayerCount: 2
Fore
SplineSet
168 -138 m 2,0,1
 193 -138 193 -138 193 -114 c 2,2,-1
 193 201 l 2,3,4
 193 287 193 287 290 287 c 1,5,-1
 290 335 l 1,6,7
 193 335 193 335 193 421 c 2,8,-1
 193 734 l 2,9,10
 193 760 193 760 168 760 c 2,11,-1
 68 760 l 1,12,-1
 68 742 l 1,13,-1
 173 742 l 1,14,-1
 173 421 l 2,15,16
 173 374 173 374 200 346.5 c 128,-1,17
 227 319 227 319 272 319 c 1,18,-1
 272 303 l 1,19,20
 227 303 227 303 200 275.5 c 128,-1,21
 173 248 173 248 173 201 c 2,22,-1
 173 -120 l 1,23,-1
 68 -120 l 1,24,-1
 68 -138 l 1,25,-1
 168 -138 l 2,0,1
EndSplineSet
EndChar

StartChar: asciitilde
Encoding: 126 126 95
Width: 600
GlyphClass: 3
Flags: W
LayerCount: 2
Fore
SplineSet
424 256 m 0,0,1
 490 256 490 256 535 304 c 1,2,-1
 522 318 l 1,3,4
 484 276 484 276 425 276 c 0,5,6
 397 276 397 276 372.5 285 c 128,-1,7
 348 294 348 294 306 313 c 0,8,9
 250 337 250 337 232 343 c 0,10,11
 205 352 205 352 176 352 c 0,12,13
 110 352 110 352 65 304 c 1,14,-1
 78 290 l 1,15,16
 117 332 117 332 175 332 c 0,17,18
 201 332 201 332 227 324 c 0,19,20
 246 317 246 317 272 305 c 0,21,22
 339 274 339 274 366.5 265 c 128,-1,23
 394 256 394 256 424 256 c 0,0,1
EndSplineSet
EndChar

StartChar: exclamdown
Encoding: 161 161 97
Width: 252
Flags: W
LayerCount: 2
Fore
SplineSet
137 -192 m 1,0,-1
 137 91 l 1,1,-1
 132 330 l 1,2,-1
 120 330 l 1,3,-1
 115 91 l 1,4,-1
 115 -192 l 1,5,-1
 137 -192 l 1,0,-1
126 453 m 256,6,7
 153 453 153 453 153 478 c 2,8,-1
 153 486 l 2,9,10
 153 511 153 511 128 511 c 0,11,12
 99 511 99 511 99 486 c 2,13,-1
 99 478 l 2,14,15
 99 453 99 453 126 453 c 256,6,7
EndSplineSet
EndChar

StartChar: cent
Encoding: 162 162 98
Width: 497
Flags: W
LayerCount: 2
Fore
SplineSet
273 -114 m 1,0,-1
 273 -12 l 1,1,2
 390 -12 390 -12 444 84 c 1,3,-1
 428 95 l 1,4,5
 384 11 384 11 273 7 c 1,6,-1
 273 499 l 1,7,8
 325 499 325 499 359 476 c 128,-1,9
 393 453 393 453 417 409 c 1,10,-1
 435 418 l 1,11,12
 390 512 390 512 273 518 c 1,13,-1
 273 620 l 1,14,-1
 253 620 l 1,15,-1
 253 517 l 1,16,17
 160 512 160 512 110 445.5 c 128,-1,18
 60 379 60 379 60 253 c 256,19,20
 60 127 60 127 110 60.5 c 128,-1,21
 160 -6 160 -6 253 -11 c 1,22,-1
 253 -114 l 1,23,-1
 273 -114 l 1,0,-1
253 8 m 1,24,25
 171 14 171 14 127 73 c 128,-1,26
 83 132 83 132 83 229 c 2,27,-1
 83 277 l 2,28,29
 83 374 83 374 127 433 c 128,-1,30
 171 492 171 492 253 498 c 1,31,-1
 253 8 l 1,24,25
EndSplineSet
EndChar

StartChar: sterling
Encoding: 163 163 99
Width: 579
Flags: W
LayerCount: 2
Fore
SplineSet
513 0 m 1,0,-1
 513 20 l 1,1,-1
 107 20 l 1,2,-1
 107 22 l 1,3,4
 201 101 201 101 201 221 c 0,5,6
 201 271 201 271 187 311 c 1,7,-1
 399 311 l 1,8,-1
 399 331 l 1,9,-1
 181 331 l 1,10,11
 166 374 166 374 150 416.5 c 128,-1,12
 134 459 134 459 134 510 c 0,13,14
 134 594 134 594 186 642 c 128,-1,15
 238 690 238 690 320 690 c 0,16,17
 437 690 437 690 500 582 c 1,18,-1
 519 592 l 1,19,20
 447 710 447 710 319 710 c 0,21,22
 229 710 229 710 170.5 657.5 c 128,-1,23
 112 605 112 605 112 510 c 0,24,25
 112 450 112 450 143 373 c 2,26,-1
 158 331 l 1,27,-1
 70 331 l 1,28,-1
 70 311 l 1,29,-1
 165 311 l 1,30,31
 179 270 179 270 179 220 c 0,32,33
 179 97 179 97 83 25 c 1,34,-1
 83 0 l 1,35,-1
 513 0 l 1,0,-1
EndSplineSet
EndChar

StartChar: yen
Encoding: 165 165 100
Width: 580
Flags: W
LayerCount: 2
Fore
SplineSet
301 0 m 1,0,-1
 301 168 l 1,1,-1
 499 168 l 1,2,-1
 499 187 l 1,3,-1
 301 187 l 1,4,-1
 301 325 l 1,5,-1
 499 325 l 1,6,-1
 499 344 l 1,7,-1
 313 344 l 1,8,-1
 532 698 l 1,9,-1
 508 698 l 1,10,-1
 292 348 l 1,11,-1
 289 348 l 1,12,-1
 73 698 l 1,13,-1
 48 698 l 1,14,-1
 267 344 l 1,15,-1
 81 344 l 1,16,-1
 81 325 l 1,17,-1
 279 325 l 1,18,-1
 279 187 l 1,19,-1
 81 187 l 1,20,-1
 81 168 l 1,21,-1
 279 168 l 1,22,-1
 279 0 l 1,23,-1
 301 0 l 1,0,-1
EndSplineSet
EndChar

StartChar: brokenbar
Encoding: 166 166 101
Width: 236
Flags: W
LayerCount: 2
Fore
SplineSet
128 401 m 1,0,-1
 128 760 l 1,1,-1
 108 760 l 1,2,-1
 108 401 l 1,3,-1
 128 401 l 1,0,-1
128 -138 m 1,4,-1
 128 221 l 1,5,-1
 108 221 l 1,6,-1
 108 -138 l 1,7,-1
 128 -138 l 1,4,-1
EndSplineSet
EndChar

StartChar: section
Encoding: 167 167 102
Width: 564
Flags: W
LayerCount: 2
Fore
SplineSet
350 116 m 1,0,1
 327 127 327 127 304 134 c 2,2,-1
 238 155 l 2,3,4
 173 174 173 174 140 206 c 128,-1,5
 107 238 107 238 107 297 c 0,6,7
 107 395 107 395 214 440 c 1,8,9
 237 430 237 430 260 422 c 2,10,-1
 326 401 l 2,11,12
 390 382 390 382 423.5 350 c 128,-1,13
 457 318 457 318 457 259 c 0,14,15
 457 161 457 161 350 116 c 1,0,1
269 -154 m 0,16,17
 341 -154 341 -154 391.5 -119.5 c 128,-1,18
 442 -85 442 -85 442 -13 c 0,19,20
 442 65 442 65 368 107 c 1,21,-1
 368 110 l 1,22,23
 478 153 478 153 478 260 c 0,24,25
 478 328 478 328 439.5 363 c 128,-1,26
 401 398 401 398 334 419 c 2,27,-1
 267 441 l 2,28,29
 217 456 217 456 180 485.5 c 128,-1,30
 143 515 143 515 143 569 c 0,31,32
 143 629 143 629 183 660 c 128,-1,33
 223 691 223 691 294 691 c 0,34,35
 383 691 383 691 436 639 c 1,36,-1
 449 654 l 1,37,38
 394 710 394 710 295 710 c 0,39,40
 223 710 223 710 172.5 675.5 c 128,-1,41
 122 641 122 641 122 569 c 0,42,43
 122 491 122 491 196 449 c 1,44,-1
 196 446 l 1,45,46
 86 403 86 403 86 296 c 0,47,48
 86 229 86 229 125 194 c 0,49,50
 163 158 163 158 230 137 c 2,51,-1
 297 115 l 2,52,53
 347 100 347 100 384 71.5 c 128,-1,54
 421 43 421 43 421 -13 c 0,55,56
 421 -73 421 -73 381 -104 c 128,-1,57
 341 -135 341 -135 270 -135 c 0,58,59
 181 -135 181 -135 128 -83 c 1,60,-1
 115 -98 l 1,61,62
 170 -154 170 -154 269 -154 c 0,16,17
EndSplineSet
EndChar

StartChar: dieresis
Encoding: 168 168 103
Width: 600
Flags: W
LayerCount: 2
Fore
SplineSet
209 642 m 256,0,1
 232 642 232 642 232 663 c 2,2,-1
 232 670 l 2,3,4
 232 691 232 691 209 691 c 256,5,6
 186 691 186 691 186 670 c 2,7,-1
 186 663 l 2,8,9
 186 642 186 642 209 642 c 256,0,1
391 642 m 256,10,11
 414 642 414 642 414 663 c 2,12,-1
 414 670 l 2,13,14
 414 691 414 691 391 691 c 256,15,16
 368 691 368 691 368 670 c 2,17,-1
 368 663 l 2,18,19
 368 642 368 642 391 642 c 256,10,11
EndSplineSet
EndChar

StartChar: copyright
Encoding: 169 169 104
Width: 708
Flags: W
LayerCount: 2
Fore
SplineSet
354 -12 m 0,0,1
 497 -12 497 -12 586 87 c 128,-1,2
 675 186 675 186 675 349 c 0,3,4
 675 513 675 513 586 611.5 c 128,-1,5
 497 710 497 710 354 710 c 0,6,7
 212 710 212 710 122.5 611.5 c 128,-1,8
 33 513 33 513 33 349 c 0,9,10
 33 186 33 186 122.5 87 c 128,-1,11
 212 -12 212 -12 354 -12 c 0,0,1
354 6 m 256,12,13
 287 6 287 6 232 30.5 c 128,-1,14
 177 55 177 55 138 98 c 0,15,16
 55 189 55 189 55 327 c 2,17,-1
 55 371 l 2,18,19
 55 509 55 509 137.5 600.5 c 128,-1,20
 220 692 220 692 354 692 c 0,21,22
 421 692 421 692 476 667.5 c 128,-1,23
 531 643 531 643 571 600 c 0,24,25
 653 509 653 509 653 371 c 2,26,-1
 653 327 l 2,27,28
 653 189 653 189 571 98 c 0,29,30
 531 55 531 55 476 30.5 c 128,-1,31
 421 6 421 6 354 6 c 256,12,13
351 149 m 0,32,33
 399 149 399 149 432 171.5 c 128,-1,34
 465 194 465 194 480 229 c 1,35,-1
 465 236 l 1,36,37
 434 166 434 166 352 166 c 0,38,39
 293 166 293 166 257.5 207 c 128,-1,40
 222 248 222 248 222 336 c 2,41,-1
 222 356 l 2,42,43
 222 441 222 441 257.5 483.5 c 128,-1,44
 293 526 293 526 353 526 c 0,45,46
 433 526 433 526 460 457 c 1,47,-1
 476 462 l 1,48,49
 464 498 464 498 433 520.5 c 128,-1,50
 402 543 402 543 353 543 c 0,51,52
 284 543 284 543 243 493 c 128,-1,53
 202 443 202 443 202 346 c 256,54,55
 202 249 202 249 242.5 199 c 128,-1,56
 283 149 283 149 351 149 c 0,32,33
EndSplineSet
EndChar

StartChar: ordfeminine
Encoding: 170 170 105
Width: 333
GlyphClass: 3
Flags: W
LayerCount: 2
Fore
SplineSet
149 367 m 0,0,1
 95 367 95 367 67.5 391 c 128,-1,2
 40 415 40 415 40 455 c 0,3,4
 40 497 40 497 68 522.5 c 128,-1,5
 96 548 96 548 167 548 c 2,6,-1
 263 548 l 1,7,-1
 263 604 l 2,8,9
 263 693 263 693 166 693 c 2,10,-1
 164 693 l 2,11,12
 93 693 93 693 65 635 c 1,13,-1
 50 643 l 1,14,15
 80 710 80 710 164 710 c 0,16,17
 277 710 277 710 282 607 c 1,18,-1
 282 374 l 1,19,-1
 263 374 l 1,20,-1
 263 422 l 1,21,-1
 261 422 l 1,22,23
 234 367 234 367 149 367 c 0,0,1
149 384 m 0,24,25
 196 384 196 384 229.5 405 c 128,-1,26
 263 426 263 426 263 468 c 2,27,-1
 263 531 l 1,28,-1
 166 531 l 2,29,30
 108 531 108 531 84.5 512.5 c 128,-1,31
 61 494 61 494 61 462 c 2,32,-1
 61 449 l 2,33,34
 61 417 61 417 85 400.5 c 128,-1,35
 109 384 109 384 149 384 c 0,24,25
EndSplineSet
EndChar

StartChar: guillemotleft
Encoding: 171 171 106
Width: 472
Flags: W
LayerCount: 2
Fore
SplineSet
232 106 m 1,0,-1
 241 121 l 1,1,-1
 57 294 l 1,2,-1
 241 467 l 1,3,-1
 232 482 l 1,4,-1
 34 304 l 1,5,-1
 34 284 l 1,6,-1
 232 106 l 1,0,-1
412 106 m 1,7,-1
 421 121 l 1,8,-1
 237 294 l 1,9,-1
 421 467 l 1,10,-1
 412 482 l 1,11,-1
 214 304 l 1,12,-1
 214 284 l 1,13,-1
 412 106 l 1,7,-1
EndSplineSet
EndChar

StartChar: logicalnot
Encoding: 172 172 107
Width: 600
GlyphClass: 3
Flags: W
LayerCount: 2
Fore
SplineSet
522 104 m 1,0,-1
 522 315 l 1,1,-1
 62 315 l 1,2,-1
 62 296 l 1,3,-1
 501 296 l 1,4,-1
 501 104 l 1,5,-1
 522 104 l 1,0,-1
EndSplineSet
EndChar

StartChar: sfthyphen
Encoding: 173 173 108
Width: 395
Flags: W
LayerCount: 2
Fore
SplineSet
312 295 m 1,0,-1
 312 315 l 1,1,-1
 83 315 l 1,2,-1
 83 295 l 1,3,-1
 312 295 l 1,0,-1
EndSplineSet
EndChar

StartChar: registered
Encoding: 174 174 109
Width: 466
Flags: W
LayerCount: 2
Fore
SplineSet
233 298 m 0,0,1
 319 298 319 298 375 355.5 c 128,-1,2
 431 413 431 413 431 504 c 0,3,4
 431 596 431 596 375 653 c 128,-1,5
 319 710 319 710 233 710 c 0,6,7
 148 710 148 710 91.5 653 c 128,-1,8
 35 596 35 596 35 504 c 0,9,10
 35 413 35 413 91.5 355.5 c 128,-1,11
 148 298 148 298 233 298 c 0,0,1
233 314 m 256,12,13
 155 314 155 314 104.5 365 c 128,-1,14
 54 416 54 416 54 494 c 2,15,-1
 54 514 l 2,16,17
 54 592 54 592 104.5 643 c 128,-1,18
 155 694 155 694 233 694 c 256,19,20
 311 694 311 694 361.5 643 c 128,-1,21
 412 592 412 592 412 514 c 2,22,-1
 412 494 l 2,23,24
 412 416 412 416 361.5 365 c 128,-1,25
 311 314 311 314 233 314 c 256,12,13
318 397 m 1,26,-1
 264 489 l 1,27,28
 312 493 312 493 312 547 c 0,29,30
 312 609 312 609 249 609 c 2,31,-1
 168 609 l 1,32,-1
 168 397 l 1,33,-1
 184 397 l 1,34,-1
 184 488 l 1,35,-1
 247 488 l 1,36,-1
 299 397 l 1,37,-1
 318 397 l 1,26,-1
255 503 m 2,38,-1
 184 503 l 1,39,-1
 184 594 l 1,40,-1
 248 594 l 2,41,42
 294 594 294 594 294 558 c 2,43,-1
 294 545 l 2,44,45
 294 503 294 503 255 503 c 2,38,-1
EndSplineSet
EndChar

StartChar: macron
Encoding: 175 175 110
Width: 600
Flags: W
LayerCount: 2
Fore
SplineSet
429 658 m 1,0,-1
 429 676 l 1,1,-1
 171 676 l 1,2,-1
 171 658 l 1,3,-1
 429 658 l 1,0,-1
EndSplineSet
EndChar

StartChar: degree
Encoding: 176 176 111
Width: 466
Flags: W
LayerCount: 2
Fore
SplineSet
233 374 m 0,0,1
 301 374 301 374 348 422 c 128,-1,2
 395 470 395 470 395 542 c 256,3,4
 395 614 395 614 348 662 c 128,-1,5
 301 710 301 710 233 710 c 0,6,7
 163 710 163 710 117 662 c 128,-1,8
 71 614 71 614 71 542 c 256,9,10
 71 470 71 470 117 422 c 128,-1,11
 163 374 163 374 233 374 c 0,0,1
233 393 m 0,12,13
 169 393 169 393 130.5 437 c 128,-1,14
 92 481 92 481 92 542 c 0,15,16
 92 604 92 604 130.5 647.5 c 128,-1,17
 169 691 169 691 233 691 c 0,18,19
 298 691 298 691 336 646.5 c 128,-1,20
 374 602 374 602 374 542 c 256,21,22
 374 482 374 482 336 437.5 c 128,-1,23
 298 393 298 393 233 393 c 0,12,13
EndSplineSet
EndChar

StartChar: plusminus
Encoding: 177 177 112
Width: 600
Flags: W
LayerCount: 2
Fore
SplineSet
311 115 m 1,0,-1
 311 349 l 1,1,-1
 539 349 l 1,2,-1
 539 368 l 1,3,-1
 311 368 l 1,4,-1
 311 602 l 1,5,-1
 290 602 l 1,6,-1
 290 368 l 1,7,-1
 62 368 l 1,8,-1
 62 349 l 1,9,-1
 290 349 l 1,10,-1
 290 115 l 1,11,-1
 311 115 l 1,0,-1
538 0 m 1,12,-1
 538 19 l 1,13,-1
 62 19 l 1,14,-1
 62 0 l 1,15,-1
 538 0 l 1,12,-1
EndSplineSet
EndChar

StartChar: twosuperior
Encoding: 178 178 113
Width: 345
Flags: W
LayerCount: 2
Fore
SplineSet
300 329 m 1,0,-1
 300 346 l 1,1,-1
 64 346 l 1,2,-1
 194 452 l 2,3,4
 287 523 287 523 287 599 c 0,5,6
 287 643 287 643 258 673.5 c 128,-1,7
 229 704 229 704 172 704 c 0,8,9
 117 704 117 704 85 678 c 128,-1,10
 53 652 53 652 41 614 c 1,11,-1
 58 609 l 1,12,13
 85 687 85 687 172 687 c 0,14,15
 220 687 220 687 243.5 663 c 128,-1,16
 267 639 267 639 267 602 c 2,17,-1
 267 592 l 2,18,19
 267 534 267 534 183 464 c 2,20,-1
 44 349 l 1,21,-1
 44 329 l 1,22,-1
 300 329 l 1,0,-1
EndSplineSet
EndChar

StartChar: threesuperior
Encoding: 179 179 114
Width: 347
Flags: W
LayerCount: 2
Fore
SplineSet
162 323 m 0,0,1
 282 323 282 323 287 431 c 0,2,3
 287 508 287 508 210 520 c 1,4,-1
 210 523 l 1,5,6
 280 540 280 540 280 609 c 0,7,8
 280 653 280 653 251 678.5 c 128,-1,9
 222 704 222 704 168 704 c 0,10,11
 88 704 88 704 53 651 c 1,12,-1
 67 641 l 1,13,14
 84 663 84 663 106.5 675 c 128,-1,15
 129 687 129 687 168 687 c 0,16,17
 213 687 213 687 236.5 667 c 128,-1,18
 260 647 260 647 260 614 c 2,19,-1
 260 608 l 2,20,21
 260 571 260 571 237.5 550 c 128,-1,22
 215 529 215 529 159 529 c 2,23,-1
 113 529 l 1,24,-1
 113 512 l 1,25,-1
 166 512 l 2,26,27
 222 512 222 512 244.5 491.5 c 128,-1,28
 267 471 267 471 267 433 c 2,29,-1
 267 427 l 2,30,31
 267 343 267 343 162 340 c 0,32,33
 120 340 120 340 96.5 353.5 c 128,-1,34
 73 367 73 367 56 390 c 1,35,-1
 42 379 l 1,36,37
 82 323 82 323 162 323 c 0,0,1
EndSplineSet
EndChar

StartChar: acute
Encoding: 180 180 115
Width: 600
Flags: W
LayerCount: 2
Fore
SplineSet
282 587 m 1,0,-1
 397 739 l 1,1,-1
 378 751 l 1,2,-1
 267 597 l 1,3,-1
 282 587 l 1,0,-1
EndSplineSet
EndChar

StartChar: mu
Encoding: 181 181 116
Width: 566
Flags: W
LayerCount: 2
Fore
SplineSet
126 -200 m 1,0,-1
 126 -44 l 1,1,-1
 121 79 l 1,2,-1
 124 79 l 1,3,4
 164 -12 164 -12 279 -12 c 0,5,6
 347 -12 347 -12 385 14.5 c 128,-1,7
 423 41 423 41 437 76 c 1,8,-1
 440 76 l 1,9,-1
 440 0 l 1,10,-1
 461 0 l 1,11,-1
 461 506 l 1,12,-1
 440 506 l 1,13,-1
 440 144 l 2,14,15
 440 78 440 78 392 41 c 0,16,17
 343 7 343 7 281 7 c 0,18,19
 126 7 126 7 126 185 c 2,20,-1
 126 506 l 1,21,-1
 105 506 l 1,22,-1
 105 -200 l 1,23,-1
 126 -200 l 1,0,-1
EndSplineSet
EndChar

StartChar: paragraph
Encoding: 182 182 117
Width: 591
GlyphClass: 3
Flags: W
LayerCount: 2
Fore
SplineSet
424 -149 m 1,0,-1
 424 680 l 1,1,-1
 493 680 l 1,2,-1
 493 698 l 1,3,-1
 250 698 l 2,4,5
 168 698 168 698 110 650 c 0,6,7
 51 598 51 598 51 514 c 0,8,9
 51 429 51 429 109.5 379.5 c 128,-1,10
 168 330 168 330 250 330 c 1,11,-1
 250 -149 l 1,12,-1
 271 -149 l 1,13,-1
 271 680 l 1,14,-1
 403 680 l 1,15,-1
 403 -149 l 1,16,-1
 424 -149 l 1,0,-1
EndSplineSet
EndChar

StartChar: periodcentered
Encoding: 183 183 118
Width: 298
Flags: W
LayerCount: 2
Fore
SplineSet
149 277 m 256,0,1
 176 277 176 277 176 302 c 2,2,-1
 176 310 l 2,3,4
 176 335 176 335 151 335 c 0,5,6
 122 335 122 335 122 310 c 2,7,-1
 122 302 l 2,8,9
 122 277 122 277 149 277 c 256,0,1
EndSplineSet
EndChar

StartChar: cedilla
Encoding: 184 184 119
Width: 600
Flags: W
LayerCount: 2
Fore
SplineSet
309 -202 m 0,0,1
 347 -202 347 -202 369 -181 c 128,-1,2
 391 -160 391 -160 391 -131 c 0,3,4
 391 -77 391 -77 324 -72 c 0,5,6
 304 -72 304 -72 294 -75 c 1,7,-1
 292 -73 l 1,8,-1
 311 3 l 1,9,-1
 293 3 l 1,10,-1
 272 -84 l 1,11,-1
 309 -86 l 2,12,13
 370 -91 370 -91 370 -132 c 0,14,15
 370 -158 370 -158 353 -171 c 128,-1,16
 336 -184 336 -184 309 -184 c 0,17,18
 263 -184 263 -184 241 -157 c 1,19,-1
 228 -170 l 1,20,21
 237 -183 237 -183 258.5 -192.5 c 128,-1,22
 280 -202 280 -202 309 -202 c 0,0,1
EndSplineSet
EndChar

StartChar: onesuperior
Encoding: 185 185 120
Width: 343
Flags: W
LayerCount: 2
Fore
SplineSet
208 329 m 1,0,-1
 189 329 l 1,1,-1
 189 681 l 1,2,-1
 109 640 l 1,3,-1
 109 659 l 1,4,-1
 185 698 l 1,5,-1
 208 698 l 1,6,-1
 208 329 l 1,0,-1
EndSplineSet
EndChar

StartChar: ordmasculine
Encoding: 186 186 121
Width: 366
Flags: W
LayerCount: 2
Fore
SplineSet
183 367 m 0,0,1
 248 367 248 367 284 413 c 128,-1,2
 320 459 320 459 320 540 c 0,3,4
 320 618 320 618 284 664 c 128,-1,5
 248 710 248 710 183 710 c 256,6,7
 118 710 118 710 82 664 c 128,-1,8
 46 618 46 618 46 540 c 0,9,10
 46 459 46 459 81.5 413 c 128,-1,11
 117 367 117 367 183 367 c 0,0,1
183 384 m 0,12,13
 128 384 128 384 97.5 425.5 c 128,-1,14
 67 467 67 467 67 522 c 2,15,-1
 67 556 l 2,16,17
 67 610 67 610 97.5 651.5 c 128,-1,18
 128 693 128 693 183 693 c 0,19,20
 239 693 239 693 270 652 c 0,21,22
 299 610 299 610 299 556 c 2,23,-1
 299 522 l 2,24,25
 299 467 299 467 270 425 c 0,26,27
 239 384 239 384 183 384 c 0,12,13
EndSplineSet
EndChar

StartChar: guillemotright
Encoding: 187 187 122
Width: 472
Flags: W
LayerCount: 2
Fore
SplineSet
60 106 m 1,0,-1
 258 284 l 1,1,-1
 258 304 l 1,2,-1
 60 482 l 1,3,-1
 51 467 l 1,4,-1
 235 294 l 1,5,-1
 51 121 l 1,6,-1
 60 106 l 1,0,-1
240 106 m 1,7,-1
 438 284 l 1,8,-1
 438 304 l 1,9,-1
 240 482 l 1,10,-1
 231 467 l 1,11,-1
 415 294 l 1,12,-1
 231 121 l 1,13,-1
 240 106 l 1,7,-1
EndSplineSet
EndChar

StartChar: onequarter
Encoding: 188 188 123
Width: 801
Flags: W
LayerCount: 2
Fore
SplineSet
707 0 m 1,0,-1
 688 0 l 1,1,-1
 688 89 l 1,2,-1
 475 89 l 1,3,-1
 475 108 l 1,4,-1
 679 369 l 1,5,-1
 707 369 l 1,6,-1
 707 106 l 1,7,-1
 773 106 l 1,8,-1
 773 89 l 1,9,-1
 707 89 l 1,10,-1
 707 0 l 1,0,-1
688 106 m 1,11,-1
 688 350 l 1,12,-1
 685 350 l 1,13,-1
 495 106 l 1,14,-1
 688 106 l 1,11,-1
200 0 m 1,15,-1
 178 0 l 1,16,-1
 625 698 l 1,17,-1
 647 698 l 1,18,-1
 200 0 l 1,15,-1
208 329 m 1,19,-1
 189 329 l 1,20,-1
 189 681 l 1,21,-1
 109 640 l 1,22,-1
 109 659 l 1,23,-1
 185 698 l 1,24,-1
 208 698 l 1,25,-1
 208 329 l 1,19,-1
EndSplineSet
EndChar

StartChar: onehalf
Encoding: 189 189 124
Width: 835
Flags: W
LayerCount: 2
Fore
SplineSet
790 0 m 1,0,-1
 534 0 l 1,1,-1
 534 20 l 1,2,-1
 673 135 l 2,3,4
 757 205 757 205 757 263 c 2,5,-1
 757 273 l 2,6,7
 757 310 757 310 733 334 c 128,-1,8
 709 358 709 358 662 358 c 0,9,10
 575 358 575 358 548 280 c 1,11,-1
 531 285 l 1,12,13
 543 323 543 323 575 349 c 128,-1,14
 607 375 607 375 662 375 c 0,15,16
 719 375 719 375 748 344.5 c 128,-1,17
 777 314 777 314 777 270 c 0,18,19
 777 195 777 195 684 123 c 2,20,-1
 554 17 l 1,21,-1
 790 17 l 1,22,-1
 790 0 l 1,0,-1
200 0 m 1,23,-1
 178 0 l 1,24,-1
 625 698 l 1,25,-1
 647 698 l 1,26,-1
 200 0 l 1,23,-1
208 329 m 1,27,-1
 189 329 l 1,28,-1
 189 681 l 1,29,-1
 109 640 l 1,30,-1
 109 659 l 1,31,-1
 185 698 l 1,32,-1
 208 698 l 1,33,-1
 208 329 l 1,27,-1
EndSplineSet
EndChar

StartChar: threequarters
Encoding: 190 190 125
Width: 815
Flags: W
LayerCount: 2
Fore
SplineSet
162 323 m 0,0,1
 282 323 282 323 287 431 c 0,2,3
 287 508 287 508 210 520 c 1,4,-1
 210 523 l 1,5,6
 280 540 280 540 280 609 c 0,7,8
 280 653 280 653 251 678.5 c 128,-1,9
 222 704 222 704 168 704 c 0,10,11
 88 704 88 704 53 651 c 1,12,-1
 67 641 l 1,13,14
 84 663 84 663 106.5 675 c 128,-1,15
 129 687 129 687 168 687 c 0,16,17
 213 687 213 687 236.5 667 c 128,-1,18
 260 647 260 647 260 614 c 2,19,-1
 260 608 l 2,20,21
 260 571 260 571 237.5 550 c 128,-1,22
 215 529 215 529 159 529 c 2,23,-1
 113 529 l 1,24,-1
 113 512 l 1,25,-1
 166 512 l 2,26,27
 222 512 222 512 244.5 491.5 c 128,-1,28
 267 471 267 471 267 433 c 2,29,-1
 267 427 l 2,30,31
 267 343 267 343 162 340 c 0,32,33
 120 340 120 340 96.5 353.5 c 128,-1,34
 73 367 73 367 56 390 c 1,35,-1
 42 379 l 1,36,37
 82 323 82 323 162 323 c 0,0,1
214 0 m 1,38,-1
 661 698 l 1,39,-1
 639 698 l 1,40,-1
 192 0 l 1,41,-1
 214 0 l 1,38,-1
721 0 m 1,42,-1
 721 89 l 1,43,-1
 787 89 l 1,44,-1
 787 106 l 1,45,-1
 721 106 l 1,46,-1
 721 369 l 1,47,-1
 693 369 l 1,48,-1
 489 108 l 1,49,-1
 489 89 l 1,50,-1
 702 89 l 1,51,-1
 702 0 l 1,52,-1
 721 0 l 1,42,-1
702 106 m 1,53,-1
 509 106 l 1,54,-1
 699 350 l 1,55,-1
 702 350 l 1,56,-1
 702 106 l 1,53,-1
EndSplineSet
EndChar

StartChar: questiondown
Encoding: 191 191 126
Width: 456
Flags: W
LayerCount: 2
Fore
SplineSet
220 -204 m 0,0,1
 377 -204 377 -204 419 -53 c 1,2,-1
 399 -48 l 1,3,4
 381 -114 381 -114 338 -149.5 c 128,-1,5
 295 -185 295 -185 220 -185 c 0,6,7
 143 -185 143 -185 100.5 -143.5 c 128,-1,8
 58 -102 58 -102 58 -36 c 2,9,-1
 58 -10 l 2,10,11
 58 63 58 63 110 108.5 c 128,-1,12
 162 154 162 154 258 157 c 1,13,-1
 258 330 l 1,14,-1
 236 330 l 1,15,-1
 236 176 l 1,16,17
 139 167 139 167 87 115 c 128,-1,18
 35 63 35 63 35 -25 c 0,19,20
 35 -106 35 -106 84 -155 c 128,-1,21
 133 -204 133 -204 220 -204 c 0,0,1
247 453 m 256,22,23
 274 453 274 453 274 478 c 2,24,-1
 274 486 l 2,25,26
 274 511 274 511 249 511 c 0,27,28
 220 511 220 511 220 486 c 2,29,-1
 220 478 l 2,30,31
 220 453 220 453 247 453 c 256,22,23
EndSplineSet
EndChar

StartChar: Agrave
Encoding: 192 192 127
Width: 600
Flags: W
LayerCount: 2
Fore
SplineSet
568 0 m 1,0,-1
 315 698 l 1,1,-1
 285 698 l 1,2,-1
 32 0 l 1,3,-1
 55 0 l 1,4,-1
 140 234 l 1,5,-1
 460 234 l 1,6,-1
 545 0 l 1,7,-1
 568 0 l 1,0,-1
453 253 m 1,8,-1
 147 253 l 1,9,-1
 298 675 l 1,10,-1
 301 675 l 1,11,-1
 453 253 l 1,8,-1
317 767 m 1,12,-1
 332 777 l 1,13,-1
 221 931 l 1,14,-1
 202 919 l 1,15,-1
 317 767 l 1,12,-1
EndSplineSet
EndChar

StartChar: Aacute
Encoding: 193 193 128
Width: 600
Flags: W
LayerCount: 2
Fore
SplineSet
568 0 m 1,0,-1
 315 698 l 1,1,-1
 285 698 l 1,2,-1
 32 0 l 1,3,-1
 55 0 l 1,4,-1
 140 234 l 1,5,-1
 460 234 l 1,6,-1
 545 0 l 1,7,-1
 568 0 l 1,0,-1
453 253 m 1,8,-1
 147 253 l 1,9,-1
 298 675 l 1,10,-1
 301 675 l 1,11,-1
 453 253 l 1,8,-1
282 767 m 1,12,-1
 397 919 l 1,13,-1
 378 931 l 1,14,-1
 267 777 l 1,15,-1
 282 767 l 1,12,-1
EndSplineSet
EndChar

StartChar: Acircumflex
Encoding: 194 194 129
Width: 600
Flags: W
LayerCount: 2
Fore
SplineSet
568 0 m 1,0,-1
 315 698 l 1,1,-1
 285 698 l 1,2,-1
 32 0 l 1,3,-1
 55 0 l 1,4,-1
 140 234 l 1,5,-1
 460 234 l 1,6,-1
 545 0 l 1,7,-1
 568 0 l 1,0,-1
453 253 m 1,8,-1
 147 253 l 1,9,-1
 298 675 l 1,10,-1
 301 675 l 1,11,-1
 453 253 l 1,8,-1
426 779 m 1,12,-1
 440 790 l 1,13,-1
 312 923 l 1,14,-1
 288 923 l 1,15,-1
 160 790 l 1,16,-1
 174 779 l 1,17,-1
 300 906 l 1,18,-1
 426 779 l 1,12,-1
EndSplineSet
EndChar

StartChar: Atilde
Encoding: 195 195 130
Width: 600
GlyphClass: 3
Flags: W
LayerCount: 2
Fore
SplineSet
568 0 m 1,0,-1
 315 698 l 1,1,-1
 285 698 l 1,2,-1
 32 0 l 1,3,-1
 55 0 l 1,4,-1
 140 234 l 1,5,-1
 460 234 l 1,6,-1
 545 0 l 1,7,-1
 568 0 l 1,0,-1
453 253 m 1,8,-1
 147 253 l 1,9,-1
 298 675 l 1,10,-1
 301 675 l 1,11,-1
 453 253 l 1,8,-1
371 808 m 0,12,13
 415 808 415 808 449 847 c 1,14,-1
 437 859 l 1,15,16
 408 826 408 826 372 826 c 0,17,18
 344 826 344 826 306 852 c 0,19,20
 280 869 280 869 263 875.5 c 128,-1,21
 246 882 246 882 229 882 c 0,22,23
 186 882 186 882 151 843 c 1,24,-1
 163 831 l 1,25,26
 194 864 194 864 228 864 c 0,27,28
 257 864 257 864 294 838 c 0,29,30
 320 821 320 821 337 814.5 c 128,-1,31
 354 808 354 808 371 808 c 0,12,13
EndSplineSet
EndChar

StartChar: Adieresis
Encoding: 196 196 131
Width: 600
GlyphClass: 3
Flags: W
LayerCount: 2
Fore
SplineSet
568 0 m 1,0,-1
 315 698 l 1,1,-1
 285 698 l 1,2,-1
 32 0 l 1,3,-1
 55 0 l 1,4,-1
 140 234 l 1,5,-1
 460 234 l 1,6,-1
 545 0 l 1,7,-1
 568 0 l 1,0,-1
453 253 m 1,8,-1
 147 253 l 1,9,-1
 298 675 l 1,10,-1
 301 675 l 1,11,-1
 453 253 l 1,8,-1
209 819 m 256,12,13
 232 819 232 819 232 840 c 2,14,-1
 232 847 l 2,15,16
 232 868 232 868 209 868 c 256,17,18
 186 868 186 868 186 847 c 2,19,-1
 186 840 l 2,20,21
 186 819 186 819 209 819 c 256,12,13
391 819 m 256,22,23
 414 819 414 819 414 840 c 2,24,-1
 414 847 l 2,25,26
 414 868 414 868 391 868 c 256,27,28
 368 868 368 868 368 847 c 2,29,-1
 368 840 l 2,30,31
 368 819 368 819 391 819 c 256,22,23
EndSplineSet
EndChar

StartChar: Aring
Encoding: 197 197 132
Width: 600
GlyphClass: 3
Flags: W
LayerCount: 2
Fore
SplineSet
568 0 m 1,0,-1
 315 698 l 1,1,-1
 285 698 l 1,2,-1
 32 0 l 1,3,-1
 55 0 l 1,4,-1
 140 234 l 1,5,-1
 460 234 l 1,6,-1
 545 0 l 1,7,-1
 568 0 l 1,0,-1
453 253 m 1,8,-1
 147 253 l 1,9,-1
 298 675 l 1,10,-1
 301 675 l 1,11,-1
 453 253 l 1,8,-1
300 769 m 256,12,13
 341 769 341 769 365.5 794 c 128,-1,14
 390 819 390 819 390 860 c 256,15,16
 390 901 390 901 365.5 926 c 128,-1,17
 341 951 341 951 300 951 c 256,18,19
 259 951 259 951 234.5 926 c 128,-1,20
 210 901 210 901 210 860 c 256,21,22
 210 819 210 819 234.5 794 c 128,-1,23
 259 769 259 769 300 769 c 256,12,13
300 787 m 0,24,25
 230 787 230 787 230 865 c 0,26,27
 230 896 230 896 249 914.5 c 128,-1,28
 268 933 268 933 300 933 c 0,29,30
 370 933 370 933 370 855 c 0,31,32
 370 824 370 824 351 805.5 c 128,-1,33
 332 787 332 787 300 787 c 0,24,25
EndSplineSet
EndChar

StartChar: AE
Encoding: 198 198 133
Width: 861
GlyphClass: 3
Flags: W
LayerCount: 2
Fore
SplineSet
789 0 m 1,0,-1
 789 20 l 1,1,-1
 430 20 l 1,2,-1
 430 344 l 1,3,-1
 777 344 l 1,4,-1
 777 364 l 1,5,-1
 430 364 l 1,6,-1
 430 678 l 1,7,-1
 789 678 l 1,8,-1
 789 698 l 1,9,-1
 385 698 l 1,10,-1
 2 0 l 1,11,-1
 26 0 l 1,12,-1
 155 234 l 1,13,-1
 408 234 l 1,14,-1
 408 0 l 1,15,-1
 789 0 l 1,0,-1
408 253 m 1,16,-1
 165 253 l 1,17,-1
 397 678 l 1,18,-1
 408 678 l 1,19,-1
 408 253 l 1,16,-1
EndSplineSet
EndChar

StartChar: Ccedilla
Encoding: 199 199 134
Width: 610
GlyphClass: 3
Flags: W
LayerCount: 2
Fore
SplineSet
342 -202 m 0,0,1
 380 -202 380 -202 402 -181 c 128,-1,2
 424 -160 424 -160 424 -131 c 0,3,4
 424 -77 424 -77 357 -72 c 0,5,6
 337 -72 337 -72 327 -75 c 1,7,-1
 325 -73 l 1,8,-1
 340 -12 l 1,9,10
 416 -8 416 -8 469.5 32.5 c 128,-1,11
 523 73 523 73 550 140 c 1,12,-1
 531 148 l 1,13,14
 505 82 505 82 454.5 45 c 128,-1,15
 404 8 404 8 329 8 c 0,16,17
 219 8 219 8 156.5 87 c 128,-1,18
 94 166 94 166 94 328 c 2,19,-1
 94 370 l 2,20,21
 94 532 94 532 156.5 611 c 128,-1,22
 219 690 219 690 329 690 c 0,23,24
 467 690 467 690 526 558 c 1,25,-1
 545 567 l 1,26,27
 516 632 516 632 461 671 c 128,-1,28
 406 710 406 710 329 710 c 0,29,30
 204 710 204 710 137 620 c 128,-1,31
 70 530 70 530 70 349 c 0,32,33
 70 170 70 170 135.5 80 c 128,-1,34
 201 -10 201 -10 322 -12 c 1,35,-1
 305 -84 l 1,36,-1
 342 -86 l 2,37,38
 403 -91 403 -91 403 -132 c 0,39,40
 403 -158 403 -158 386 -171 c 128,-1,41
 369 -184 369 -184 342 -184 c 0,42,43
 296 -184 296 -184 274 -157 c 1,44,-1
 261 -170 l 1,45,46
 270 -183 270 -183 291.5 -192.5 c 128,-1,47
 313 -202 313 -202 342 -202 c 0,0,1
EndSplineSet
EndChar

StartChar: Egrave
Encoding: 200 200 135
Width: 561
GlyphClass: 3
Flags: W
LayerCount: 2
Fore
SplineSet
489 0 m 1,0,-1
 489 20 l 1,1,-1
 130 20 l 1,2,-1
 130 344 l 1,3,-1
 477 344 l 1,4,-1
 477 364 l 1,5,-1
 130 364 l 1,6,-1
 130 678 l 1,7,-1
 489 678 l 1,8,-1
 489 698 l 1,9,-1
 108 698 l 1,10,-1
 108 0 l 1,11,-1
 489 0 l 1,0,-1
317 767 m 1,12,-1
 332 777 l 1,13,-1
 221 931 l 1,14,-1
 202 919 l 1,15,-1
 317 767 l 1,12,-1
EndSplineSet
EndChar

StartChar: Eacute
Encoding: 201 201 136
Width: 561
Flags: W
LayerCount: 2
Fore
SplineSet
489 0 m 1,0,-1
 489 20 l 1,1,-1
 130 20 l 1,2,-1
 130 344 l 1,3,-1
 477 344 l 1,4,-1
 477 364 l 1,5,-1
 130 364 l 1,6,-1
 130 678 l 1,7,-1
 489 678 l 1,8,-1
 489 698 l 1,9,-1
 108 698 l 1,10,-1
 108 0 l 1,11,-1
 489 0 l 1,0,-1
282 767 m 1,12,-1
 397 919 l 1,13,-1
 378 931 l 1,14,-1
 267 777 l 1,15,-1
 282 767 l 1,12,-1
EndSplineSet
EndChar

StartChar: Ecircumflex
Encoding: 202 202 137
Width: 561
Flags: W
LayerCount: 2
Fore
SplineSet
489 0 m 1,0,-1
 489 20 l 1,1,-1
 130 20 l 1,2,-1
 130 344 l 1,3,-1
 477 344 l 1,4,-1
 477 364 l 1,5,-1
 130 364 l 1,6,-1
 130 678 l 1,7,-1
 489 678 l 1,8,-1
 489 698 l 1,9,-1
 108 698 l 1,10,-1
 108 0 l 1,11,-1
 489 0 l 1,0,-1
426 779 m 1,12,-1
 440 790 l 1,13,-1
 312 923 l 1,14,-1
 288 923 l 1,15,-1
 160 790 l 1,16,-1
 174 779 l 1,17,-1
 300 906 l 1,18,-1
 426 779 l 1,12,-1
EndSplineSet
EndChar

StartChar: Edieresis
Encoding: 203 203 138
Width: 561
Flags: W
LayerCount: 2
Fore
SplineSet
489 0 m 1,0,-1
 489 20 l 1,1,-1
 130 20 l 1,2,-1
 130 344 l 1,3,-1
 477 344 l 1,4,-1
 477 364 l 1,5,-1
 130 364 l 1,6,-1
 130 678 l 1,7,-1
 489 678 l 1,8,-1
 489 698 l 1,9,-1
 108 698 l 1,10,-1
 108 0 l 1,11,-1
 489 0 l 1,0,-1
209 819 m 256,12,13
 232 819 232 819 232 840 c 2,14,-1
 232 847 l 2,15,16
 232 868 232 868 209 868 c 256,17,18
 186 868 186 868 186 847 c 2,19,-1
 186 840 l 2,20,21
 186 819 186 819 209 819 c 256,12,13
391 819 m 256,22,23
 414 819 414 819 414 840 c 2,24,-1
 414 847 l 2,25,26
 414 868 414 868 391 868 c 256,27,28
 368 868 368 868 368 847 c 2,29,-1
 368 840 l 2,30,31
 368 819 368 819 391 819 c 256,22,23
EndSplineSet
EndChar

StartChar: Igrave
Encoding: 204 204 139
Width: 238
Flags: W
LayerCount: 2
Fore
SplineSet
136 767 m 1,0,-1
 151 777 l 1,1,-1
 40 931 l 1,2,-1
 21 919 l 1,3,-1
 136 767 l 1,0,-1
130 0 m 1,4,-1
 130 698 l 1,5,-1
 108 698 l 1,6,-1
 108 0 l 1,7,-1
 130 0 l 1,4,-1
EndSplineSet
EndChar

StartChar: Iacute
Encoding: 205 205 140
Width: 238
Flags: W
LayerCount: 2
Fore
SplineSet
101 767 m 1,0,-1
 216 919 l 1,1,-1
 197 931 l 1,2,-1
 86 777 l 1,3,-1
 101 767 l 1,0,-1
130 0 m 1,4,-1
 130 698 l 1,5,-1
 108 698 l 1,6,-1
 108 0 l 1,7,-1
 130 0 l 1,4,-1
EndSplineSet
EndChar

StartChar: Icircumflex
Encoding: 206 206 141
Width: 238
Flags: W
LayerCount: 2
Fore
SplineSet
245 779 m 1,0,-1
 259 790 l 1,1,-1
 131 923 l 1,2,-1
 107 923 l 1,3,-1
 -21 790 l 1,4,-1
 -7 779 l 1,5,-1
 119 906 l 1,6,-1
 245 779 l 1,0,-1
130 0 m 1,7,-1
 130 698 l 1,8,-1
 108 698 l 1,9,-1
 108 0 l 1,10,-1
 130 0 l 1,7,-1
EndSplineSet
EndChar

StartChar: Idieresis
Encoding: 207 207 142
Width: 238
Flags: W
LayerCount: 2
Fore
SplineSet
28 819 m 256,0,1
 51 819 51 819 51 840 c 2,2,-1
 51 847 l 2,3,4
 51 868 51 868 28 868 c 256,5,6
 5 868 5 868 5 847 c 2,7,-1
 5 840 l 2,8,9
 5 819 5 819 28 819 c 256,0,1
210 819 m 256,10,11
 233 819 233 819 233 840 c 2,12,-1
 233 847 l 2,13,14
 233 868 233 868 210 868 c 256,15,16
 187 868 187 868 187 847 c 2,17,-1
 187 840 l 2,18,19
 187 819 187 819 210 819 c 256,10,11
130 0 m 1,20,-1
 130 698 l 1,21,-1
 108 698 l 1,22,-1
 108 0 l 1,23,-1
 130 0 l 1,20,-1
EndSplineSet
EndChar

StartChar: Eth
Encoding: 208 208 143
Width: 661
Flags: W
LayerCount: 2
Fore
SplineSet
315 0 m 2,0,1
 455 0 455 0 523 87.5 c 128,-1,2
 591 175 591 175 591 349 c 256,3,4
 591 523 591 523 523 610.5 c 128,-1,5
 455 698 455 698 315 698 c 2,6,-1
 111 698 l 1,7,-1
 111 378 l 1,8,-1
 28 378 l 1,9,-1
 28 359 l 1,10,-1
 111 359 l 1,11,-1
 111 0 l 1,12,-1
 315 0 l 2,0,1
316 20 m 2,13,-1
 133 20 l 1,14,-1
 133 359 l 1,15,-1
 305 359 l 1,16,-1
 305 378 l 1,17,-1
 133 378 l 1,18,-1
 133 678 l 1,19,-1
 316 678 l 2,20,21
 443 678 443 678 507 596 c 0,22,23
 567 516 567 516 567 379 c 2,24,-1
 567 319 l 2,25,26
 567 183 567 183 507 102 c 0,27,28
 443 20 443 20 316 20 c 2,13,-1
EndSplineSet
EndChar

StartChar: Ntilde
Encoding: 209 209 144
Width: 692
Flags: W
LayerCount: 2
Fore
SplineSet
584 0 m 1,0,-1
 584 698 l 1,1,-1
 563 698 l 1,2,-1
 563 27 l 1,3,-1
 560 27 l 1,4,-1
 140 698 l 1,5,-1
 108 698 l 1,6,-1
 108 0 l 1,7,-1
 129 0 l 1,8,-1
 129 671 l 1,9,-1
 132 671 l 1,10,-1
 552 0 l 1,11,-1
 584 0 l 1,0,-1
417 808 m 0,12,13
 461 808 461 808 495 847 c 1,14,-1
 483 859 l 1,15,16
 454 826 454 826 418 826 c 0,17,18
 390 826 390 826 352 852 c 0,19,20
 326 869 326 869 309 875.5 c 128,-1,21
 292 882 292 882 275 882 c 0,22,23
 232 882 232 882 197 843 c 1,24,-1
 209 831 l 1,25,26
 240 864 240 864 274 864 c 0,27,28
 303 864 303 864 340 838 c 0,29,30
 366 821 366 821 383 814.5 c 128,-1,31
 400 808 400 808 417 808 c 0,12,13
EndSplineSet
EndChar

StartChar: Ograve
Encoding: 210 210 145
Width: 680
Flags: W
LayerCount: 2
Fore
SplineSet
340 -12 m 256,0,1
 471 -12 471 -12 540.5 78 c 128,-1,2
 610 168 610 168 610 349 c 256,3,4
 610 530 610 530 540.5 620 c 128,-1,5
 471 710 471 710 340 710 c 256,6,7
 209 710 209 710 139.5 620 c 128,-1,8
 70 530 70 530 70 349 c 256,9,10
 70 168 70 168 139.5 78 c 128,-1,11
 209 -12 209 -12 340 -12 c 256,0,1
340 8 m 256,12,13
 225 8 225 8 159.5 88.5 c 128,-1,14
 94 169 94 169 94 328 c 2,15,-1
 94 370 l 2,16,17
 94 529 94 529 159.5 609.5 c 128,-1,18
 225 690 225 690 340 690 c 256,19,20
 455 690 455 690 520.5 609.5 c 128,-1,21
 586 529 586 529 586 370 c 2,22,-1
 586 328 l 2,23,24
 586 169 586 169 520.5 88.5 c 128,-1,25
 455 8 455 8 340 8 c 256,12,13
357 767 m 1,26,-1
 372 777 l 1,27,-1
 261 931 l 1,28,-1
 242 919 l 1,29,-1
 357 767 l 1,26,-1
EndSplineSet
EndChar

StartChar: Oacute
Encoding: 211 211 146
Width: 680
Flags: W
LayerCount: 2
Fore
SplineSet
340 -12 m 256,0,1
 471 -12 471 -12 540.5 78 c 128,-1,2
 610 168 610 168 610 349 c 256,3,4
 610 530 610 530 540.5 620 c 128,-1,5
 471 710 471 710 340 710 c 256,6,7
 209 710 209 710 139.5 620 c 128,-1,8
 70 530 70 530 70 349 c 256,9,10
 70 168 70 168 139.5 78 c 128,-1,11
 209 -12 209 -12 340 -12 c 256,0,1
340 8 m 256,12,13
 225 8 225 8 159.5 88.5 c 128,-1,14
 94 169 94 169 94 328 c 2,15,-1
 94 370 l 2,16,17
 94 529 94 529 159.5 609.5 c 128,-1,18
 225 690 225 690 340 690 c 256,19,20
 455 690 455 690 520.5 609.5 c 128,-1,21
 586 529 586 529 586 370 c 2,22,-1
 586 328 l 2,23,24
 586 169 586 169 520.5 88.5 c 128,-1,25
 455 8 455 8 340 8 c 256,12,13
322 767 m 1,26,-1
 437 919 l 1,27,-1
 418 931 l 1,28,-1
 307 777 l 1,29,-1
 322 767 l 1,26,-1
EndSplineSet
EndChar

StartChar: Ocircumflex
Encoding: 212 212 147
Width: 680
Flags: W
LayerCount: 2
Fore
SplineSet
340 -12 m 256,0,1
 471 -12 471 -12 540.5 78 c 128,-1,2
 610 168 610 168 610 349 c 256,3,4
 610 530 610 530 540.5 620 c 128,-1,5
 471 710 471 710 340 710 c 256,6,7
 209 710 209 710 139.5 620 c 128,-1,8
 70 530 70 530 70 349 c 256,9,10
 70 168 70 168 139.5 78 c 128,-1,11
 209 -12 209 -12 340 -12 c 256,0,1
340 8 m 256,12,13
 225 8 225 8 159.5 88.5 c 128,-1,14
 94 169 94 169 94 328 c 2,15,-1
 94 370 l 2,16,17
 94 529 94 529 159.5 609.5 c 128,-1,18
 225 690 225 690 340 690 c 256,19,20
 455 690 455 690 520.5 609.5 c 128,-1,21
 586 529 586 529 586 370 c 2,22,-1
 586 328 l 2,23,24
 586 169 586 169 520.5 88.5 c 128,-1,25
 455 8 455 8 340 8 c 256,12,13
466 779 m 1,26,-1
 480 790 l 1,27,-1
 352 923 l 1,28,-1
 328 923 l 1,29,-1
 200 790 l 1,30,-1
 214 779 l 1,31,-1
 340 906 l 1,32,-1
 466 779 l 1,26,-1
EndSplineSet
EndChar

StartChar: Otilde
Encoding: 213 213 148
Width: 680
Flags: W
LayerCount: 2
Fore
SplineSet
340 -12 m 256,0,1
 471 -12 471 -12 540.5 78 c 128,-1,2
 610 168 610 168 610 349 c 256,3,4
 610 530 610 530 540.5 620 c 128,-1,5
 471 710 471 710 340 710 c 256,6,7
 209 710 209 710 139.5 620 c 128,-1,8
 70 530 70 530 70 349 c 256,9,10
 70 168 70 168 139.5 78 c 128,-1,11
 209 -12 209 -12 340 -12 c 256,0,1
340 8 m 256,12,13
 225 8 225 8 159.5 88.5 c 128,-1,14
 94 169 94 169 94 328 c 2,15,-1
 94 370 l 2,16,17
 94 529 94 529 159.5 609.5 c 128,-1,18
 225 690 225 690 340 690 c 256,19,20
 455 690 455 690 520.5 609.5 c 128,-1,21
 586 529 586 529 586 370 c 2,22,-1
 586 328 l 2,23,24
 586 169 586 169 520.5 88.5 c 128,-1,25
 455 8 455 8 340 8 c 256,12,13
411 808 m 0,26,27
 455 808 455 808 489 847 c 1,28,-1
 477 859 l 1,29,30
 448 826 448 826 412 826 c 0,31,32
 384 826 384 826 346 852 c 0,33,34
 320 869 320 869 303 875.5 c 128,-1,35
 286 882 286 882 269 882 c 0,36,37
 226 882 226 882 191 843 c 1,38,-1
 203 831 l 1,39,40
 234 864 234 864 268 864 c 0,41,42
 297 864 297 864 334 838 c 0,43,44
 360 821 360 821 377 814.5 c 128,-1,45
 394 808 394 808 411 808 c 0,26,27
EndSplineSet
EndChar

StartChar: Odieresis
Encoding: 214 214 149
Width: 680
Flags: W
LayerCount: 2
Fore
SplineSet
340 -12 m 256,0,1
 471 -12 471 -12 540.5 78 c 128,-1,2
 610 168 610 168 610 349 c 256,3,4
 610 530 610 530 540.5 620 c 128,-1,5
 471 710 471 710 340 710 c 256,6,7
 209 710 209 710 139.5 620 c 128,-1,8
 70 530 70 530 70 349 c 256,9,10
 70 168 70 168 139.5 78 c 128,-1,11
 209 -12 209 -12 340 -12 c 256,0,1
340 8 m 256,12,13
 225 8 225 8 159.5 88.5 c 128,-1,14
 94 169 94 169 94 328 c 2,15,-1
 94 370 l 2,16,17
 94 529 94 529 159.5 609.5 c 128,-1,18
 225 690 225 690 340 690 c 256,19,20
 455 690 455 690 520.5 609.5 c 128,-1,21
 586 529 586 529 586 370 c 2,22,-1
 586 328 l 2,23,24
 586 169 586 169 520.5 88.5 c 128,-1,25
 455 8 455 8 340 8 c 256,12,13
249 819 m 256,26,27
 272 819 272 819 272 840 c 2,28,-1
 272 847 l 2,29,30
 272 868 272 868 249 868 c 256,31,32
 226 868 226 868 226 847 c 2,33,-1
 226 840 l 2,34,35
 226 819 226 819 249 819 c 256,26,27
431 819 m 256,36,37
 454 819 454 819 454 840 c 2,38,-1
 454 847 l 2,39,40
 454 868 454 868 431 868 c 256,41,42
 408 868 408 868 408 847 c 2,43,-1
 408 840 l 2,44,45
 408 819 408 819 431 819 c 256,36,37
EndSplineSet
EndChar

StartChar: multiply
Encoding: 215 215 150
Width: 600
Flags: W
LayerCount: 2
Fore
SplineSet
481 110 m 1,0,-1
 495 123 l 1,1,-1
 313 305 l 1,2,-1
 495 487 l 1,3,-1
 481 500 l 1,4,-1
 300 318 l 1,5,-1
 119 500 l 1,6,-1
 105 487 l 1,7,-1
 287 305 l 1,8,-1
 105 123 l 1,9,-1
 119 110 l 1,10,-1
 300 292 l 1,11,-1
 481 110 l 1,0,-1
EndSplineSet
EndChar

StartChar: Oslash
Encoding: 216 216 151
Width: 680
Flags: W
LayerCount: 2
Fore
SplineSet
88 -31 m 1,0,-1
 153 63 l 1,1,2
 220 -12 220 -12 340 -12 c 0,3,4
 471 -12 471 -12 540.5 78 c 128,-1,5
 610 168 610 168 610 349 c 0,6,7
 610 528 610 528 540 619 c 1,8,-1
 610 720 l 1,9,-1
 593 731 l 1,10,-1
 527 636 l 1,11,12
 459 710 459 710 340 710 c 0,13,14
 209 710 209 710 139.5 620 c 128,-1,15
 70 530 70 530 70 349 c 0,16,17
 70 172 70 172 139 80 c 1,18,-1
 70 -20 l 1,19,-1
 88 -31 l 1,0,-1
152 98 m 1,20,21
 94 178 94 178 94 328 c 2,22,-1
 94 370 l 2,23,24
 94 529 94 529 159.5 609.5 c 128,-1,25
 225 690 225 690 340 690 c 0,26,27
 450 690 450 690 514 617 c 1,28,-1
 152 98 l 1,20,21
340 8 m 0,29,30
 231 8 231 8 166 81 c 1,31,-1
 527 600 l 1,32,33
 586 520 586 520 586 370 c 2,34,-1
 586 328 l 2,35,36
 586 169 586 169 520.5 88.5 c 128,-1,37
 455 8 455 8 340 8 c 0,29,30
EndSplineSet
EndChar

StartChar: Ugrave
Encoding: 217 217 152
Width: 652
Flags: W
LayerCount: 2
Fore
SplineSet
326 -12 m 256,0,1
 452 -12 452 -12 502 51 c 128,-1,2
 552 114 552 114 552 270 c 2,3,-1
 552 698 l 1,4,-1
 530 698 l 1,5,-1
 530 268 l 2,6,7
 530 126 530 126 486 67 c 128,-1,8
 442 8 442 8 326 8 c 0,9,10
 208 8 208 8 166 67 c 0,11,12
 122 126 122 126 122 268 c 2,13,-1
 122 698 l 1,14,-1
 100 698 l 1,15,-1
 100 270 l 2,16,17
 100 114 100 114 150 51 c 128,-1,18
 200 -12 200 -12 326 -12 c 256,0,1
342 767 m 1,19,-1
 357 777 l 1,20,-1
 246 931 l 1,21,-1
 227 919 l 1,22,-1
 342 767 l 1,19,-1
EndSplineSet
EndChar

StartChar: Uacute
Encoding: 218 218 153
Width: 652
Flags: W
LayerCount: 2
Fore
SplineSet
326 -12 m 256,0,1
 452 -12 452 -12 502 51 c 128,-1,2
 552 114 552 114 552 270 c 2,3,-1
 552 698 l 1,4,-1
 530 698 l 1,5,-1
 530 268 l 2,6,7
 530 126 530 126 486 67 c 128,-1,8
 442 8 442 8 326 8 c 0,9,10
 208 8 208 8 166 67 c 0,11,12
 122 126 122 126 122 268 c 2,13,-1
 122 698 l 1,14,-1
 100 698 l 1,15,-1
 100 270 l 2,16,17
 100 114 100 114 150 51 c 128,-1,18
 200 -12 200 -12 326 -12 c 256,0,1
307 767 m 1,19,-1
 422 919 l 1,20,-1
 403 931 l 1,21,-1
 292 777 l 1,22,-1
 307 767 l 1,19,-1
EndSplineSet
EndChar

StartChar: Ucircumflex
Encoding: 219 219 154
Width: 652
Flags: W
LayerCount: 2
Fore
SplineSet
326 -12 m 256,0,1
 452 -12 452 -12 502 51 c 128,-1,2
 552 114 552 114 552 270 c 2,3,-1
 552 698 l 1,4,-1
 530 698 l 1,5,-1
 530 268 l 2,6,7
 530 126 530 126 486 67 c 128,-1,8
 442 8 442 8 326 8 c 0,9,10
 208 8 208 8 166 67 c 0,11,12
 122 126 122 126 122 268 c 2,13,-1
 122 698 l 1,14,-1
 100 698 l 1,15,-1
 100 270 l 2,16,17
 100 114 100 114 150 51 c 128,-1,18
 200 -12 200 -12 326 -12 c 256,0,1
451 779 m 1,19,-1
 465 790 l 1,20,-1
 337 923 l 1,21,-1
 313 923 l 1,22,-1
 185 790 l 1,23,-1
 199 779 l 1,24,-1
 325 906 l 1,25,-1
 451 779 l 1,19,-1
EndSplineSet
EndChar

StartChar: Udieresis
Encoding: 220 220 155
Width: 652
Flags: W
LayerCount: 2
Fore
SplineSet
326 -12 m 256,0,1
 452 -12 452 -12 502 51 c 128,-1,2
 552 114 552 114 552 270 c 2,3,-1
 552 698 l 1,4,-1
 530 698 l 1,5,-1
 530 268 l 2,6,7
 530 126 530 126 486 67 c 128,-1,8
 442 8 442 8 326 8 c 0,9,10
 208 8 208 8 166 67 c 0,11,12
 122 126 122 126 122 268 c 2,13,-1
 122 698 l 1,14,-1
 100 698 l 1,15,-1
 100 270 l 2,16,17
 100 114 100 114 150 51 c 128,-1,18
 200 -12 200 -12 326 -12 c 256,0,1
234 819 m 256,19,20
 257 819 257 819 257 840 c 2,21,-1
 257 847 l 2,22,23
 257 868 257 868 234 868 c 256,24,25
 211 868 211 868 211 847 c 2,26,-1
 211 840 l 2,27,28
 211 819 211 819 234 819 c 256,19,20
416 819 m 256,29,30
 439 819 439 819 439 840 c 2,31,-1
 439 847 l 2,32,33
 439 868 439 868 416 868 c 256,34,35
 393 868 393 868 393 847 c 2,36,-1
 393 840 l 2,37,38
 393 819 393 819 416 819 c 256,29,30
EndSplineSet
EndChar

StartChar: Yacute
Encoding: 221 221 156
Width: 546
Flags: W
LayerCount: 2
Fore
SplineSet
284 0 m 1,0,-1
 284 294 l 1,1,-1
 525 698 l 1,2,-1
 501 698 l 1,3,-1
 275 320 l 1,4,-1
 272 320 l 1,5,-1
 46 698 l 1,6,-1
 21 698 l 1,7,-1
 262 294 l 1,8,-1
 262 0 l 1,9,-1
 284 0 l 1,0,-1
255 767 m 1,10,-1
 370 919 l 1,11,-1
 351 931 l 1,12,-1
 240 777 l 1,13,-1
 255 767 l 1,10,-1
EndSplineSet
EndChar

StartChar: Thorn
Encoding: 222 222 157
Width: 594
Flags: W
LayerCount: 2
Fore
SplineSet
130 0 m 1,0,-1
 130 166 l 1,1,-1
 376 166 l 2,2,3
 462 166 462 166 506 217 c 128,-1,4
 550 268 550 268 550 354 c 256,5,6
 550 440 550 440 506 491 c 128,-1,7
 462 542 462 542 376 542 c 2,8,-1
 130 542 l 1,9,-1
 130 698 l 1,10,-1
 108 698 l 1,11,-1
 108 0 l 1,12,-1
 130 0 l 1,0,-1
376 186 m 2,13,-1
 130 186 l 1,14,-1
 130 522 l 1,15,-1
 376 522 l 2,16,17
 449 522 449 522 490 477 c 1,18,19
 526 431 526 431 526 375 c 2,20,-1
 526 333 l 2,21,22
 526 275 526 275 490 231 c 0,23,24
 449 186 449 186 376 186 c 2,13,-1
EndSplineSet
EndChar

StartChar: germandbls
Encoding: 223 223 158
Width: 645
Flags: W
LayerCount: 2
Fore
SplineSet
434 -12 m 0,0,1
 509 -12 509 -12 552.5 23.5 c 128,-1,2
 596 59 596 59 596 125 c 0,3,4
 596 190 596 190 562 219.5 c 128,-1,5
 528 249 528 249 471 261 c 2,6,-1
 427 272 l 2,7,8
 373 284 373 284 346.5 306 c 128,-1,9
 320 328 320 328 320 378 c 0,10,11
 320 434 320 434 373 462 c 0,12,13
 428 488 428 488 507 488 c 2,14,-1
 525 488 l 1,15,-1
 525 521 l 2,16,17
 525 625 525 625 474.5 688.5 c 128,-1,18
 424 752 424 752 329 752 c 0,19,20
 235 752 235 752 184 688.5 c 128,-1,21
 133 625 133 625 133 521 c 2,22,-1
 133 506 l 1,23,-1
 40 506 l 1,24,-1
 40 487 l 1,25,-1
 133 487 l 1,26,-1
 133 0 l 1,27,-1
 154 0 l 1,28,-1
 154 521 l 2,29,30
 154 621 154 621 199 677 c 128,-1,31
 244 733 244 733 329 733 c 256,32,33
 414 733 414 733 459 677 c 128,-1,34
 504 621 504 621 504 521 c 2,35,-1
 504 506 l 1,36,37
 414 506 414 506 356.5 475.5 c 128,-1,38
 299 445 299 445 299 377 c 0,39,40
 299 317 299 317 333 292 c 0,41,42
 365 264 365 264 423 252 c 2,43,-1
 467 241 l 2,44,45
 520 229 520 229 547.5 204 c 128,-1,46
 575 179 575 179 575 124 c 0,47,48
 575 10 575 10 434 7 c 0,49,50
 376 7 376 7 335.5 26.5 c 128,-1,51
 295 46 295 46 260 93 c 1,52,-1
 242 81 l 1,53,54
 277 31 277 31 324 9.5 c 128,-1,55
 371 -12 371 -12 434 -12 c 0,0,1
EndSplineSet
EndChar

StartChar: agrave
Encoding: 224 224 159
Width: 509
Flags: W
LayerCount: 2
Fore
SplineSet
267 587 m 1,0,-1
 282 597 l 1,1,-1
 171 751 l 1,2,-1
 152 739 l 1,3,-1
 267 587 l 1,0,-1
224 -12 m 0,4,5
 146 -12 146 -12 103.5 24.5 c 128,-1,6
 61 61 61 61 61 130 c 256,7,8
 61 199 61 199 102 234 c 0,9,10
 149 275 149 275 251 275 c 2,11,-1
 393 275 l 1,12,-1
 393 349 l 2,13,14
 393 427 393 427 356.5 463 c 128,-1,15
 320 499 320 499 249 499 c 0,16,17
 135 499 135 499 96 404 c 1,18,-1
 78 412 l 1,19,20
 98 461 98 461 138 489.5 c 128,-1,21
 178 518 178 518 249 518 c 0,22,23
 414 518 414 518 414 356 c 2,24,-1
 414 0 l 1,25,-1
 393 0 l 1,26,-1
 393 77 l 1,27,-1
 390 77 l 1,28,29
 347 -12 347 -12 224 -12 c 0,4,5
224 7 m 0,30,31
 292 7 292 7 342.5 43.5 c 128,-1,32
 393 80 393 80 393 148 c 2,33,-1
 393 257 l 1,34,-1
 252 257 l 2,35,36
 163 257 163 257 123.5 226 c 128,-1,37
 84 195 84 195 84 145 c 2,38,-1
 84 115 l 2,39,40
 84 62 84 62 123 34.5 c 128,-1,41
 162 7 162 7 224 7 c 0,30,31
EndSplineSet
EndChar

StartChar: aacute
Encoding: 225 225 160
Width: 509
Flags: W
LayerCount: 2
Fore
SplineSet
232 587 m 1,0,-1
 347 739 l 1,1,-1
 328 751 l 1,2,-1
 217 597 l 1,3,-1
 232 587 l 1,0,-1
224 -12 m 0,4,5
 146 -12 146 -12 103.5 24.5 c 128,-1,6
 61 61 61 61 61 130 c 256,7,8
 61 199 61 199 102 234 c 0,9,10
 149 275 149 275 251 275 c 2,11,-1
 393 275 l 1,12,-1
 393 349 l 2,13,14
 393 427 393 427 356.5 463 c 128,-1,15
 320 499 320 499 249 499 c 0,16,17
 135 499 135 499 96 404 c 1,18,-1
 78 412 l 1,19,20
 98 461 98 461 138 489.5 c 128,-1,21
 178 518 178 518 249 518 c 0,22,23
 414 518 414 518 414 356 c 2,24,-1
 414 0 l 1,25,-1
 393 0 l 1,26,-1
 393 77 l 1,27,-1
 390 77 l 1,28,29
 347 -12 347 -12 224 -12 c 0,4,5
224 7 m 0,30,31
 292 7 292 7 342.5 43.5 c 128,-1,32
 393 80 393 80 393 148 c 2,33,-1
 393 257 l 1,34,-1
 252 257 l 2,35,36
 163 257 163 257 123.5 226 c 128,-1,37
 84 195 84 195 84 145 c 2,38,-1
 84 115 l 2,39,40
 84 62 84 62 123 34.5 c 128,-1,41
 162 7 162 7 224 7 c 0,30,31
EndSplineSet
EndChar

StartChar: acircumflex
Encoding: 226 226 161
Width: 509
Flags: W
LayerCount: 2
Fore
SplineSet
376 599 m 1,0,-1
 390 610 l 1,1,-1
 262 743 l 1,2,-1
 238 743 l 1,3,-1
 110 610 l 1,4,-1
 124 599 l 1,5,-1
 250 726 l 1,6,-1
 376 599 l 1,0,-1
224 -12 m 0,7,8
 146 -12 146 -12 103.5 24.5 c 128,-1,9
 61 61 61 61 61 130 c 256,10,11
 61 199 61 199 102 234 c 0,12,13
 149 275 149 275 251 275 c 2,14,-1
 393 275 l 1,15,-1
 393 349 l 2,16,17
 393 427 393 427 356.5 463 c 128,-1,18
 320 499 320 499 249 499 c 0,19,20
 135 499 135 499 96 404 c 1,21,-1
 78 412 l 1,22,23
 98 461 98 461 138 489.5 c 128,-1,24
 178 518 178 518 249 518 c 0,25,26
 414 518 414 518 414 356 c 2,27,-1
 414 0 l 1,28,-1
 393 0 l 1,29,-1
 393 77 l 1,30,-1
 390 77 l 1,31,32
 347 -12 347 -12 224 -12 c 0,7,8
224 7 m 0,33,34
 292 7 292 7 342.5 43.5 c 128,-1,35
 393 80 393 80 393 148 c 2,36,-1
 393 257 l 1,37,-1
 252 257 l 2,38,39
 163 257 163 257 123.5 226 c 128,-1,40
 84 195 84 195 84 145 c 2,41,-1
 84 115 l 2,42,43
 84 62 84 62 123 34.5 c 128,-1,44
 162 7 162 7 224 7 c 0,33,34
EndSplineSet
EndChar

StartChar: atilde
Encoding: 227 227 162
Width: 509
Flags: W
LayerCount: 2
Fore
SplineSet
321 628 m 0,0,1
 365 628 365 628 399 667 c 1,2,-1
 387 679 l 1,3,4
 358 646 358 646 322 646 c 0,5,6
 294 646 294 646 256 672 c 0,7,8
 230 689 230 689 213 695.5 c 128,-1,9
 196 702 196 702 179 702 c 0,10,11
 136 702 136 702 101 663 c 1,12,-1
 113 651 l 1,13,14
 144 684 144 684 178 684 c 0,15,16
 207 684 207 684 244 658 c 0,17,18
 270 641 270 641 287 634.5 c 128,-1,19
 304 628 304 628 321 628 c 0,0,1
224 -12 m 0,20,21
 146 -12 146 -12 103.5 24.5 c 128,-1,22
 61 61 61 61 61 130 c 256,23,24
 61 199 61 199 102 234 c 0,25,26
 149 275 149 275 251 275 c 2,27,-1
 393 275 l 1,28,-1
 393 349 l 2,29,30
 393 427 393 427 356.5 463 c 128,-1,31
 320 499 320 499 249 499 c 0,32,33
 135 499 135 499 96 404 c 1,34,-1
 78 412 l 1,35,36
 98 461 98 461 138 489.5 c 128,-1,37
 178 518 178 518 249 518 c 0,38,39
 414 518 414 518 414 356 c 2,40,-1
 414 0 l 1,41,-1
 393 0 l 1,42,-1
 393 77 l 1,43,-1
 390 77 l 1,44,45
 347 -12 347 -12 224 -12 c 0,20,21
224 7 m 0,46,47
 292 7 292 7 342.5 43.5 c 128,-1,48
 393 80 393 80 393 148 c 2,49,-1
 393 257 l 1,50,-1
 252 257 l 2,51,52
 163 257 163 257 123.5 226 c 128,-1,53
 84 195 84 195 84 145 c 2,54,-1
 84 115 l 2,55,56
 84 62 84 62 123 34.5 c 128,-1,57
 162 7 162 7 224 7 c 0,46,47
EndSplineSet
EndChar

StartChar: adieresis
Encoding: 228 228 163
Width: 509
Flags: W
LayerCount: 2
Fore
SplineSet
159 642 m 256,0,1
 182 642 182 642 182 663 c 2,2,-1
 182 670 l 2,3,4
 182 691 182 691 159 691 c 256,5,6
 136 691 136 691 136 670 c 2,7,-1
 136 663 l 2,8,9
 136 642 136 642 159 642 c 256,0,1
341 642 m 256,10,11
 364 642 364 642 364 663 c 2,12,-1
 364 670 l 2,13,14
 364 691 364 691 341 691 c 256,15,16
 318 691 318 691 318 670 c 2,17,-1
 318 663 l 2,18,19
 318 642 318 642 341 642 c 256,10,11
224 -12 m 0,20,21
 146 -12 146 -12 103.5 24.5 c 128,-1,22
 61 61 61 61 61 130 c 256,23,24
 61 199 61 199 102 234 c 0,25,26
 149 275 149 275 251 275 c 2,27,-1
 393 275 l 1,28,-1
 393 349 l 2,29,30
 393 427 393 427 356.5 463 c 128,-1,31
 320 499 320 499 249 499 c 0,32,33
 135 499 135 499 96 404 c 1,34,-1
 78 412 l 1,35,36
 98 461 98 461 138 489.5 c 128,-1,37
 178 518 178 518 249 518 c 0,38,39
 414 518 414 518 414 356 c 2,40,-1
 414 0 l 1,41,-1
 393 0 l 1,42,-1
 393 77 l 1,43,-1
 390 77 l 1,44,45
 347 -12 347 -12 224 -12 c 0,20,21
224 7 m 0,46,47
 292 7 292 7 342.5 43.5 c 128,-1,48
 393 80 393 80 393 148 c 2,49,-1
 393 257 l 1,50,-1
 252 257 l 2,51,52
 163 257 163 257 123.5 226 c 128,-1,53
 84 195 84 195 84 145 c 2,54,-1
 84 115 l 2,55,56
 84 62 84 62 123 34.5 c 128,-1,57
 162 7 162 7 224 7 c 0,46,47
EndSplineSet
EndChar

StartChar: aring
Encoding: 229 229 164
Width: 509
Flags: W
LayerCount: 2
Fore
SplineSet
250 589 m 256,0,1
 291 589 291 589 315.5 614 c 128,-1,2
 340 639 340 639 340 680 c 256,3,4
 340 721 340 721 315.5 746 c 128,-1,5
 291 771 291 771 250 771 c 256,6,7
 209 771 209 771 184.5 746 c 128,-1,8
 160 721 160 721 160 680 c 256,9,10
 160 639 160 639 184.5 614 c 128,-1,11
 209 589 209 589 250 589 c 256,0,1
250 607 m 0,12,13
 180 607 180 607 180 685 c 0,14,15
 180 716 180 716 199 734.5 c 128,-1,16
 218 753 218 753 250 753 c 0,17,18
 320 753 320 753 320 675 c 0,19,20
 320 644 320 644 301 625.5 c 128,-1,21
 282 607 282 607 250 607 c 0,12,13
224 -12 m 0,22,23
 146 -12 146 -12 103.5 24.5 c 128,-1,24
 61 61 61 61 61 130 c 256,25,26
 61 199 61 199 102 234 c 0,27,28
 149 275 149 275 251 275 c 2,29,-1
 393 275 l 1,30,-1
 393 349 l 2,31,32
 393 427 393 427 356.5 463 c 128,-1,33
 320 499 320 499 249 499 c 0,34,35
 135 499 135 499 96 404 c 1,36,-1
 78 412 l 1,37,38
 98 461 98 461 138 489.5 c 128,-1,39
 178 518 178 518 249 518 c 0,40,41
 414 518 414 518 414 356 c 2,42,-1
 414 0 l 1,43,-1
 393 0 l 1,44,-1
 393 77 l 1,45,-1
 390 77 l 1,46,47
 347 -12 347 -12 224 -12 c 0,22,23
224 7 m 0,48,49
 292 7 292 7 342.5 43.5 c 128,-1,50
 393 80 393 80 393 148 c 2,51,-1
 393 257 l 1,52,-1
 252 257 l 2,53,54
 163 257 163 257 123.5 226 c 128,-1,55
 84 195 84 195 84 145 c 2,56,-1
 84 115 l 2,57,58
 84 62 84 62 123 34.5 c 128,-1,59
 162 7 162 7 224 7 c 0,48,49
EndSplineSet
EndChar

StartChar: ae
Encoding: 230 230 165
Width: 861
Flags: W
LayerCount: 2
Fore
SplineSet
219 7 m 0,0,1
 157 7 157 7 118 34.5 c 128,-1,2
 79 62 79 62 79 115 c 2,3,-1
 79 145 l 2,4,5
 79 195 79 195 118.5 226 c 128,-1,6
 158 257 158 257 247 257 c 2,7,-1
 388 257 l 1,8,-1
 388 148 l 2,9,10
 388 80 388 80 337.5 43.5 c 128,-1,11
 287 7 287 7 219 7 c 0,0,1
778 275 m 1,12,-1
 411 275 l 1,13,14
 411 380 411 380 459 439.5 c 128,-1,15
 507 499 507 499 596 499 c 0,16,17
 679 499 679 499 728.5 439.5 c 128,-1,18
 778 380 778 380 778 275 c 1,12,-1
600 -12 m 0,19,20
 673 -12 673 -12 721.5 24 c 128,-1,21
 770 60 770 60 793 124 c 1,22,-1
 775 131 l 1,23,24
 728 7 728 7 600 7 c 0,25,26
 509 7 509 7 460 66.5 c 128,-1,27
 411 126 411 126 411 229 c 2,28,-1
 411 256 l 1,29,-1
 801 256 l 1,30,-1
 801 266 l 2,31,32
 801 382 801 382 744.5 450 c 128,-1,33
 688 518 688 518 596 518 c 0,34,35
 458 518 458 518 408 382 c 1,36,-1
 405 382 l 1,37,38
 393 515 393 515 244 518 c 0,39,40
 114 518 114 518 73 412 c 1,41,-1
 91 404 l 1,42,43
 130 499 130 499 235 499 c 2,44,-1
 244 499 l 2,45,46
 315 499 315 499 351.5 463 c 128,-1,47
 388 427 388 427 388 349 c 2,48,-1
 388 275 l 1,49,-1
 246 275 l 2,50,51
 144 275 144 275 97 234 c 0,52,53
 56 199 56 199 56 130 c 0,54,55
 56 -8 56 -8 219 -12 c 0,56,57
 289 -12 289 -12 340 21 c 128,-1,58
 391 54 391 54 405 121 c 1,59,-1
 408 121 l 1,60,61
 432 55 432 55 481 21.5 c 128,-1,62
 530 -12 530 -12 600 -12 c 0,19,20
EndSplineSet
EndChar

StartChar: ccedilla
Encoding: 231 231 166
Width: 487
Flags: W
LayerCount: 2
Fore
SplineSet
280 -202 m 0,0,1
 318 -202 318 -202 340 -181 c 128,-1,2
 362 -160 362 -160 362 -131 c 0,3,4
 362 -77 362 -77 295 -72 c 0,5,6
 275 -72 275 -72 265 -75 c 1,7,-1
 263 -73 l 1,8,-1
 278 -12 l 1,9,10
 394 -7 394 -7 444 84 c 1,11,-1
 428 95 l 1,12,13
 405 53 405 53 367 30 c 128,-1,14
 329 7 329 7 270 7 c 0,15,16
 179 7 179 7 131 66.5 c 128,-1,17
 83 126 83 126 83 229 c 2,18,-1
 83 277 l 2,19,20
 83 380 83 380 131 439.5 c 128,-1,21
 179 499 179 499 270 499 c 0,22,23
 324 499 324 499 359 476 c 128,-1,24
 394 453 394 453 417 409 c 1,25,-1
 435 418 l 1,26,27
 384 518 384 518 270 518 c 0,28,29
 170 518 170 518 115 451.5 c 128,-1,30
 60 385 60 385 60 253 c 0,31,32
 60 124 60 124 112 57.5 c 128,-1,33
 164 -9 164 -9 260 -12 c 1,34,-1
 243 -84 l 1,35,-1
 280 -86 l 2,36,37
 341 -91 341 -91 341 -132 c 0,38,39
 341 -158 341 -158 324 -171 c 128,-1,40
 307 -184 307 -184 280 -184 c 0,41,42
 234 -184 234 -184 212 -157 c 1,43,-1
 199 -170 l 1,44,45
 208 -183 208 -183 229.5 -192.5 c 128,-1,46
 251 -202 251 -202 280 -202 c 0,0,1
EndSplineSet
EndChar

StartChar: egrave
Encoding: 232 232 167
Width: 533
Flags: W
LayerCount: 2
Fore
SplineSet
272 -12 m 0,0,1
 345 -12 345 -12 393.5 24 c 128,-1,2
 442 60 442 60 465 124 c 1,3,-1
 447 131 l 1,4,5
 400 7 400 7 272 7 c 0,6,7
 181 7 181 7 132 66.5 c 128,-1,8
 83 126 83 126 83 229 c 2,9,-1
 83 256 l 1,10,-1
 473 256 l 1,11,-1
 473 266 l 2,12,13
 473 382 473 382 416.5 450 c 128,-1,14
 360 518 360 518 268 518 c 0,15,16
 170 518 170 518 115 451 c 128,-1,17
 60 384 60 384 60 253 c 0,18,19
 60 121 60 121 116 54.5 c 128,-1,20
 172 -12 172 -12 272 -12 c 0,0,1
450 275 m 1,21,-1
 83 275 l 1,22,23
 83 380 83 380 131 439.5 c 128,-1,24
 179 499 179 499 268 499 c 0,25,26
 351 499 351 499 400.5 439.5 c 128,-1,27
 450 380 450 380 450 275 c 1,21,-1
286 587 m 1,28,-1
 301 597 l 1,29,-1
 190 751 l 1,30,-1
 171 739 l 1,31,-1
 286 587 l 1,28,-1
EndSplineSet
EndChar

StartChar: eacute
Encoding: 233 233 168
Width: 533
Flags: W
LayerCount: 2
Fore
SplineSet
272 -12 m 0,0,1
 345 -12 345 -12 393.5 24 c 128,-1,2
 442 60 442 60 465 124 c 1,3,-1
 447 131 l 1,4,5
 400 7 400 7 272 7 c 0,6,7
 181 7 181 7 132 66.5 c 128,-1,8
 83 126 83 126 83 229 c 2,9,-1
 83 256 l 1,10,-1
 473 256 l 1,11,-1
 473 266 l 2,12,13
 473 382 473 382 416.5 450 c 128,-1,14
 360 518 360 518 268 518 c 0,15,16
 170 518 170 518 115 451 c 128,-1,17
 60 384 60 384 60 253 c 0,18,19
 60 121 60 121 116 54.5 c 128,-1,20
 172 -12 172 -12 272 -12 c 0,0,1
450 275 m 1,21,-1
 83 275 l 1,22,23
 83 380 83 380 131 439.5 c 128,-1,24
 179 499 179 499 268 499 c 0,25,26
 351 499 351 499 400.5 439.5 c 128,-1,27
 450 380 450 380 450 275 c 1,21,-1
251 587 m 1,28,-1
 366 739 l 1,29,-1
 347 751 l 1,30,-1
 236 597 l 1,31,-1
 251 587 l 1,28,-1
EndSplineSet
EndChar

StartChar: ecircumflex
Encoding: 234 234 169
Width: 533
Flags: W
LayerCount: 2
Fore
SplineSet
272 -12 m 0,0,1
 345 -12 345 -12 393.5 24 c 128,-1,2
 442 60 442 60 465 124 c 1,3,-1
 447 131 l 1,4,5
 400 7 400 7 272 7 c 0,6,7
 181 7 181 7 132 66.5 c 128,-1,8
 83 126 83 126 83 229 c 2,9,-1
 83 256 l 1,10,-1
 473 256 l 1,11,-1
 473 266 l 2,12,13
 473 382 473 382 416.5 450 c 128,-1,14
 360 518 360 518 268 518 c 0,15,16
 170 518 170 518 115 451 c 128,-1,17
 60 384 60 384 60 253 c 0,18,19
 60 121 60 121 116 54.5 c 128,-1,20
 172 -12 172 -12 272 -12 c 0,0,1
450 275 m 1,21,-1
 83 275 l 1,22,23
 83 380 83 380 131 439.5 c 128,-1,24
 179 499 179 499 268 499 c 0,25,26
 351 499 351 499 400.5 439.5 c 128,-1,27
 450 380 450 380 450 275 c 1,21,-1
395 599 m 1,28,-1
 409 610 l 1,29,-1
 281 743 l 1,30,-1
 257 743 l 1,31,-1
 129 610 l 1,32,-1
 143 599 l 1,33,-1
 269 726 l 1,34,-1
 395 599 l 1,28,-1
EndSplineSet
EndChar

StartChar: edieresis
Encoding: 235 235 170
Width: 533
Flags: W
LayerCount: 2
Fore
SplineSet
272 -12 m 0,0,1
 345 -12 345 -12 393.5 24 c 128,-1,2
 442 60 442 60 465 124 c 1,3,-1
 447 131 l 1,4,5
 400 7 400 7 272 7 c 0,6,7
 181 7 181 7 132 66.5 c 128,-1,8
 83 126 83 126 83 229 c 2,9,-1
 83 256 l 1,10,-1
 473 256 l 1,11,-1
 473 266 l 2,12,13
 473 382 473 382 416.5 450 c 128,-1,14
 360 518 360 518 268 518 c 0,15,16
 170 518 170 518 115 451 c 128,-1,17
 60 384 60 384 60 253 c 0,18,19
 60 121 60 121 116 54.5 c 128,-1,20
 172 -12 172 -12 272 -12 c 0,0,1
450 275 m 1,21,-1
 83 275 l 1,22,23
 83 380 83 380 131 439.5 c 128,-1,24
 179 499 179 499 268 499 c 0,25,26
 351 499 351 499 400.5 439.5 c 128,-1,27
 450 380 450 380 450 275 c 1,21,-1
178 642 m 256,28,29
 201 642 201 642 201 663 c 2,30,-1
 201 670 l 2,31,32
 201 691 201 691 178 691 c 256,33,34
 155 691 155 691 155 670 c 2,35,-1
 155 663 l 2,36,37
 155 642 155 642 178 642 c 256,28,29
360 642 m 256,38,39
 383 642 383 642 383 663 c 2,40,-1
 383 670 l 2,41,42
 383 691 383 691 360 691 c 256,43,44
 337 691 337 691 337 670 c 2,45,-1
 337 663 l 2,46,47
 337 642 337 642 360 642 c 256,38,39
EndSplineSet
EndChar

StartChar: igrave
Encoding: 236 236 171
Width: 231
Flags: W
LayerCount: 2
Fore
SplineSet
126 0 m 1,0,-1
 126 506 l 1,1,-1
 105 506 l 1,2,-1
 105 0 l 1,3,-1
 126 0 l 1,0,-1
133 587 m 1,4,-1
 148 597 l 1,5,-1
 37 751 l 1,6,-1
 18 739 l 1,7,-1
 133 587 l 1,4,-1
EndSplineSet
EndChar

StartChar: iacute
Encoding: 237 237 172
Width: 231
Flags: W
LayerCount: 2
Fore
SplineSet
126 0 m 1,0,-1
 126 506 l 1,1,-1
 105 506 l 1,2,-1
 105 0 l 1,3,-1
 126 0 l 1,0,-1
98 587 m 1,4,-1
 213 739 l 1,5,-1
 194 751 l 1,6,-1
 83 597 l 1,7,-1
 98 587 l 1,4,-1
EndSplineSet
EndChar

StartChar: icircumflex
Encoding: 238 238 173
Width: 231
Flags: W
LayerCount: 2
Fore
SplineSet
126 0 m 1,0,-1
 126 506 l 1,1,-1
 105 506 l 1,2,-1
 105 0 l 1,3,-1
 126 0 l 1,0,-1
242 599 m 1,4,-1
 256 610 l 1,5,-1
 128 743 l 1,6,-1
 104 743 l 1,7,-1
 -24 610 l 1,8,-1
 -10 599 l 1,9,-1
 116 726 l 1,10,-1
 242 599 l 1,4,-1
EndSplineSet
EndChar

StartChar: idieresis
Encoding: 239 239 174
Width: 231
Flags: W
LayerCount: 2
Fore
SplineSet
126 0 m 1,0,-1
 126 506 l 1,1,-1
 105 506 l 1,2,-1
 105 0 l 1,3,-1
 126 0 l 1,0,-1
25 642 m 256,4,5
 48 642 48 642 48 663 c 2,6,-1
 48 670 l 2,7,8
 48 691 48 691 25 691 c 256,9,10
 2 691 2 691 2 670 c 2,11,-1
 2 663 l 2,12,13
 2 642 2 642 25 642 c 256,4,5
207 642 m 256,14,15
 230 642 230 642 230 663 c 2,16,-1
 230 670 l 2,17,18
 230 691 230 691 207 691 c 256,19,20
 184 691 184 691 184 670 c 2,21,-1
 184 663 l 2,22,23
 184 642 184 642 207 642 c 256,14,15
EndSplineSet
EndChar

StartChar: eth
Encoding: 240 240 175
Width: 544
Flags: W
LayerCount: 2
Fore
SplineSet
270 -12 m 0,0,1
 365 -12 365 -12 422.5 56 c 128,-1,2
 480 124 480 124 480 248 c 0,3,4
 480 370 480 370 424 485 c 0,5,6
 371 591 371 591 296 660 c 1,7,-1
 404 738 l 1,8,-1
 394 752 l 1,9,-1
 283 672 l 1,10,11
 236 714 236 714 192 740 c 1,12,-1
 156 740 l 1,13,14
 225 703 225 703 269 662 c 1,15,-1
 164 586 l 1,16,-1
 174 572 l 1,17,-1
 282 650 l 1,18,19
 376 563 376 563 432 421 c 1,20,-1
 429 419 l 1,21,22
 374 500 374 500 270 500 c 0,23,24
 176 500 176 500 118 434 c 128,-1,25
 60 368 60 368 60 248 c 0,26,27
 60 124 60 124 118 56 c 128,-1,28
 176 -12 176 -12 270 -12 c 0,0,1
270 7 m 0,29,30
 188 7 188 7 135.5 64 c 128,-1,31
 83 121 83 121 83 218 c 2,32,-1
 83 270 l 2,33,34
 83 368 83 368 135.5 424.5 c 128,-1,35
 188 481 188 481 270 481 c 0,36,37
 353 481 353 481 405 424.5 c 128,-1,38
 457 368 457 368 457 270 c 2,39,-1
 457 218 l 2,40,41
 457 121 457 121 405 64 c 128,-1,42
 353 7 353 7 270 7 c 0,29,30
EndSplineSet
EndChar

StartChar: ntilde
Encoding: 241 241 176
Width: 556
Flags: W
LayerCount: 2
Fore
SplineSet
461 0 m 1,0,-1
 461 325 l 2,1,2
 461 516 461 516 287 518 c 0,3,4
 219 518 219 518 180.5 491.5 c 128,-1,5
 142 465 142 465 129 430 c 1,6,-1
 126 430 l 1,7,-1
 126 506 l 1,8,-1
 105 506 l 1,9,-1
 105 0 l 1,10,-1
 126 0 l 1,11,-1
 126 362 l 2,12,13
 126 430 126 430 174 465 c 0,14,15
 224 499 224 499 285 499 c 0,16,17
 440 499 440 499 440 321 c 2,18,-1
 440 0 l 1,19,-1
 461 0 l 1,0,-1
356 628 m 0,20,21
 400 628 400 628 434 667 c 1,22,-1
 422 679 l 1,23,24
 393 646 393 646 357 646 c 0,25,26
 329 646 329 646 291 672 c 0,27,28
 265 689 265 689 248 695.5 c 128,-1,29
 231 702 231 702 214 702 c 0,30,31
 171 702 171 702 136 663 c 1,32,-1
 148 651 l 1,33,34
 179 684 179 684 213 684 c 0,35,36
 242 684 242 684 279 658 c 0,37,38
 305 641 305 641 322 634.5 c 128,-1,39
 339 628 339 628 356 628 c 0,20,21
EndSplineSet
EndChar

StartChar: ograve
Encoding: 242 242 177
Width: 540
Flags: W
LayerCount: 2
Fore
SplineSet
270 -12 m 256,0,1
 370 -12 370 -12 425 54.5 c 128,-1,2
 480 121 480 121 480 253 c 256,3,4
 480 385 480 385 425 451.5 c 128,-1,5
 370 518 370 518 270 518 c 256,6,7
 170 518 170 518 115 451.5 c 128,-1,8
 60 385 60 385 60 253 c 256,9,10
 60 121 60 121 115 54.5 c 128,-1,11
 170 -12 170 -12 270 -12 c 256,0,1
270 7 m 256,12,13
 179 7 179 7 131 66.5 c 128,-1,14
 83 126 83 126 83 229 c 2,15,-1
 83 277 l 2,16,17
 83 380 83 380 131 439.5 c 128,-1,18
 179 499 179 499 270 499 c 256,19,20
 361 499 361 499 409 439.5 c 128,-1,21
 457 380 457 380 457 277 c 2,22,-1
 457 229 l 2,23,24
 457 126 457 126 409 66.5 c 128,-1,25
 361 7 361 7 270 7 c 256,12,13
288 587 m 1,26,-1
 303 597 l 1,27,-1
 192 751 l 1,28,-1
 173 739 l 1,29,-1
 288 587 l 1,26,-1
EndSplineSet
EndChar

StartChar: oacute
Encoding: 243 243 178
Width: 540
Flags: W
LayerCount: 2
Fore
SplineSet
270 -12 m 256,0,1
 370 -12 370 -12 425 54.5 c 128,-1,2
 480 121 480 121 480 253 c 256,3,4
 480 385 480 385 425 451.5 c 128,-1,5
 370 518 370 518 270 518 c 256,6,7
 170 518 170 518 115 451.5 c 128,-1,8
 60 385 60 385 60 253 c 256,9,10
 60 121 60 121 115 54.5 c 128,-1,11
 170 -12 170 -12 270 -12 c 256,0,1
270 7 m 256,12,13
 179 7 179 7 131 66.5 c 128,-1,14
 83 126 83 126 83 229 c 2,15,-1
 83 277 l 2,16,17
 83 380 83 380 131 439.5 c 128,-1,18
 179 499 179 499 270 499 c 256,19,20
 361 499 361 499 409 439.5 c 128,-1,21
 457 380 457 380 457 277 c 2,22,-1
 457 229 l 2,23,24
 457 126 457 126 409 66.5 c 128,-1,25
 361 7 361 7 270 7 c 256,12,13
253 587 m 1,26,-1
 368 739 l 1,27,-1
 349 751 l 1,28,-1
 238 597 l 1,29,-1
 253 587 l 1,26,-1
EndSplineSet
EndChar

StartChar: ocircumflex
Encoding: 244 244 179
Width: 540
Flags: W
LayerCount: 2
Fore
SplineSet
270 -12 m 256,0,1
 370 -12 370 -12 425 54.5 c 128,-1,2
 480 121 480 121 480 253 c 256,3,4
 480 385 480 385 425 451.5 c 128,-1,5
 370 518 370 518 270 518 c 256,6,7
 170 518 170 518 115 451.5 c 128,-1,8
 60 385 60 385 60 253 c 256,9,10
 60 121 60 121 115 54.5 c 128,-1,11
 170 -12 170 -12 270 -12 c 256,0,1
270 7 m 256,12,13
 179 7 179 7 131 66.5 c 128,-1,14
 83 126 83 126 83 229 c 2,15,-1
 83 277 l 2,16,17
 83 380 83 380 131 439.5 c 128,-1,18
 179 499 179 499 270 499 c 256,19,20
 361 499 361 499 409 439.5 c 128,-1,21
 457 380 457 380 457 277 c 2,22,-1
 457 229 l 2,23,24
 457 126 457 126 409 66.5 c 128,-1,25
 361 7 361 7 270 7 c 256,12,13
397 599 m 1,26,-1
 411 610 l 1,27,-1
 283 743 l 1,28,-1
 259 743 l 1,29,-1
 131 610 l 1,30,-1
 145 599 l 1,31,-1
 271 726 l 1,32,-1
 397 599 l 1,26,-1
EndSplineSet
EndChar

StartChar: otilde
Encoding: 245 245 180
Width: 540
Flags: W
LayerCount: 2
Fore
SplineSet
270 -12 m 256,0,1
 370 -12 370 -12 425 54.5 c 128,-1,2
 480 121 480 121 480 253 c 256,3,4
 480 385 480 385 425 451.5 c 128,-1,5
 370 518 370 518 270 518 c 256,6,7
 170 518 170 518 115 451.5 c 128,-1,8
 60 385 60 385 60 253 c 256,9,10
 60 121 60 121 115 54.5 c 128,-1,11
 170 -12 170 -12 270 -12 c 256,0,1
270 7 m 256,12,13
 179 7 179 7 131 66.5 c 128,-1,14
 83 126 83 126 83 229 c 2,15,-1
 83 277 l 2,16,17
 83 380 83 380 131 439.5 c 128,-1,18
 179 499 179 499 270 499 c 256,19,20
 361 499 361 499 409 439.5 c 128,-1,21
 457 380 457 380 457 277 c 2,22,-1
 457 229 l 2,23,24
 457 126 457 126 409 66.5 c 128,-1,25
 361 7 361 7 270 7 c 256,12,13
342 628 m 0,26,27
 386 628 386 628 420 667 c 1,28,-1
 408 679 l 1,29,30
 379 646 379 646 343 646 c 0,31,32
 315 646 315 646 277 672 c 0,33,34
 251 689 251 689 234 695.5 c 128,-1,35
 217 702 217 702 200 702 c 0,36,37
 157 702 157 702 122 663 c 1,38,-1
 134 651 l 1,39,40
 165 684 165 684 199 684 c 0,41,42
 228 684 228 684 265 658 c 0,43,44
 291 641 291 641 308 634.5 c 128,-1,45
 325 628 325 628 342 628 c 0,26,27
EndSplineSet
EndChar

StartChar: odieresis
Encoding: 246 246 181
Width: 540
Flags: W
LayerCount: 2
Fore
SplineSet
270 -12 m 256,0,1
 370 -12 370 -12 425 54.5 c 128,-1,2
 480 121 480 121 480 253 c 256,3,4
 480 385 480 385 425 451.5 c 128,-1,5
 370 518 370 518 270 518 c 256,6,7
 170 518 170 518 115 451.5 c 128,-1,8
 60 385 60 385 60 253 c 256,9,10
 60 121 60 121 115 54.5 c 128,-1,11
 170 -12 170 -12 270 -12 c 256,0,1
270 7 m 256,12,13
 179 7 179 7 131 66.5 c 128,-1,14
 83 126 83 126 83 229 c 2,15,-1
 83 277 l 2,16,17
 83 380 83 380 131 439.5 c 128,-1,18
 179 499 179 499 270 499 c 256,19,20
 361 499 361 499 409 439.5 c 128,-1,21
 457 380 457 380 457 277 c 2,22,-1
 457 229 l 2,23,24
 457 126 457 126 409 66.5 c 128,-1,25
 361 7 361 7 270 7 c 256,12,13
180 642 m 256,26,27
 203 642 203 642 203 663 c 2,28,-1
 203 670 l 2,29,30
 203 691 203 691 180 691 c 256,31,32
 157 691 157 691 157 670 c 2,33,-1
 157 663 l 2,34,35
 157 642 157 642 180 642 c 256,26,27
362 642 m 256,36,37
 385 642 385 642 385 663 c 2,38,-1
 385 670 l 2,39,40
 385 691 385 691 362 691 c 256,41,42
 339 691 339 691 339 670 c 2,43,-1
 339 663 l 2,44,45
 339 642 339 642 362 642 c 256,36,37
EndSplineSet
EndChar

StartChar: divide
Encoding: 247 247 182
Width: 600
Flags: W
LayerCount: 2
Fore
SplineSet
538 296 m 1,0,-1
 538 315 l 1,1,-1
 62 315 l 1,2,-1
 62 296 l 1,3,-1
 538 296 l 1,0,-1
300 81 m 256,4,5
 334 81 334 81 334 107 c 2,6,-1
 334 116 l 2,7,8
 334 143 334 143 300 143 c 256,9,10
 266 143 266 143 266 116 c 2,11,-1
 266 108 l 2,12,13
 266 81 266 81 300 81 c 256,4,5
300 468 m 256,14,15
 334 468 334 468 334 494 c 2,16,-1
 334 503 l 2,17,18
 334 530 334 530 300 530 c 256,19,20
 266 530 266 530 266 503 c 2,21,-1
 266 495 l 2,22,23
 266 468 266 468 300 468 c 256,14,15
EndSplineSet
EndChar

StartChar: oslash
Encoding: 248 248 183
Width: 546
Flags: W
LayerCount: 2
Fore
SplineSet
54 -26 m 1,0,-1
 119 54 l 1,1,2
 173 -12 173 -12 273 -12 c 256,3,4
 373 -12 373 -12 428 54.5 c 128,-1,5
 483 121 483 121 483 253 c 0,6,7
 483 375 483 375 434 442 c 1,8,-1
 506 531 l 1,9,-1
 492 542 l 1,10,-1
 423 457 l 1,11,12
 368 518 368 518 273 518 c 0,13,14
 173 518 173 518 118 451.5 c 128,-1,15
 63 385 63 385 63 253 c 0,16,17
 63 138 63 138 108 69 c 1,18,-1
 40 -15 l 1,19,-1
 54 -26 l 1,0,-1
273 7 m 0,20,21
 179 7 179 7 132 70 c 1,22,-1
 421 426 l 1,23,24
 460 370 460 370 460 277 c 2,25,-1
 460 229 l 2,26,27
 460 126 460 126 412 66.5 c 128,-1,28
 364 7 364 7 273 7 c 0,20,21
121 85 m 1,29,30
 86 141 86 141 86 229 c 2,31,-1
 86 277 l 2,32,33
 86 380 86 380 134 439.5 c 128,-1,34
 182 499 182 499 273 499 c 0,35,36
 363 499 363 499 410 441 c 1,37,-1
 121 85 l 1,29,30
EndSplineSet
EndChar

StartChar: ugrave
Encoding: 249 249 184
Width: 556
Flags: W
LayerCount: 2
Fore
SplineSet
269 -12 m 0,0,1
 337 -12 337 -12 375 14.5 c 128,-1,2
 413 41 413 41 427 76 c 1,3,-1
 430 76 l 1,4,-1
 430 0 l 1,5,-1
 451 0 l 1,6,-1
 451 506 l 1,7,-1
 430 506 l 1,8,-1
 430 144 l 2,9,10
 430 78 430 78 382 41 c 0,11,12
 333 7 333 7 271 7 c 0,13,14
 116 7 116 7 116 185 c 2,15,-1
 116 506 l 1,16,-1
 95 506 l 1,17,-1
 95 181 l 2,18,19
 95 -9 95 -9 269 -12 c 0,0,1
291 587 m 1,20,-1
 306 597 l 1,21,-1
 195 751 l 1,22,-1
 176 739 l 1,23,-1
 291 587 l 1,20,-1
EndSplineSet
EndChar

StartChar: uacute
Encoding: 250 250 185
Width: 556
Flags: W
LayerCount: 2
Fore
SplineSet
269 -12 m 0,0,1
 337 -12 337 -12 375 14.5 c 128,-1,2
 413 41 413 41 427 76 c 1,3,-1
 430 76 l 1,4,-1
 430 0 l 1,5,-1
 451 0 l 1,6,-1
 451 506 l 1,7,-1
 430 506 l 1,8,-1
 430 144 l 2,9,10
 430 78 430 78 382 41 c 0,11,12
 333 7 333 7 271 7 c 0,13,14
 116 7 116 7 116 185 c 2,15,-1
 116 506 l 1,16,-1
 95 506 l 1,17,-1
 95 181 l 2,18,19
 95 -9 95 -9 269 -12 c 0,0,1
256 587 m 1,20,-1
 371 739 l 1,21,-1
 352 751 l 1,22,-1
 241 597 l 1,23,-1
 256 587 l 1,20,-1
EndSplineSet
EndChar

StartChar: ucircumflex
Encoding: 251 251 186
Width: 556
Flags: W
LayerCount: 2
Fore
SplineSet
269 -12 m 0,0,1
 337 -12 337 -12 375 14.5 c 128,-1,2
 413 41 413 41 427 76 c 1,3,-1
 430 76 l 1,4,-1
 430 0 l 1,5,-1
 451 0 l 1,6,-1
 451 506 l 1,7,-1
 430 506 l 1,8,-1
 430 144 l 2,9,10
 430 78 430 78 382 41 c 0,11,12
 333 7 333 7 271 7 c 0,13,14
 116 7 116 7 116 185 c 2,15,-1
 116 506 l 1,16,-1
 95 506 l 1,17,-1
 95 181 l 2,18,19
 95 -9 95 -9 269 -12 c 0,0,1
400 599 m 1,20,-1
 414 610 l 1,21,-1
 286 743 l 1,22,-1
 262 743 l 1,23,-1
 134 610 l 1,24,-1
 148 599 l 1,25,-1
 274 726 l 1,26,-1
 400 599 l 1,20,-1
EndSplineSet
EndChar

StartChar: udieresis
Encoding: 252 252 187
Width: 556
Flags: W
LayerCount: 2
Fore
SplineSet
269 -12 m 0,0,1
 337 -12 337 -12 375 14.5 c 128,-1,2
 413 41 413 41 427 76 c 1,3,-1
 430 76 l 1,4,-1
 430 0 l 1,5,-1
 451 0 l 1,6,-1
 451 506 l 1,7,-1
 430 506 l 1,8,-1
 430 144 l 2,9,10
 430 78 430 78 382 41 c 0,11,12
 333 7 333 7 271 7 c 0,13,14
 116 7 116 7 116 185 c 2,15,-1
 116 506 l 1,16,-1
 95 506 l 1,17,-1
 95 181 l 2,18,19
 95 -9 95 -9 269 -12 c 0,0,1
183 642 m 256,20,21
 206 642 206 642 206 663 c 2,22,-1
 206 670 l 2,23,24
 206 691 206 691 183 691 c 256,25,26
 160 691 160 691 160 670 c 2,27,-1
 160 663 l 2,28,29
 160 642 160 642 183 642 c 256,20,21
365 642 m 256,30,31
 388 642 388 642 388 663 c 2,32,-1
 388 670 l 2,33,34
 388 691 388 691 365 691 c 256,35,36
 342 691 342 691 342 670 c 2,37,-1
 342 663 l 2,38,39
 342 642 342 642 365 642 c 256,30,31
EndSplineSet
EndChar

StartChar: yacute
Encoding: 253 253 188
Width: 452
Flags: W
LayerCount: 2
Fore
SplineSet
141 -200 m 2,0,1
 165 -200 165 -200 172 -181 c 2,2,-1
 427 506 l 1,3,-1
 406 506 l 1,4,-1
 228 24 l 1,5,-1
 225 24 l 1,6,-1
 47 506 l 1,7,-1
 25 506 l 1,8,-1
 216 -7 l 1,9,-1
 150 -181 l 1,10,-1
 57 -181 l 1,11,-1
 57 -200 l 1,12,-1
 141 -200 l 2,0,1
211 587 m 1,13,-1
 326 739 l 1,14,-1
 307 751 l 1,15,-1
 196 597 l 1,16,-1
 211 587 l 1,13,-1
EndSplineSet
EndChar

StartChar: thorn
Encoding: 254 254 189
Width: 565
Flags: W
LayerCount: 2
Fore
SplineSet
126 -200 m 1,0,-1
 126 78 l 1,1,-1
 129 78 l 1,2,3
 145 42 145 42 186 17 c 0,4,5
 227 -12 227 -12 293 -12 c 0,6,7
 393 -12 393 -12 449 54 c 128,-1,8
 505 120 505 120 505 253 c 256,9,10
 505 386 505 386 449 452 c 128,-1,11
 393 518 393 518 293 518 c 0,12,13
 232 518 232 518 186 490 c 0,14,15
 145 462 145 462 129 428 c 1,16,-1
 126 428 l 1,17,-1
 126 740 l 1,18,-1
 105 740 l 1,19,-1
 105 -200 l 1,20,-1
 126 -200 l 1,0,-1
293 7 m 0,21,22
 227 7 227 7 176.5 45 c 128,-1,23
 126 83 126 83 126 143 c 2,24,-1
 126 363 l 2,25,26
 126 423 126 423 176.5 461 c 128,-1,27
 227 499 227 499 293 499 c 0,28,29
 384 499 384 499 433 439.5 c 128,-1,30
 482 380 482 380 482 277 c 2,31,-1
 482 229 l 2,32,33
 482 126 482 126 433 66.5 c 128,-1,34
 384 7 384 7 293 7 c 0,21,22
EndSplineSet
EndChar

StartChar: ydieresis
Encoding: 255 255 190
Width: 452
Flags: W
LayerCount: 2
Fore
SplineSet
141 -200 m 2,0,1
 165 -200 165 -200 172 -181 c 2,2,-1
 427 506 l 1,3,-1
 406 506 l 1,4,-1
 228 24 l 1,5,-1
 225 24 l 1,6,-1
 47 506 l 1,7,-1
 25 506 l 1,8,-1
 216 -7 l 1,9,-1
 150 -181 l 1,10,-1
 57 -181 l 1,11,-1
 57 -200 l 1,12,-1
 141 -200 l 2,0,1
138 642 m 256,13,14
 161 642 161 642 161 663 c 2,15,-1
 161 670 l 2,16,17
 161 691 161 691 138 691 c 256,18,19
 115 691 115 691 115 670 c 2,20,-1
 115 663 l 2,21,22
 115 642 115 642 138 642 c 256,13,14
320 642 m 256,23,24
 343 642 343 642 343 663 c 2,25,-1
 343 670 l 2,26,27
 343 691 343 691 320 691 c 256,28,29
 297 691 297 691 297 670 c 2,30,-1
 297 663 l 2,31,32
 297 642 297 642 320 642 c 256,23,24
EndSplineSet
EndChar

StartChar: Amacron
Encoding: 256 256 191
Width: 600
Flags: W
LayerCount: 2
Fore
SplineSet
568 0 m 1,0,-1
 315 698 l 1,1,-1
 285 698 l 1,2,-1
 32 0 l 1,3,-1
 55 0 l 1,4,-1
 140 234 l 1,5,-1
 460 234 l 1,6,-1
 545 0 l 1,7,-1
 568 0 l 1,0,-1
453 253 m 1,8,-1
 147 253 l 1,9,-1
 298 675 l 1,10,-1
 301 675 l 1,11,-1
 453 253 l 1,8,-1
429 838 m 1,12,-1
 429 856 l 1,13,-1
 171 856 l 1,14,-1
 171 838 l 1,15,-1
 429 838 l 1,12,-1
EndSplineSet
EndChar

StartChar: amacron
Encoding: 257 257 192
Width: 509
Flags: W
LayerCount: 2
Fore
SplineSet
379 658 m 1,0,-1
 379 676 l 1,1,-1
 121 676 l 1,2,-1
 121 658 l 1,3,-1
 379 658 l 1,0,-1
224 -12 m 0,4,5
 146 -12 146 -12 103.5 24.5 c 128,-1,6
 61 61 61 61 61 130 c 256,7,8
 61 199 61 199 102 234 c 0,9,10
 149 275 149 275 251 275 c 2,11,-1
 393 275 l 1,12,-1
 393 349 l 2,13,14
 393 427 393 427 356.5 463 c 128,-1,15
 320 499 320 499 249 499 c 0,16,17
 135 499 135 499 96 404 c 1,18,-1
 78 412 l 1,19,20
 98 461 98 461 138 489.5 c 128,-1,21
 178 518 178 518 249 518 c 0,22,23
 414 518 414 518 414 356 c 2,24,-1
 414 0 l 1,25,-1
 393 0 l 1,26,-1
 393 77 l 1,27,-1
 390 77 l 1,28,29
 347 -12 347 -12 224 -12 c 0,4,5
224 7 m 0,30,31
 292 7 292 7 342.5 43.5 c 128,-1,32
 393 80 393 80 393 148 c 2,33,-1
 393 257 l 1,34,-1
 252 257 l 2,35,36
 163 257 163 257 123.5 226 c 128,-1,37
 84 195 84 195 84 145 c 2,38,-1
 84 115 l 2,39,40
 84 62 84 62 123 34.5 c 128,-1,41
 162 7 162 7 224 7 c 0,30,31
EndSplineSet
EndChar

StartChar: Abreve
Encoding: 258 258 193
Width: 600
Flags: W
LayerCount: 2
Fore
SplineSet
568 0 m 1,0,-1
 315 698 l 1,1,-1
 285 698 l 1,2,-1
 32 0 l 1,3,-1
 55 0 l 1,4,-1
 140 234 l 1,5,-1
 460 234 l 1,6,-1
 545 0 l 1,7,-1
 568 0 l 1,0,-1
453 253 m 1,8,-1
 147 253 l 1,9,-1
 298 675 l 1,10,-1
 301 675 l 1,11,-1
 453 253 l 1,8,-1
300 786 m 0,12,13
 350 786 350 786 377 816 c 128,-1,14
 404 846 404 846 428 895 c 2,15,-1
 432 903 l 1,16,-1
 416 910 l 1,17,-1
 401 883 l 2,18,19
 376 836 376 836 354 820.5 c 128,-1,20
 332 805 332 805 300 805 c 0,21,22
 266 805 266 805 247 821 c 0,23,24
 224 836 224 836 199 883 c 2,25,-1
 184 910 l 1,26,-1
 168 903 l 1,27,-1
 172 895 l 2,28,29
 196 846 196 846 222 816 c 128,-1,30
 248 786 248 786 300 786 c 0,12,13
EndSplineSet
EndChar

StartChar: abreve
Encoding: 259 259 194
Width: 509
Flags: W
LayerCount: 2
Fore
SplineSet
250 606 m 0,0,1
 300 606 300 606 327 636 c 128,-1,2
 354 666 354 666 378 715 c 2,3,-1
 382 723 l 1,4,-1
 366 730 l 1,5,-1
 351 703 l 2,6,7
 326 656 326 656 304 640.5 c 128,-1,8
 282 625 282 625 250 625 c 0,9,10
 216 625 216 625 197 641 c 0,11,12
 174 656 174 656 149 703 c 2,13,-1
 134 730 l 1,14,-1
 118 723 l 1,15,-1
 122 715 l 2,16,17
 146 666 146 666 172 636 c 128,-1,18
 198 606 198 606 250 606 c 0,0,1
224 -12 m 0,19,20
 146 -12 146 -12 103.5 24.5 c 128,-1,21
 61 61 61 61 61 130 c 256,22,23
 61 199 61 199 102 234 c 0,24,25
 149 275 149 275 251 275 c 2,26,-1
 393 275 l 1,27,-1
 393 349 l 2,28,29
 393 427 393 427 356.5 463 c 128,-1,30
 320 499 320 499 249 499 c 0,31,32
 135 499 135 499 96 404 c 1,33,-1
 78 412 l 1,34,35
 98 461 98 461 138 489.5 c 128,-1,36
 178 518 178 518 249 518 c 0,37,38
 414 518 414 518 414 356 c 2,39,-1
 414 0 l 1,40,-1
 393 0 l 1,41,-1
 393 77 l 1,42,-1
 390 77 l 1,43,44
 347 -12 347 -12 224 -12 c 0,19,20
224 7 m 0,45,46
 292 7 292 7 342.5 43.5 c 128,-1,47
 393 80 393 80 393 148 c 2,48,-1
 393 257 l 1,49,-1
 252 257 l 2,50,51
 163 257 163 257 123.5 226 c 128,-1,52
 84 195 84 195 84 145 c 2,53,-1
 84 115 l 2,54,55
 84 62 84 62 123 34.5 c 128,-1,56
 162 7 162 7 224 7 c 0,45,46
EndSplineSet
EndChar

StartChar: Aogonek
Encoding: 260 260 195
Width: 600
Flags: W
LayerCount: 2
Fore
SplineSet
517 -202 m 0,0,1
 571 -202 571 -202 592 -170 c 1,2,-1
 578 -159 l 1,3,4
 557 -184 557 -184 518 -184 c 0,5,6
 492 -184 492 -184 475.5 -171.5 c 128,-1,7
 459 -159 459 -159 459 -132 c 0,8,9
 459 -94 459 -94 486.5 -64.5 c 128,-1,10
 514 -35 514 -35 568 0 c 1,11,-1
 315 698 l 1,12,-1
 285 698 l 1,13,-1
 32 0 l 1,14,-1
 55 0 l 1,15,-1
 140 234 l 1,16,-1
 461 234 l 1,17,-1
 545 0 l 1,18,19
 482 -36 482 -36 459.5 -69.5 c 128,-1,20
 437 -103 437 -103 437 -133 c 0,21,22
 437 -166 437 -166 460 -184 c 128,-1,23
 483 -202 483 -202 517 -202 c 0,0,1
454 253 m 1,24,-1
 147 253 l 1,25,-1
 298 675 l 1,26,-1
 301 675 l 1,27,-1
 454 253 l 1,24,-1
EndSplineSet
EndChar

StartChar: aogonek
Encoding: 261 261 196
Width: 509
Flags: W
LayerCount: 2
Fore
SplineSet
383 -202 m 0,0,1
 349 -202 349 -202 326.5 -184 c 128,-1,2
 304 -166 304 -166 304 -133 c 0,3,4
 304 -98 304 -98 325 -67.5 c 128,-1,5
 346 -37 346 -37 393 0 c 1,6,-1
 393 77 l 1,7,-1
 390 77 l 1,8,9
 347 -12 347 -12 224 -12 c 0,10,11
 146 -12 146 -12 103.5 24.5 c 128,-1,12
 61 61 61 61 61 130 c 256,13,14
 61 199 61 199 102 234 c 0,15,16
 149 275 149 275 251 275 c 2,17,-1
 393 275 l 1,18,-1
 393 349 l 2,19,20
 393 427 393 427 356.5 463 c 128,-1,21
 320 499 320 499 249 499 c 0,22,23
 135 499 135 499 96 404 c 1,24,-1
 78 412 l 1,25,26
 98 461 98 461 138 489.5 c 128,-1,27
 178 518 178 518 249 518 c 0,28,29
 414 518 414 518 414 356 c 2,30,-1
 414 0 l 1,31,32
 370 -40 370 -40 347.5 -68 c 128,-1,33
 325 -96 325 -96 325 -130 c 0,34,35
 325 -158 325 -158 341.5 -171 c 128,-1,36
 358 -184 358 -184 384 -184 c 0,37,38
 422 -184 422 -184 444 -159 c 1,39,-1
 458 -170 l 1,40,41
 437 -202 437 -202 383 -202 c 0,0,1
224 7 m 0,42,43
 292 7 292 7 342.5 43.5 c 128,-1,44
 393 80 393 80 393 148 c 2,45,-1
 393 257 l 1,46,-1
 252 257 l 2,47,48
 163 257 163 257 123.5 226 c 128,-1,49
 84 195 84 195 84 145 c 2,50,-1
 84 115 l 2,51,52
 84 62 84 62 123 34.5 c 128,-1,53
 162 7 162 7 224 7 c 0,42,43
EndSplineSet
EndChar

StartChar: Cacute
Encoding: 262 262 197
Width: 610
Flags: W
LayerCount: 2
Fore
SplineSet
329 -12 m 0,0,1
 410 -12 410 -12 466.5 29 c 128,-1,2
 523 70 523 70 550 140 c 1,3,-1
 531 148 l 1,4,5
 505 82 505 82 454.5 45 c 128,-1,6
 404 8 404 8 329 8 c 0,7,8
 219 8 219 8 156.5 87 c 128,-1,9
 94 166 94 166 94 328 c 2,10,-1
 94 370 l 2,11,12
 94 532 94 532 156.5 611 c 128,-1,13
 219 690 219 690 329 690 c 0,14,15
 467 690 467 690 526 558 c 1,16,-1
 545 567 l 1,17,18
 516 632 516 632 461 671 c 128,-1,19
 406 710 406 710 329 710 c 0,20,21
 204 710 204 710 137 620 c 128,-1,22
 70 530 70 530 70 349 c 256,23,24
 70 168 70 168 137 78 c 128,-1,25
 204 -12 204 -12 329 -12 c 0,0,1
311 767 m 1,26,-1
 426 919 l 1,27,-1
 407 931 l 1,28,-1
 296 777 l 1,29,-1
 311 767 l 1,26,-1
EndSplineSet
EndChar

StartChar: cacute
Encoding: 263 263 198
Width: 487
Flags: W
LayerCount: 2
Fore
SplineSet
270 -12 m 0,0,1
 390 -12 390 -12 444 84 c 1,2,-1
 428 95 l 1,3,4
 405 53 405 53 367 30 c 128,-1,5
 329 7 329 7 270 7 c 0,6,7
 179 7 179 7 131 66.5 c 128,-1,8
 83 126 83 126 83 229 c 2,9,-1
 83 277 l 2,10,11
 83 380 83 380 131 439.5 c 128,-1,12
 179 499 179 499 270 499 c 0,13,14
 324 499 324 499 359 476 c 128,-1,15
 394 453 394 453 417 409 c 1,16,-1
 435 418 l 1,17,18
 384 518 384 518 270 518 c 0,19,20
 170 518 170 518 115 451.5 c 128,-1,21
 60 385 60 385 60 253 c 256,22,23
 60 121 60 121 115 54.5 c 128,-1,24
 170 -12 170 -12 270 -12 c 0,0,1
253 587 m 1,25,-1
 368 739 l 1,26,-1
 349 751 l 1,27,-1
 238 597 l 1,28,-1
 253 587 l 1,25,-1
EndSplineSet
EndChar

StartChar: Ccircumflex
Encoding: 264 264 199
Width: 610
Flags: W
LayerCount: 2
Fore
SplineSet
329 -12 m 0,0,1
 410 -12 410 -12 466.5 29 c 128,-1,2
 523 70 523 70 550 140 c 1,3,-1
 531 148 l 1,4,5
 505 82 505 82 454.5 45 c 128,-1,6
 404 8 404 8 329 8 c 0,7,8
 219 8 219 8 156.5 87 c 128,-1,9
 94 166 94 166 94 328 c 2,10,-1
 94 370 l 2,11,12
 94 532 94 532 156.5 611 c 128,-1,13
 219 690 219 690 329 690 c 0,14,15
 467 690 467 690 526 558 c 1,16,-1
 545 567 l 1,17,18
 516 632 516 632 461 671 c 128,-1,19
 406 710 406 710 329 710 c 0,20,21
 204 710 204 710 137 620 c 128,-1,22
 70 530 70 530 70 349 c 256,23,24
 70 168 70 168 137 78 c 128,-1,25
 204 -12 204 -12 329 -12 c 0,0,1
455 779 m 1,26,-1
 469 790 l 1,27,-1
 341 923 l 1,28,-1
 317 923 l 1,29,-1
 189 790 l 1,30,-1
 203 779 l 1,31,-1
 329 906 l 1,32,-1
 455 779 l 1,26,-1
EndSplineSet
EndChar

StartChar: ccircumflex
Encoding: 265 265 200
Width: 487
Flags: W
LayerCount: 2
Fore
SplineSet
270 -12 m 0,0,1
 390 -12 390 -12 444 84 c 1,2,-1
 428 95 l 1,3,4
 405 53 405 53 367 30 c 128,-1,5
 329 7 329 7 270 7 c 0,6,7
 179 7 179 7 131 66.5 c 128,-1,8
 83 126 83 126 83 229 c 2,9,-1
 83 277 l 2,10,11
 83 380 83 380 131 439.5 c 128,-1,12
 179 499 179 499 270 499 c 0,13,14
 324 499 324 499 359 476 c 128,-1,15
 394 453 394 453 417 409 c 1,16,-1
 435 418 l 1,17,18
 384 518 384 518 270 518 c 0,19,20
 170 518 170 518 115 451.5 c 128,-1,21
 60 385 60 385 60 253 c 256,22,23
 60 121 60 121 115 54.5 c 128,-1,24
 170 -12 170 -12 270 -12 c 0,0,1
397 599 m 1,25,-1
 411 610 l 1,26,-1
 283 743 l 1,27,-1
 259 743 l 1,28,-1
 131 610 l 1,29,-1
 145 599 l 1,30,-1
 271 726 l 1,31,-1
 397 599 l 1,25,-1
EndSplineSet
EndChar

StartChar: Cdot
Encoding: 266 266 201
Width: 610
Flags: W
LayerCount: 2
Fore
SplineSet
329 -12 m 0,0,1
 410 -12 410 -12 466.5 29 c 128,-1,2
 523 70 523 70 550 140 c 1,3,-1
 531 148 l 1,4,5
 505 82 505 82 454.5 45 c 128,-1,6
 404 8 404 8 329 8 c 0,7,8
 219 8 219 8 156.5 87 c 128,-1,9
 94 166 94 166 94 328 c 2,10,-1
 94 370 l 2,11,12
 94 532 94 532 156.5 611 c 128,-1,13
 219 690 219 690 329 690 c 0,14,15
 467 690 467 690 526 558 c 1,16,-1
 545 567 l 1,17,18
 516 632 516 632 461 671 c 128,-1,19
 406 710 406 710 329 710 c 0,20,21
 204 710 204 710 137 620 c 128,-1,22
 70 530 70 530 70 349 c 256,23,24
 70 168 70 168 137 78 c 128,-1,25
 204 -12 204 -12 329 -12 c 0,0,1
329 822 m 256,26,27
 352 822 352 822 352 843 c 2,28,-1
 352 850 l 2,29,30
 352 871 352 871 329 871 c 256,31,32
 306 871 306 871 306 850 c 2,33,-1
 306 843 l 2,34,35
 306 822 306 822 329 822 c 256,26,27
EndSplineSet
EndChar

StartChar: cdot
Encoding: 267 267 202
Width: 487
Flags: W
LayerCount: 2
Fore
SplineSet
270 -12 m 0,0,1
 390 -12 390 -12 444 84 c 1,2,-1
 428 95 l 1,3,4
 405 53 405 53 367 30 c 128,-1,5
 329 7 329 7 270 7 c 0,6,7
 179 7 179 7 131 66.5 c 128,-1,8
 83 126 83 126 83 229 c 2,9,-1
 83 277 l 2,10,11
 83 380 83 380 131 439.5 c 128,-1,12
 179 499 179 499 270 499 c 0,13,14
 324 499 324 499 359 476 c 128,-1,15
 394 453 394 453 417 409 c 1,16,-1
 435 418 l 1,17,18
 384 518 384 518 270 518 c 0,19,20
 170 518 170 518 115 451.5 c 128,-1,21
 60 385 60 385 60 253 c 256,22,23
 60 121 60 121 115 54.5 c 128,-1,24
 170 -12 170 -12 270 -12 c 0,0,1
271 642 m 256,25,26
 294 642 294 642 294 663 c 2,27,-1
 294 670 l 2,28,29
 294 691 294 691 271 691 c 256,30,31
 248 691 248 691 248 670 c 2,32,-1
 248 663 l 2,33,34
 248 642 248 642 271 642 c 256,25,26
EndSplineSet
EndChar

StartChar: Ccaron
Encoding: 268 268 203
Width: 610
Flags: W
LayerCount: 2
Fore
SplineSet
329 -12 m 0,0,1
 410 -12 410 -12 466.5 29 c 128,-1,2
 523 70 523 70 550 140 c 1,3,-1
 531 148 l 1,4,5
 505 82 505 82 454.5 45 c 128,-1,6
 404 8 404 8 329 8 c 0,7,8
 219 8 219 8 156.5 87 c 128,-1,9
 94 166 94 166 94 328 c 2,10,-1
 94 370 l 2,11,12
 94 532 94 532 156.5 611 c 128,-1,13
 219 690 219 690 329 690 c 0,14,15
 467 690 467 690 526 558 c 1,16,-1
 545 567 l 1,17,18
 516 632 516 632 461 671 c 128,-1,19
 406 710 406 710 329 710 c 0,20,21
 204 710 204 710 137 620 c 128,-1,22
 70 530 70 530 70 349 c 256,23,24
 70 168 70 168 137 78 c 128,-1,25
 204 -12 204 -12 329 -12 c 0,0,1
341 783 m 1,26,-1
 469 916 l 1,27,-1
 455 927 l 1,28,-1
 329 800 l 1,29,-1
 203 927 l 1,30,-1
 189 916 l 1,31,-1
 317 783 l 1,32,-1
 341 783 l 1,26,-1
EndSplineSet
EndChar

StartChar: ccaron
Encoding: 269 269 204
Width: 487
Flags: W
LayerCount: 2
Fore
SplineSet
270 -12 m 0,0,1
 390 -12 390 -12 444 84 c 1,2,-1
 428 95 l 1,3,4
 405 53 405 53 367 30 c 128,-1,5
 329 7 329 7 270 7 c 0,6,7
 179 7 179 7 131 66.5 c 128,-1,8
 83 126 83 126 83 229 c 2,9,-1
 83 277 l 2,10,11
 83 380 83 380 131 439.5 c 128,-1,12
 179 499 179 499 270 499 c 0,13,14
 324 499 324 499 359 476 c 128,-1,15
 394 453 394 453 417 409 c 1,16,-1
 435 418 l 1,17,18
 384 518 384 518 270 518 c 0,19,20
 170 518 170 518 115 451.5 c 128,-1,21
 60 385 60 385 60 253 c 256,22,23
 60 121 60 121 115 54.5 c 128,-1,24
 170 -12 170 -12 270 -12 c 0,0,1
283 603 m 1,25,-1
 411 736 l 1,26,-1
 397 747 l 1,27,-1
 271 620 l 1,28,-1
 145 747 l 1,29,-1
 131 736 l 1,30,-1
 259 603 l 1,31,-1
 283 603 l 1,25,-1
EndSplineSet
EndChar

StartChar: Dcaron
Encoding: 270 270 205
Width: 658
Flags: W
LayerCount: 2
Fore
SplineSet
312 0 m 2,0,1
 452 0 452 0 520 87.5 c 128,-1,2
 588 175 588 175 588 349 c 256,3,4
 588 523 588 523 520 610.5 c 128,-1,5
 452 698 452 698 312 698 c 2,6,-1
 108 698 l 1,7,-1
 108 0 l 1,8,-1
 312 0 l 2,0,1
313 20 m 2,9,-1
 130 20 l 1,10,-1
 130 678 l 1,11,-1
 313 678 l 2,12,13
 440 678 440 678 504 596 c 0,14,15
 564 516 564 516 564 379 c 2,16,-1
 564 319 l 2,17,18
 564 183 564 183 504 102 c 0,19,20
 440 20 440 20 313 20 c 2,9,-1
312 783 m 1,21,-1
 440 916 l 1,22,-1
 426 927 l 1,23,-1
 300 800 l 1,24,-1
 174 927 l 1,25,-1
 160 916 l 1,26,-1
 288 783 l 1,27,-1
 312 783 l 1,21,-1
EndSplineSet
EndChar

StartChar: dcaron
Encoding: 271 271 206
Width: 565
Flags: W
LayerCount: 2
Fore
SplineSet
272 -12 m 0,0,1
 338 -12 338 -12 380 17 c 0,2,3
 420 42 420 42 436 78 c 1,4,-1
 439 78 l 1,5,-1
 439 0 l 1,6,-1
 460 0 l 1,7,-1
 460 740 l 1,8,-1
 439 740 l 1,9,-1
 439 428 l 1,10,-1
 436 428 l 1,11,12
 420 462 420 462 380 490 c 1,13,14
 332 518 332 518 272 518 c 0,15,16
 172 518 172 518 116 452 c 128,-1,17
 60 386 60 386 60 253 c 256,18,19
 60 120 60 120 116 54 c 128,-1,20
 172 -12 172 -12 272 -12 c 0,0,1
272 7 m 0,21,22
 181 7 181 7 132 66.5 c 128,-1,23
 83 126 83 126 83 229 c 2,24,-1
 83 277 l 2,25,26
 83 380 83 380 132 439.5 c 128,-1,27
 181 499 181 499 272 499 c 0,28,29
 338 499 338 499 388.5 461 c 128,-1,30
 439 423 439 423 439 363 c 2,31,-1
 439 143 l 2,32,33
 439 83 439 83 388.5 45 c 128,-1,34
 338 7 338 7 272 7 c 0,21,22
565 564 m 1,35,-1
 589 740 l 1,36,-1
 564 740 l 1,37,-1
 548 564 l 1,38,-1
 565 564 l 1,35,-1
EndSplineSet
EndChar

StartChar: Dcroat
Encoding: 272 272 207
Width: 661
Flags: W
LayerCount: 2
Fore
SplineSet
315 0 m 2,0,1
 455 0 455 0 523 87.5 c 128,-1,2
 591 175 591 175 591 349 c 256,3,4
 591 523 591 523 523 610.5 c 128,-1,5
 455 698 455 698 315 698 c 2,6,-1
 111 698 l 1,7,-1
 111 378 l 1,8,-1
 28 378 l 1,9,-1
 28 359 l 1,10,-1
 111 359 l 1,11,-1
 111 0 l 1,12,-1
 315 0 l 2,0,1
316 20 m 2,13,-1
 133 20 l 1,14,-1
 133 359 l 1,15,-1
 305 359 l 1,16,-1
 305 378 l 1,17,-1
 133 378 l 1,18,-1
 133 678 l 1,19,-1
 316 678 l 2,20,21
 443 678 443 678 507 596 c 0,22,23
 567 516 567 516 567 379 c 2,24,-1
 567 319 l 2,25,26
 567 183 567 183 507 102 c 0,27,28
 443 20 443 20 316 20 c 2,13,-1
EndSplineSet
EndChar

StartChar: dcroat
Encoding: 273 273 208
Width: 568
Flags: W
LayerCount: 2
Fore
SplineSet
272 -12 m 0,0,1
 338 -12 338 -12 380 17 c 0,2,3
 420 42 420 42 436 78 c 1,4,-1
 439 78 l 1,5,-1
 439 0 l 1,6,-1
 460 0 l 1,7,-1
 460 629 l 1,8,-1
 526 629 l 1,9,-1
 526 647 l 1,10,-1
 460 647 l 1,11,-1
 460 740 l 1,12,-1
 439 740 l 1,13,-1
 439 647 l 1,14,-1
 276 647 l 1,15,-1
 276 629 l 1,16,-1
 439 629 l 1,17,-1
 439 428 l 1,18,-1
 436 428 l 1,19,20
 420 462 420 462 380 490 c 1,21,22
 332 518 332 518 272 518 c 0,23,24
 172 518 172 518 116 452 c 128,-1,25
 60 386 60 386 60 253 c 256,26,27
 60 120 60 120 116 54 c 128,-1,28
 172 -12 172 -12 272 -12 c 0,0,1
272 7 m 0,29,30
 181 7 181 7 132 66.5 c 128,-1,31
 83 126 83 126 83 229 c 2,32,-1
 83 277 l 2,33,34
 83 380 83 380 132 439.5 c 128,-1,35
 181 499 181 499 272 499 c 0,36,37
 338 499 338 499 388.5 461 c 128,-1,38
 439 423 439 423 439 363 c 2,39,-1
 439 143 l 2,40,41
 439 83 439 83 388.5 45 c 128,-1,42
 338 7 338 7 272 7 c 0,29,30
EndSplineSet
EndChar

StartChar: Emacron
Encoding: 274 274 209
Width: 561
Flags: W
LayerCount: 2
Fore
SplineSet
489 0 m 1,0,-1
 489 20 l 1,1,-1
 130 20 l 1,2,-1
 130 344 l 1,3,-1
 477 344 l 1,4,-1
 477 364 l 1,5,-1
 130 364 l 1,6,-1
 130 678 l 1,7,-1
 489 678 l 1,8,-1
 489 698 l 1,9,-1
 108 698 l 1,10,-1
 108 0 l 1,11,-1
 489 0 l 1,0,-1
429 838 m 1,12,-1
 429 856 l 1,13,-1
 171 856 l 1,14,-1
 171 838 l 1,15,-1
 429 838 l 1,12,-1
EndSplineSet
EndChar

StartChar: emacron
Encoding: 275 275 210
Width: 533
Flags: W
LayerCount: 2
Fore
SplineSet
272 -12 m 0,0,1
 345 -12 345 -12 393.5 24 c 128,-1,2
 442 60 442 60 465 124 c 1,3,-1
 447 131 l 1,4,5
 400 7 400 7 272 7 c 0,6,7
 181 7 181 7 132 66.5 c 128,-1,8
 83 126 83 126 83 229 c 2,9,-1
 83 256 l 1,10,-1
 473 256 l 1,11,-1
 473 266 l 2,12,13
 473 382 473 382 416.5 450 c 128,-1,14
 360 518 360 518 268 518 c 0,15,16
 170 518 170 518 115 451 c 128,-1,17
 60 384 60 384 60 253 c 0,18,19
 60 121 60 121 116 54.5 c 128,-1,20
 172 -12 172 -12 272 -12 c 0,0,1
450 275 m 1,21,-1
 83 275 l 1,22,23
 83 380 83 380 131 439.5 c 128,-1,24
 179 499 179 499 268 499 c 0,25,26
 351 499 351 499 400.5 439.5 c 128,-1,27
 450 380 450 380 450 275 c 1,21,-1
398 658 m 1,28,-1
 398 676 l 1,29,-1
 140 676 l 1,30,-1
 140 658 l 1,31,-1
 398 658 l 1,28,-1
EndSplineSet
EndChar

StartChar: Ebreve
Encoding: 276 276 211
Width: 561
Flags: W
LayerCount: 2
Fore
SplineSet
489 0 m 1,0,-1
 489 20 l 1,1,-1
 130 20 l 1,2,-1
 130 344 l 1,3,-1
 477 344 l 1,4,-1
 477 364 l 1,5,-1
 130 364 l 1,6,-1
 130 678 l 1,7,-1
 489 678 l 1,8,-1
 489 698 l 1,9,-1
 108 698 l 1,10,-1
 108 0 l 1,11,-1
 489 0 l 1,0,-1
300 786 m 0,12,13
 350 786 350 786 377 816 c 128,-1,14
 404 846 404 846 428 895 c 2,15,-1
 432 903 l 1,16,-1
 416 910 l 1,17,-1
 401 883 l 2,18,19
 376 836 376 836 354 820.5 c 128,-1,20
 332 805 332 805 300 805 c 0,21,22
 266 805 266 805 247 821 c 0,23,24
 224 836 224 836 199 883 c 2,25,-1
 184 910 l 1,26,-1
 168 903 l 1,27,-1
 172 895 l 2,28,29
 196 846 196 846 222 816 c 128,-1,30
 248 786 248 786 300 786 c 0,12,13
EndSplineSet
EndChar

StartChar: ebreve
Encoding: 277 277 212
Width: 533
Flags: W
LayerCount: 2
Fore
SplineSet
272 -12 m 0,0,1
 345 -12 345 -12 393.5 24 c 128,-1,2
 442 60 442 60 465 124 c 1,3,-1
 447 131 l 1,4,5
 400 7 400 7 272 7 c 0,6,7
 181 7 181 7 132 66.5 c 128,-1,8
 83 126 83 126 83 229 c 2,9,-1
 83 256 l 1,10,-1
 473 256 l 1,11,-1
 473 266 l 2,12,13
 473 382 473 382 416.5 450 c 128,-1,14
 360 518 360 518 268 518 c 0,15,16
 170 518 170 518 115 451 c 128,-1,17
 60 384 60 384 60 253 c 0,18,19
 60 121 60 121 116 54.5 c 128,-1,20
 172 -12 172 -12 272 -12 c 0,0,1
450 275 m 1,21,-1
 83 275 l 1,22,23
 83 380 83 380 131 439.5 c 128,-1,24
 179 499 179 499 268 499 c 0,25,26
 351 499 351 499 400.5 439.5 c 128,-1,27
 450 380 450 380 450 275 c 1,21,-1
269 606 m 0,28,29
 319 606 319 606 346 636 c 128,-1,30
 373 666 373 666 397 715 c 2,31,-1
 401 723 l 1,32,-1
 385 730 l 1,33,-1
 370 703 l 2,34,35
 345 656 345 656 323 640.5 c 128,-1,36
 301 625 301 625 269 625 c 0,37,38
 235 625 235 625 216 641 c 0,39,40
 193 656 193 656 168 703 c 2,41,-1
 153 730 l 1,42,-1
 137 723 l 1,43,-1
 141 715 l 2,44,45
 165 666 165 666 191 636 c 128,-1,46
 217 606 217 606 269 606 c 0,28,29
EndSplineSet
EndChar

StartChar: Edot
Encoding: 278 278 213
Width: 561
GlyphClass: 3
Flags: W
LayerCount: 2
Fore
SplineSet
489 0 m 1,0,-1
 489 20 l 1,1,-1
 130 20 l 1,2,-1
 130 344 l 1,3,-1
 477 344 l 1,4,-1
 477 364 l 1,5,-1
 130 364 l 1,6,-1
 130 678 l 1,7,-1
 489 678 l 1,8,-1
 489 698 l 1,9,-1
 108 698 l 1,10,-1
 108 0 l 1,11,-1
 489 0 l 1,0,-1
300 822 m 256,12,13
 323 822 323 822 323 843 c 2,14,-1
 323 850 l 2,15,16
 323 871 323 871 300 871 c 256,17,18
 277 871 277 871 277 850 c 2,19,-1
 277 843 l 2,20,21
 277 822 277 822 300 822 c 256,12,13
EndSplineSet
EndChar

StartChar: edot
Encoding: 279 279 214
Width: 533
GlyphClass: 3
Flags: W
LayerCount: 2
Fore
SplineSet
272 -12 m 0,0,1
 345 -12 345 -12 393.5 24 c 128,-1,2
 442 60 442 60 465 124 c 1,3,-1
 447 131 l 1,4,5
 400 7 400 7 272 7 c 0,6,7
 181 7 181 7 132 66.5 c 128,-1,8
 83 126 83 126 83 229 c 2,9,-1
 83 256 l 1,10,-1
 473 256 l 1,11,-1
 473 266 l 2,12,13
 473 382 473 382 416.5 450 c 128,-1,14
 360 518 360 518 268 518 c 0,15,16
 170 518 170 518 115 451 c 128,-1,17
 60 384 60 384 60 253 c 0,18,19
 60 121 60 121 116 54.5 c 128,-1,20
 172 -12 172 -12 272 -12 c 0,0,1
450 275 m 1,21,-1
 83 275 l 1,22,23
 83 380 83 380 131 439.5 c 128,-1,24
 179 499 179 499 268 499 c 0,25,26
 351 499 351 499 400.5 439.5 c 128,-1,27
 450 380 450 380 450 275 c 1,21,-1
269 642 m 256,28,29
 292 642 292 642 292 663 c 2,30,-1
 292 670 l 2,31,32
 292 691 292 691 269 691 c 256,33,34
 246 691 246 691 246 670 c 2,35,-1
 246 663 l 2,36,37
 246 642 246 642 269 642 c 256,28,29
EndSplineSet
EndChar

StartChar: Eogonek
Encoding: 280 280 215
Width: 561
Flags: W
LayerCount: 2
Fore
SplineSet
428 -202 m 0,0,1
 482 -202 482 -202 503 -170 c 1,2,-1
 489 -159 l 1,3,4
 468 -184 468 -184 429 -184 c 0,5,6
 370 -184 370 -184 370 -132 c 0,7,8
 370 -95 370 -95 400 -66 c 128,-1,9
 430 -37 430 -37 489 0 c 1,10,-1
 489 20 l 1,11,-1
 130 20 l 1,12,-1
 130 344 l 1,13,-1
 477 344 l 1,14,-1
 477 364 l 1,15,-1
 130 364 l 1,16,-1
 130 678 l 1,17,-1
 489 678 l 1,18,-1
 489 698 l 1,19,-1
 108 698 l 1,20,-1
 108 0 l 1,21,-1
 460 0 l 1,22,-1
 461 -3 l 1,23,24
 396 -41 396 -41 372.5 -73.5 c 128,-1,25
 349 -106 349 -106 349 -135 c 0,26,27
 349 -168 349 -168 371.5 -185 c 128,-1,28
 394 -202 394 -202 428 -202 c 0,0,1
EndSplineSet
EndChar

StartChar: eogonek
Encoding: 281 281 216
Width: 533
Flags: W
LayerCount: 2
Fore
SplineSet
313 -202 m 0,0,1
 367 -202 367 -202 388 -170 c 1,2,-1
 374 -159 l 1,3,4
 353 -184 353 -184 314 -184 c 0,5,6
 255 -184 255 -184 255 -130 c 0,7,8
 255 -89 255 -89 285 -56.5 c 128,-1,9
 315 -24 315 -24 376.5 14 c 128,-1,10
 438 52 438 52 465 124 c 1,11,-1
 447 131 l 1,12,13
 400 7 400 7 272 7 c 0,14,15
 181 7 181 7 132 66.5 c 128,-1,16
 83 126 83 126 83 229 c 2,17,-1
 83 256 l 1,18,-1
 473 256 l 1,19,-1
 473 266 l 2,20,21
 473 382 473 382 416.5 450 c 128,-1,22
 360 518 360 518 268 518 c 0,23,24
 170 518 170 518 115 451 c 128,-1,25
 60 384 60 384 60 253 c 0,26,27
 60 121 60 121 116 54.5 c 128,-1,28
 172 -12 172 -12 272 -12 c 0,29,30
 301 -12 301 -12 324 -6 c 1,31,-1
 325 -8 l 1,32,33
 270 -42 270 -42 251 -74 c 0,34,35
 234 -107 234 -107 234 -133 c 0,36,37
 234 -167 234 -167 256.5 -184.5 c 128,-1,38
 279 -202 279 -202 313 -202 c 0,0,1
450 275 m 1,39,-1
 83 275 l 1,40,41
 83 380 83 380 131 439.5 c 128,-1,42
 179 499 179 499 268 499 c 0,43,44
 351 499 351 499 400.5 439.5 c 128,-1,45
 450 380 450 380 450 275 c 1,39,-1
EndSplineSet
EndChar

StartChar: Ecaron
Encoding: 282 282 217
Width: 561
Flags: W
LayerCount: 2
Fore
SplineSet
489 0 m 1,0,-1
 489 20 l 1,1,-1
 130 20 l 1,2,-1
 130 344 l 1,3,-1
 477 344 l 1,4,-1
 477 364 l 1,5,-1
 130 364 l 1,6,-1
 130 678 l 1,7,-1
 489 678 l 1,8,-1
 489 698 l 1,9,-1
 108 698 l 1,10,-1
 108 0 l 1,11,-1
 489 0 l 1,0,-1
312 783 m 1,12,-1
 440 916 l 1,13,-1
 426 927 l 1,14,-1
 300 800 l 1,15,-1
 174 927 l 1,16,-1
 160 916 l 1,17,-1
 288 783 l 1,18,-1
 312 783 l 1,12,-1
EndSplineSet
EndChar

StartChar: ecaron
Encoding: 283 283 218
Width: 533
Flags: W
LayerCount: 2
Fore
SplineSet
272 -12 m 0,0,1
 345 -12 345 -12 393.5 24 c 128,-1,2
 442 60 442 60 465 124 c 1,3,-1
 447 131 l 1,4,5
 400 7 400 7 272 7 c 0,6,7
 181 7 181 7 132 66.5 c 128,-1,8
 83 126 83 126 83 229 c 2,9,-1
 83 256 l 1,10,-1
 473 256 l 1,11,-1
 473 266 l 2,12,13
 473 382 473 382 416.5 450 c 128,-1,14
 360 518 360 518 268 518 c 0,15,16
 170 518 170 518 115 451 c 128,-1,17
 60 384 60 384 60 253 c 0,18,19
 60 121 60 121 116 54.5 c 128,-1,20
 172 -12 172 -12 272 -12 c 0,0,1
450 275 m 1,21,-1
 83 275 l 1,22,23
 83 380 83 380 131 439.5 c 128,-1,24
 179 499 179 499 268 499 c 0,25,26
 351 499 351 499 400.5 439.5 c 128,-1,27
 450 380 450 380 450 275 c 1,21,-1
281 603 m 1,28,-1
 409 736 l 1,29,-1
 395 747 l 1,30,-1
 269 620 l 1,31,-1
 143 747 l 1,32,-1
 129 736 l 1,33,-1
 257 603 l 1,34,-1
 281 603 l 1,28,-1
EndSplineSet
EndChar

StartChar: Gcircumflex
Encoding: 284 284 219
Width: 666
Flags: W
LayerCount: 2
Fore
SplineSet
340 -12 m 0,0,1
 502 -12 502 -12 562 114 c 1,2,-1
 565 114 l 1,3,-1
 565 0 l 1,4,-1
 586 0 l 1,5,-1
 586 332 l 1,6,-1
 388 332 l 1,7,-1
 388 312 l 1,8,-1
 564 312 l 1,9,-1
 564 206 l 2,10,11
 564 110 564 110 497 59 c 128,-1,12
 430 8 430 8 340 8 c 0,13,14
 225 8 225 8 159.5 88.5 c 128,-1,15
 94 169 94 169 94 328 c 2,16,-1
 94 370 l 2,17,18
 94 529 94 529 159.5 609.5 c 128,-1,19
 225 690 225 690 340 690 c 0,20,21
 413 690 413 690 467.5 655.5 c 128,-1,22
 522 621 522 621 550 558 c 1,23,-1
 569 567 l 1,24,25
 539 633 539 633 480 671.5 c 128,-1,26
 421 710 421 710 340 710 c 0,27,28
 209 710 209 710 139.5 620 c 128,-1,29
 70 530 70 530 70 349 c 256,30,31
 70 168 70 168 139.5 78 c 128,-1,32
 209 -12 209 -12 340 -12 c 0,0,1
466 779 m 1,33,-1
 480 790 l 1,34,-1
 352 923 l 1,35,-1
 328 923 l 1,36,-1
 200 790 l 1,37,-1
 214 779 l 1,38,-1
 340 906 l 1,39,-1
 466 779 l 1,33,-1
EndSplineSet
EndChar

StartChar: Gbreve
Encoding: 286 286 221
Width: 666
Flags: W
LayerCount: 2
Fore
SplineSet
340 -12 m 0,0,1
 502 -12 502 -12 562 114 c 1,2,-1
 565 114 l 1,3,-1
 565 0 l 1,4,-1
 586 0 l 1,5,-1
 586 332 l 1,6,-1
 388 332 l 1,7,-1
 388 312 l 1,8,-1
 564 312 l 1,9,-1
 564 206 l 2,10,11
 564 110 564 110 497 59 c 128,-1,12
 430 8 430 8 340 8 c 0,13,14
 225 8 225 8 159.5 88.5 c 128,-1,15
 94 169 94 169 94 328 c 2,16,-1
 94 370 l 2,17,18
 94 529 94 529 159.5 609.5 c 128,-1,19
 225 690 225 690 340 690 c 0,20,21
 413 690 413 690 467.5 655.5 c 128,-1,22
 522 621 522 621 550 558 c 1,23,-1
 569 567 l 1,24,25
 539 633 539 633 480 671.5 c 128,-1,26
 421 710 421 710 340 710 c 0,27,28
 209 710 209 710 139.5 620 c 128,-1,29
 70 530 70 530 70 349 c 256,30,31
 70 168 70 168 139.5 78 c 128,-1,32
 209 -12 209 -12 340 -12 c 0,0,1
340 786 m 0,33,34
 390 786 390 786 417 816 c 128,-1,35
 444 846 444 846 468 895 c 2,36,-1
 472 903 l 1,37,-1
 456 910 l 1,38,-1
 441 883 l 2,39,40
 416 836 416 836 394 820.5 c 128,-1,41
 372 805 372 805 340 805 c 0,42,43
 306 805 306 805 287 821 c 0,44,45
 264 836 264 836 239 883 c 2,46,-1
 224 910 l 1,47,-1
 208 903 l 1,48,-1
 212 895 l 2,49,50
 236 846 236 846 262 816 c 128,-1,51
 288 786 288 786 340 786 c 0,33,34
EndSplineSet
EndChar

StartChar: Gdot
Encoding: 288 288 223
Width: 666
Flags: W
LayerCount: 2
Fore
SplineSet
340 -12 m 0,0,1
 502 -12 502 -12 562 114 c 1,2,-1
 565 114 l 1,3,-1
 565 0 l 1,4,-1
 586 0 l 1,5,-1
 586 332 l 1,6,-1
 388 332 l 1,7,-1
 388 312 l 1,8,-1
 564 312 l 1,9,-1
 564 206 l 2,10,11
 564 110 564 110 497 59 c 128,-1,12
 430 8 430 8 340 8 c 0,13,14
 225 8 225 8 159.5 88.5 c 128,-1,15
 94 169 94 169 94 328 c 2,16,-1
 94 370 l 2,17,18
 94 529 94 529 159.5 609.5 c 128,-1,19
 225 690 225 690 340 690 c 0,20,21
 413 690 413 690 467.5 655.5 c 128,-1,22
 522 621 522 621 550 558 c 1,23,-1
 569 567 l 1,24,25
 539 633 539 633 480 671.5 c 128,-1,26
 421 710 421 710 340 710 c 0,27,28
 209 710 209 710 139.5 620 c 128,-1,29
 70 530 70 530 70 349 c 256,30,31
 70 168 70 168 139.5 78 c 128,-1,32
 209 -12 209 -12 340 -12 c 0,0,1
340 822 m 256,33,34
 363 822 363 822 363 843 c 2,35,-1
 363 850 l 2,36,37
 363 871 363 871 340 871 c 256,38,39
 317 871 317 871 317 850 c 2,40,-1
 317 843 l 2,41,42
 317 822 317 822 340 822 c 256,33,34
EndSplineSet
EndChar

StartChar: Gcedilla
Encoding: 290 290 225
Width: 666
Flags: W
LayerCount: 2
Fore
SplineSet
340 -12 m 0,0,1
 502 -12 502 -12 562 114 c 1,2,-1
 565 114 l 1,3,-1
 565 0 l 1,4,-1
 586 0 l 1,5,-1
 586 332 l 1,6,-1
 388 332 l 1,7,-1
 388 312 l 1,8,-1
 564 312 l 1,9,-1
 564 206 l 2,10,11
 564 110 564 110 497 59 c 128,-1,12
 430 8 430 8 340 8 c 0,13,14
 225 8 225 8 159.5 88.5 c 128,-1,15
 94 169 94 169 94 328 c 2,16,-1
 94 370 l 2,17,18
 94 529 94 529 159.5 609.5 c 128,-1,19
 225 690 225 690 340 690 c 0,20,21
 413 690 413 690 467.5 655.5 c 128,-1,22
 522 621 522 621 550 558 c 1,23,-1
 569 567 l 1,24,25
 539 633 539 633 480 671.5 c 128,-1,26
 421 710 421 710 340 710 c 0,27,28
 209 710 209 710 139.5 620 c 128,-1,29
 70 530 70 530 70 349 c 256,30,31
 70 168 70 168 139.5 78 c 128,-1,32
 209 -12 209 -12 340 -12 c 0,0,1
318 -212 m 1,33,34
 339 -189 339 -189 351 -157 c 128,-1,35
 363 -125 363 -125 363 -99 c 2,36,-1
 363 -88 l 2,37,38
 363 -66 363 -66 343 -66 c 2,39,-1
 341 -66 l 2,40,41
 317 -66 317 -66 317 -88 c 2,42,-1
 317 -96 l 2,43,44
 317 -116 317 -116 345 -116 c 1,45,46
 343 -134 343 -134 332.5 -160.5 c 128,-1,47
 322 -187 322 -187 300 -212 c 1,48,-1
 318 -212 l 1,33,34
EndSplineSet
EndChar

StartChar: Hcircumflex
Encoding: 292 292 227
Width: 692
Flags: W
LayerCount: 2
Fore
SplineSet
584 0 m 1,0,-1
 584 698 l 1,1,-1
 562 698 l 1,2,-1
 562 364 l 1,3,-1
 130 364 l 1,4,-1
 130 698 l 1,5,-1
 108 698 l 1,6,-1
 108 0 l 1,7,-1
 130 0 l 1,8,-1
 130 344 l 1,9,-1
 562 344 l 1,10,-1
 562 0 l 1,11,-1
 584 0 l 1,0,-1
472 779 m 1,12,-1
 486 790 l 1,13,-1
 358 923 l 1,14,-1
 334 923 l 1,15,-1
 206 790 l 1,16,-1
 220 779 l 1,17,-1
 346 906 l 1,18,-1
 472 779 l 1,12,-1
EndSplineSet
EndChar

StartChar: hcircumflex
Encoding: 293 293 228
Width: 556
Flags: W
LayerCount: 2
Fore
SplineSet
461 0 m 1,0,-1
 461 325 l 2,1,2
 461 516 461 516 287 518 c 0,3,4
 219 518 219 518 180.5 491.5 c 128,-1,5
 142 465 142 465 129 430 c 1,6,-1
 126 430 l 1,7,-1
 126 740 l 1,8,-1
 105 740 l 1,9,-1
 105 0 l 1,10,-1
 126 0 l 1,11,-1
 126 362 l 2,12,13
 126 430 126 430 174 465 c 0,14,15
 224 499 224 499 285 499 c 0,16,17
 440 499 440 499 440 321 c 2,18,-1
 440 0 l 1,19,-1
 461 0 l 1,0,-1
242 757 m 1,20,-1
 256 768 l 1,21,-1
 128 901 l 1,22,-1
 104 901 l 1,23,-1
 -24 768 l 1,24,-1
 -10 757 l 1,25,-1
 116 884 l 1,26,-1
 242 757 l 1,20,-1
EndSplineSet
EndChar

StartChar: Hbar
Encoding: 294 294 229
Width: 698
GlyphClass: 1
Flags: W
LayerCount: 2
Fore
SplineSet
587 0 m 1,0,-1
 587 537 l 1,1,-1
 670 537 l 1,2,-1
 670 556 l 1,3,-1
 587 556 l 1,4,-1
 587 698 l 1,5,-1
 565 698 l 1,6,-1
 565 556 l 1,7,-1
 133 556 l 1,8,-1
 133 698 l 1,9,-1
 111 698 l 1,10,-1
 111 556 l 1,11,-1
 28 556 l 1,12,-1
 28 537 l 1,13,-1
 111 537 l 1,14,-1
 111 0 l 1,15,-1
 133 0 l 1,16,-1
 133 344 l 1,17,-1
 565 344 l 1,18,-1
 565 0 l 1,19,-1
 587 0 l 1,0,-1
565 364 m 1,20,-1
 133 364 l 1,21,-1
 133 537 l 1,22,-1
 565 537 l 1,23,-1
 565 364 l 1,20,-1
EndSplineSet
EndChar

StartChar: hbar
Encoding: 295 295 230
Width: 559
GlyphClass: 1
Flags: W
LayerCount: 2
Fore
SplineSet
464 0 m 1,0,-1
 464 325 l 2,1,2
 464 516 464 516 290 518 c 0,3,4
 222 518 222 518 183.5 491.5 c 128,-1,5
 145 465 145 465 132 430 c 1,6,-1
 129 430 l 1,7,-1
 129 629 l 1,8,-1
 292 629 l 1,9,-1
 292 647 l 1,10,-1
 129 647 l 1,11,-1
 129 740 l 1,12,-1
 108 740 l 1,13,-1
 108 647 l 1,14,-1
 42 647 l 1,15,-1
 42 629 l 1,16,-1
 108 629 l 1,17,-1
 108 0 l 1,18,-1
 129 0 l 1,19,-1
 129 362 l 2,20,21
 129 430 129 430 177 465 c 0,22,23
 227 499 227 499 288 499 c 0,24,25
 443 499 443 499 443 321 c 2,26,-1
 443 0 l 1,27,-1
 464 0 l 1,0,-1
EndSplineSet
EndChar

StartChar: Itilde
Encoding: 296 296 231
Width: 238
Flags: W
LayerCount: 2
Fore
SplineSet
190 808 m 0,0,1
 234 808 234 808 268 847 c 1,2,-1
 256 859 l 1,3,4
 227 826 227 826 191 826 c 0,5,6
 163 826 163 826 125 852 c 0,7,8
 99 869 99 869 82 875.5 c 128,-1,9
 65 882 65 882 48 882 c 0,10,11
 5 882 5 882 -30 843 c 1,12,-1
 -18 831 l 1,13,14
 13 864 13 864 47 864 c 0,15,16
 76 864 76 864 113 838 c 0,17,18
 139 821 139 821 156 814.5 c 128,-1,19
 173 808 173 808 190 808 c 0,0,1
130 0 m 1,20,-1
 130 698 l 1,21,-1
 108 698 l 1,22,-1
 108 0 l 1,23,-1
 130 0 l 1,20,-1
EndSplineSet
EndChar

StartChar: itilde
Encoding: 297 297 232
Width: 231
Flags: W
LayerCount: 2
Fore
SplineSet
126 0 m 1,0,-1
 126 506 l 1,1,-1
 105 506 l 1,2,-1
 105 0 l 1,3,-1
 126 0 l 1,0,-1
187 628 m 0,4,5
 231 628 231 628 265 667 c 1,6,-1
 253 679 l 1,7,8
 224 646 224 646 188 646 c 0,9,10
 160 646 160 646 122 672 c 0,11,12
 96 689 96 689 79 695.5 c 128,-1,13
 62 702 62 702 45 702 c 0,14,15
 2 702 2 702 -33 663 c 1,16,-1
 -21 651 l 1,17,18
 10 684 10 684 44 684 c 0,19,20
 73 684 73 684 110 658 c 0,21,22
 136 641 136 641 153 634.5 c 128,-1,23
 170 628 170 628 187 628 c 0,4,5
EndSplineSet
EndChar

StartChar: Imacron
Encoding: 298 298 233
Width: 238
Flags: W
LayerCount: 2
Fore
SplineSet
248 838 m 1,0,-1
 248 856 l 1,1,-1
 -10 856 l 1,2,-1
 -10 838 l 1,3,-1
 248 838 l 1,0,-1
130 0 m 1,4,-1
 130 698 l 1,5,-1
 108 698 l 1,6,-1
 108 0 l 1,7,-1
 130 0 l 1,4,-1
EndSplineSet
EndChar

StartChar: imacron
Encoding: 299 299 234
Width: 231
Flags: W
LayerCount: 2
Fore
SplineSet
126 0 m 1,0,-1
 126 506 l 1,1,-1
 105 506 l 1,2,-1
 105 0 l 1,3,-1
 126 0 l 1,0,-1
245 658 m 1,4,-1
 245 676 l 1,5,-1
 -13 676 l 1,6,-1
 -13 658 l 1,7,-1
 245 658 l 1,4,-1
EndSplineSet
EndChar

StartChar: Ibreve
Encoding: 300 300 235
Width: 238
Flags: W
LayerCount: 2
Fore
SplineSet
119 786 m 0,0,1
 169 786 169 786 196 816 c 128,-1,2
 223 846 223 846 247 895 c 2,3,-1
 251 903 l 1,4,-1
 235 910 l 1,5,-1
 220 883 l 2,6,7
 195 836 195 836 173 820.5 c 128,-1,8
 151 805 151 805 119 805 c 0,9,10
 85 805 85 805 66 821 c 0,11,12
 43 836 43 836 18 883 c 2,13,-1
 3 910 l 1,14,-1
 -13 903 l 1,15,-1
 -9 895 l 2,16,17
 15 846 15 846 41 816 c 128,-1,18
 67 786 67 786 119 786 c 0,0,1
130 0 m 1,19,-1
 130 698 l 1,20,-1
 108 698 l 1,21,-1
 108 0 l 1,22,-1
 130 0 l 1,19,-1
EndSplineSet
EndChar

StartChar: ibreve
Encoding: 301 301 236
Width: 231
Flags: W
LayerCount: 2
Fore
SplineSet
126 0 m 1,0,-1
 126 506 l 1,1,-1
 105 506 l 1,2,-1
 105 0 l 1,3,-1
 126 0 l 1,0,-1
116 606 m 0,4,5
 166 606 166 606 193 636 c 128,-1,6
 220 666 220 666 244 715 c 2,7,-1
 248 723 l 1,8,-1
 232 730 l 1,9,-1
 217 703 l 2,10,11
 192 656 192 656 170 640.5 c 128,-1,12
 148 625 148 625 116 625 c 0,13,14
 82 625 82 625 63 641 c 0,15,16
 40 656 40 656 15 703 c 2,17,-1
 0 730 l 1,18,-1
 -16 723 l 1,19,-1
 -12 715 l 2,20,21
 12 666 12 666 38 636 c 128,-1,22
 64 606 64 606 116 606 c 0,4,5
EndSplineSet
EndChar

StartChar: Iogonek
Encoding: 302 302 237
Width: 238
Flags: W
LayerCount: 2
Fore
SplineSet
79 -202 m 0,0,1
 133 -202 133 -202 154 -170 c 1,2,-1
 140 -159 l 1,3,4
 119 -184 119 -184 80 -184 c 0,5,6
 54 -184 54 -184 37.5 -171.5 c 128,-1,7
 21 -159 21 -159 21 -132 c 0,8,9
 21 -94 21 -94 48.5 -64.5 c 128,-1,10
 76 -35 76 -35 130 0 c 1,11,-1
 130 698 l 1,12,-1
 108 698 l 1,13,-1
 108 0 l 1,14,15
 45 -36 45 -36 22 -69.5 c 128,-1,16
 -1 -103 -1 -103 -1 -133 c 0,17,18
 -1 -166 -1 -166 22 -184 c 128,-1,19
 45 -202 45 -202 79 -202 c 0,0,1
EndSplineSet
EndChar

StartChar: iogonek
Encoding: 303 303 238
Width: 231
Flags: W
LayerCount: 2
Fore
SplineSet
95 -202 m 0,0,1
 149 -202 149 -202 170 -170 c 1,2,-1
 156 -159 l 1,3,4
 135 -184 135 -184 96 -184 c 0,5,6
 70 -184 70 -184 53.5 -171 c 128,-1,7
 37 -158 37 -158 37 -130 c 0,8,9
 37 -96 37 -96 59.5 -68 c 128,-1,10
 82 -40 82 -40 126 0 c 1,11,-1
 126 506 l 1,12,-1
 105 506 l 1,13,-1
 105 0 l 1,14,15
 58 -37 58 -37 37 -67.5 c 128,-1,16
 16 -98 16 -98 16 -133 c 0,17,18
 16 -166 16 -166 38.5 -184 c 128,-1,19
 61 -202 61 -202 95 -202 c 0,0,1
116 673 m 256,20,21
 139 673 139 673 139 694 c 2,22,-1
 139 701 l 2,23,24
 139 722 139 722 116 722 c 256,25,26
 93 722 93 722 93 701 c 2,27,-1
 93 694 l 2,28,29
 93 673 93 673 116 673 c 256,20,21
EndSplineSet
EndChar

StartChar: Idot
Encoding: 304 304 239
Width: 238
Flags: W
LayerCount: 2
Fore
SplineSet
119 822 m 256,0,1
 142 822 142 822 142 843 c 2,2,-1
 142 850 l 2,3,4
 142 871 142 871 119 871 c 256,5,6
 96 871 96 871 96 850 c 2,7,-1
 96 843 l 2,8,9
 96 822 96 822 119 822 c 256,0,1
130 0 m 1,10,-1
 130 698 l 1,11,-1
 108 698 l 1,12,-1
 108 0 l 1,13,-1
 130 0 l 1,10,-1
EndSplineSet
EndChar

StartChar: dotlessi
Encoding: 305 305 240
Width: 231
Flags: W
LayerCount: 2
Fore
SplineSet
126 0 m 1,0,-1
 126 506 l 1,1,-1
 105 506 l 1,2,-1
 105 0 l 1,3,-1
 126 0 l 1,0,-1
EndSplineSet
EndChar

StartChar: ij
Encoding: 307 307 242
Width: 462
Flags: W
LayerCount: 2
Fore
SplineSet
115 673 m 256,0,1
 138 673 138 673 138 694 c 2,2,-1
 138 701 l 2,3,4
 138 722 138 722 115 722 c 256,5,6
 92 722 92 722 92 701 c 2,7,-1
 92 694 l 2,8,9
 92 673 92 673 115 673 c 256,0,1
126 0 m 1,10,-1
 126 506 l 1,11,-1
 105 506 l 1,12,-1
 105 0 l 1,13,-1
 126 0 l 1,10,-1
328 -200 m 2,14,15
 357 -200 357 -200 357 -171 c 2,16,-1
 357 506 l 1,17,-1
 336 506 l 1,18,-1
 336 -181 l 1,19,-1
 251 -181 l 1,20,-1
 251 -200 l 1,21,-1
 328 -200 l 2,14,15
346 673 m 256,22,23
 369 673 369 673 369 694 c 2,24,-1
 369 701 l 2,25,26
 369 722 369 722 346 722 c 256,27,28
 323 722 323 722 323 701 c 2,29,-1
 323 694 l 2,30,31
 323 673 323 673 346 673 c 256,22,23
EndSplineSet
EndChar

StartChar: Jcircumflex
Encoding: 308 308 243
Width: 464
Flags: W
LayerCount: 2
Fore
SplineSet
359 779 m 1,0,-1
 373 790 l 1,1,-1
 245 923 l 1,2,-1
 221 923 l 1,3,-1
 93 790 l 1,4,-1
 107 779 l 1,5,-1
 233 906 l 1,6,-1
 359 779 l 1,0,-1
192 -12 m 0,7,8
 129 -12 129 -12 83 22 c 128,-1,9
 37 56 37 56 22 113 c 1,10,-1
 41 119 l 1,11,12
 56 70 56 70 95 39 c 128,-1,13
 134 8 134 8 192 8 c 0,14,15
 342 8 342 8 342 183 c 2,16,-1
 342 698 l 1,17,-1
 364 698 l 1,18,-1
 364 183 l 2,19,20
 364 86 364 86 318.5 37 c 128,-1,21
 273 -12 273 -12 192 -12 c 0,7,8
EndSplineSet
EndChar

StartChar: jcircumflex
Encoding: 309 309 244
Width: 231
Flags: W
LayerCount: 2
Fore
SplineSet
97 -200 m 2,0,1
 126 -200 126 -200 126 -171 c 2,2,-1
 126 506 l 1,3,-1
 105 506 l 1,4,-1
 105 -181 l 1,5,-1
 20 -181 l 1,6,-1
 20 -200 l 1,7,-1
 97 -200 l 2,0,1
242 599 m 1,8,-1
 256 610 l 1,9,-1
 128 743 l 1,10,-1
 104 743 l 1,11,-1
 -24 610 l 1,12,-1
 -10 599 l 1,13,-1
 116 726 l 1,14,-1
 242 599 l 1,8,-1
EndSplineSet
EndChar

StartChar: Kcedilla
Encoding: 310 310 245
Width: 572
Flags: W
LayerCount: 2
Fore
SplineSet
552 0 m 1,0,-1
 280 403 l 1,1,-1
 549 698 l 1,2,-1
 521 698 l 1,3,4
 327 484 327 484 132 271 c 1,5,-1
 130 271 l 1,6,-1
 130 698 l 1,7,-1
 108 698 l 1,8,-1
 108 0 l 1,9,-1
 130 0 l 1,10,-1
 130 239 l 1,11,-1
 265 387 l 1,12,-1
 526 0 l 1,13,-1
 552 0 l 1,0,-1
292 -212 m 1,14,15
 313 -189 313 -189 325 -157 c 128,-1,16
 337 -125 337 -125 337 -99 c 2,17,-1
 337 -88 l 2,18,19
 337 -66 337 -66 317 -66 c 2,20,-1
 315 -66 l 2,21,22
 291 -66 291 -66 291 -88 c 2,23,-1
 291 -96 l 2,24,25
 291 -116 291 -116 319 -116 c 1,26,27
 317 -134 317 -134 306.5 -160.5 c 128,-1,28
 296 -187 296 -187 274 -212 c 1,29,-1
 292 -212 l 1,14,15
EndSplineSet
EndChar

StartChar: kcedilla
Encoding: 311 311 246
Width: 490
Flags: W
LayerCount: 2
Fore
SplineSet
471 0 m 1,0,-1
 229 292 l 1,1,-1
 444 506 l 1,2,-1
 416 506 l 1,3,-1
 129 220 l 1,4,-1
 126 220 l 1,5,-1
 126 740 l 1,6,-1
 105 740 l 1,7,-1
 105 0 l 1,8,-1
 126 0 l 1,9,-1
 126 190 l 1,10,-1
 214 277 l 1,11,-1
 445 0 l 1,12,-1
 471 0 l 1,0,-1
248 -212 m 1,13,14
 269 -189 269 -189 281 -157 c 128,-1,15
 293 -125 293 -125 293 -99 c 2,16,-1
 293 -88 l 2,17,18
 293 -66 293 -66 273 -66 c 2,19,-1
 271 -66 l 2,20,21
 247 -66 247 -66 247 -88 c 2,22,-1
 247 -96 l 2,23,24
 247 -116 247 -116 275 -116 c 1,25,26
 273 -134 273 -134 262.5 -160.5 c 128,-1,27
 252 -187 252 -187 230 -212 c 1,28,-1
 248 -212 l 1,13,14
EndSplineSet
EndChar

StartChar: kgreenlandic
Encoding: 312 312 247
Width: 490
Flags: W
LayerCount: 2
Fore
SplineSet
471 0 m 1,0,-1
 230 282 l 1,1,-1
 454 506 l 1,2,-1
 427 506 l 1,3,-1
 129 209 l 1,4,-1
 126 209 l 1,5,-1
 126 506 l 1,6,-1
 105 506 l 1,7,-1
 105 0 l 1,8,-1
 126 0 l 1,9,-1
 126 180 l 1,10,-1
 215 267 l 1,11,-1
 445 0 l 1,12,-1
 471 0 l 1,0,-1
EndSplineSet
EndChar

StartChar: Lacute
Encoding: 313 313 248
Width: 475
Flags: W
LayerCount: 2
Fore
SplineSet
455 0 m 1,0,-1
 455 20 l 1,1,-1
 130 20 l 1,2,-1
 130 698 l 1,3,-1
 108 698 l 1,4,-1
 108 0 l 1,5,-1
 455 0 l 1,0,-1
102 767 m 1,6,-1
 217 919 l 1,7,-1
 198 931 l 1,8,-1
 87 777 l 1,9,-1
 102 767 l 1,6,-1
EndSplineSet
EndChar

StartChar: lacute
Encoding: 314 314 249
Width: 251
Flags: W
LayerCount: 2
Fore
SplineSet
98 787 m 1,0,-1
 213 939 l 1,1,-1
 194 951 l 1,2,-1
 83 797 l 1,3,-1
 98 787 l 1,0,-1
211 0 m 1,4,-1
 211 19 l 1,5,-1
 126 19 l 1,6,-1
 126 740 l 1,7,-1
 105 740 l 1,8,-1
 105 29 l 2,9,10
 105 1 105 1 134 0 c 2,11,-1
 211 0 l 1,4,-1
EndSplineSet
EndChar

StartChar: Lcedilla
Encoding: 315 315 250
Width: 475
GlyphClass: 2
Flags: W
LayerCount: 2
Fore
SplineSet
455 0 m 1,0,-1
 455 20 l 1,1,-1
 130 20 l 1,2,-1
 130 698 l 1,3,-1
 108 698 l 1,4,-1
 108 0 l 1,5,-1
 455 0 l 1,0,-1
270 -212 m 1,6,7
 291 -189 291 -189 303 -157 c 128,-1,8
 315 -125 315 -125 315 -99 c 2,9,-1
 315 -88 l 2,10,11
 315 -66 315 -66 295 -66 c 2,12,-1
 293 -66 l 2,13,14
 269 -66 269 -66 269 -88 c 2,15,-1
 269 -96 l 2,16,17
 269 -116 269 -116 297 -116 c 1,18,19
 295 -134 295 -134 284.5 -160.5 c 128,-1,20
 274 -187 274 -187 252 -212 c 1,21,-1
 270 -212 l 1,6,7
EndSplineSet
EndChar

StartChar: lcedilla
Encoding: 316 316 251
Width: 251
GlyphClass: 5
Flags: W
LayerCount: 2
Fore
SplineSet
211 0 m 1,0,-1
 211 19 l 1,1,-1
 126 19 l 1,2,-1
 126 740 l 1,3,-1
 105 740 l 1,4,-1
 105 29 l 2,5,6
 105 1 105 1 134 0 c 2,7,-1
 211 0 l 1,0,-1
140 -212 m 1,8,9
 161 -189 161 -189 173 -157 c 128,-1,10
 185 -125 185 -125 185 -99 c 2,11,-1
 185 -88 l 2,12,13
 185 -66 185 -66 165 -66 c 2,14,-1
 163 -66 l 2,15,16
 139 -66 139 -66 139 -88 c 2,17,-1
 139 -96 l 2,18,19
 139 -116 139 -116 167 -116 c 1,20,21
 165 -134 165 -134 154.5 -160.5 c 128,-1,22
 144 -187 144 -187 122 -212 c 1,23,-1
 140 -212 l 1,8,9
EndSplineSet
EndChar

StartChar: Lcaron
Encoding: 317 317 252
Width: 475
GlyphClass: 5
Flags: W
LayerCount: 2
Fore
SplineSet
455 0 m 1,0,-1
 455 20 l 1,1,-1
 130 20 l 1,2,-1
 130 698 l 1,3,-1
 108 698 l 1,4,-1
 108 0 l 1,5,-1
 455 0 l 1,0,-1
248 564 m 1,6,-1
 272 740 l 1,7,-1
 247 740 l 1,8,-1
 231 564 l 1,9,-1
 248 564 l 1,6,-1
EndSplineSet
EndChar

StartChar: lcaron
Encoding: 318 318 253
Width: 251
GlyphClass: 5
Flags: W
LayerCount: 2
Fore
SplineSet
238 564 m 1,0,-1
 262 740 l 1,1,-1
 237 740 l 1,2,-1
 221 564 l 1,3,-1
 238 564 l 1,0,-1
211 0 m 1,4,-1
 211 19 l 1,5,-1
 126 19 l 1,6,-1
 126 740 l 1,7,-1
 105 740 l 1,8,-1
 105 29 l 2,9,10
 105 1 105 1 134 0 c 2,11,-1
 211 0 l 1,4,-1
EndSplineSet
EndChar

StartChar: Ldot
Encoding: 319 319 254
Width: 475
Flags: W
LayerCount: 2
Fore
SplineSet
455 0 m 1,0,-1
 455 20 l 1,1,-1
 130 20 l 1,2,-1
 130 698 l 1,3,-1
 108 698 l 1,4,-1
 108 0 l 1,5,-1
 455 0 l 1,0,-1
359 271 m 256,6,7
 382 271 382 271 382 292 c 2,8,-1
 382 299 l 2,9,10
 382 320 382 320 359 320 c 256,11,12
 336 320 336 320 336 299 c 2,13,-1
 336 292 l 2,14,15
 336 271 336 271 359 271 c 256,6,7
EndSplineSet
EndChar

StartChar: ldot
Encoding: 320 320 255
Width: 276
Flags: W
LayerCount: 2
Fore
SplineSet
251 240 m 256,0,1
 274 240 274 240 274 261 c 2,2,-1
 274 268 l 2,3,4
 274 289 274 289 251 289 c 256,5,6
 228 289 228 289 228 268 c 2,7,-1
 228 261 l 2,8,9
 228 240 228 240 251 240 c 256,0,1
211 0 m 1,10,-1
 211 19 l 1,11,-1
 126 19 l 1,12,-1
 126 740 l 1,13,-1
 105 740 l 1,14,-1
 105 29 l 2,15,16
 105 1 105 1 134 0 c 2,17,-1
 211 0 l 1,10,-1
EndSplineSet
EndChar

StartChar: Lslash
Encoding: 321 321 256
Width: 478
GlyphClass: 2
Flags: W
LayerCount: 2
Fore
SplineSet
458 0 m 1,0,-1
 458 20 l 1,1,-1
 133 20 l 1,2,-1
 133 310 l 1,3,-1
 337 374 l 1,4,-1
 337 394 l 1,5,-1
 133 330 l 1,6,-1
 133 698 l 1,7,-1
 111 698 l 1,8,-1
 111 323 l 1,9,-1
 14 292 l 1,10,-1
 14 272 l 1,11,-1
 111 303 l 1,12,-1
 111 0 l 1,13,-1
 458 0 l 1,0,-1
EndSplineSet
EndChar

StartChar: lslash
Encoding: 322 322 257
Width: 257
Flags: W
LayerCount: 2
Fore
SplineSet
214 0 m 1,0,-1
 214 19 l 1,1,-1
 129 19 l 1,2,-1
 129 358 l 1,3,-1
 221 388 l 1,4,-1
 221 408 l 1,5,-1
 129 378 l 1,6,-1
 129 740 l 1,7,-1
 108 740 l 1,8,-1
 108 371 l 1,9,-1
 34 347 l 1,10,-1
 34 327 l 1,11,-1
 108 351 l 1,12,-1
 108 29 l 2,13,14
 108 1 108 1 137 0 c 2,15,-1
 214 0 l 1,0,-1
EndSplineSet
EndChar

StartChar: Nacute
Encoding: 323 323 258
Width: 692
Flags: W
LayerCount: 2
Fore
SplineSet
584 0 m 1,0,-1
 584 698 l 1,1,-1
 563 698 l 1,2,-1
 563 27 l 1,3,-1
 560 27 l 1,4,-1
 140 698 l 1,5,-1
 108 698 l 1,6,-1
 108 0 l 1,7,-1
 129 0 l 1,8,-1
 129 671 l 1,9,-1
 132 671 l 1,10,-1
 552 0 l 1,11,-1
 584 0 l 1,0,-1
328 767 m 1,12,-1
 443 919 l 1,13,-1
 424 931 l 1,14,-1
 313 777 l 1,15,-1
 328 767 l 1,12,-1
EndSplineSet
EndChar

StartChar: nacute
Encoding: 324 324 259
Width: 556
Flags: W
LayerCount: 2
Fore
SplineSet
461 0 m 1,0,-1
 461 325 l 2,1,2
 461 516 461 516 287 518 c 0,3,4
 219 518 219 518 180.5 491.5 c 128,-1,5
 142 465 142 465 129 430 c 1,6,-1
 126 430 l 1,7,-1
 126 506 l 1,8,-1
 105 506 l 1,9,-1
 105 0 l 1,10,-1
 126 0 l 1,11,-1
 126 362 l 2,12,13
 126 430 126 430 174 465 c 0,14,15
 224 499 224 499 285 499 c 0,16,17
 440 499 440 499 440 321 c 2,18,-1
 440 0 l 1,19,-1
 461 0 l 1,0,-1
267 587 m 1,20,-1
 382 739 l 1,21,-1
 363 751 l 1,22,-1
 252 597 l 1,23,-1
 267 587 l 1,20,-1
EndSplineSet
EndChar

StartChar: Ncedilla
Encoding: 325 325 260
Width: 692
GlyphClass: 2
Flags: W
LayerCount: 2
Fore
SplineSet
584 0 m 1,0,-1
 584 698 l 1,1,-1
 563 698 l 1,2,-1
 563 27 l 1,3,-1
 560 27 l 1,4,-1
 140 698 l 1,5,-1
 108 698 l 1,6,-1
 108 0 l 1,7,-1
 129 0 l 1,8,-1
 129 671 l 1,9,-1
 132 671 l 1,10,-1
 552 0 l 1,11,-1
 584 0 l 1,0,-1
324 -212 m 1,12,13
 345 -189 345 -189 357 -157 c 128,-1,14
 369 -125 369 -125 369 -99 c 2,15,-1
 369 -88 l 2,16,17
 369 -66 369 -66 349 -66 c 2,18,-1
 347 -66 l 2,19,20
 323 -66 323 -66 323 -88 c 2,21,-1
 323 -96 l 2,22,23
 323 -116 323 -116 351 -116 c 1,24,25
 349 -134 349 -134 338.5 -160.5 c 128,-1,26
 328 -187 328 -187 306 -212 c 1,27,-1
 324 -212 l 1,12,13
EndSplineSet
EndChar

StartChar: ncedilla
Encoding: 326 326 261
Width: 556
GlyphClass: 5
Flags: W
LayerCount: 2
Fore
SplineSet
461 0 m 1,0,-1
 461 325 l 2,1,2
 461 516 461 516 287 518 c 0,3,4
 219 518 219 518 180.5 491.5 c 128,-1,5
 142 465 142 465 129 430 c 1,6,-1
 126 430 l 1,7,-1
 126 506 l 1,8,-1
 105 506 l 1,9,-1
 105 0 l 1,10,-1
 126 0 l 1,11,-1
 126 362 l 2,12,13
 126 430 126 430 174 465 c 0,14,15
 224 499 224 499 285 499 c 0,16,17
 440 499 440 499 440 321 c 2,18,-1
 440 0 l 1,19,-1
 461 0 l 1,0,-1
261 -212 m 1,20,21
 282 -189 282 -189 294 -157 c 128,-1,22
 306 -125 306 -125 306 -99 c 2,23,-1
 306 -88 l 2,24,25
 306 -66 306 -66 286 -66 c 2,26,-1
 284 -66 l 2,27,28
 260 -66 260 -66 260 -88 c 2,29,-1
 260 -96 l 2,30,31
 260 -116 260 -116 288 -116 c 1,32,33
 286 -134 286 -134 275.5 -160.5 c 128,-1,34
 265 -187 265 -187 243 -212 c 1,35,-1
 261 -212 l 1,20,21
EndSplineSet
EndChar

StartChar: Ncaron
Encoding: 327 327 262
Width: 692
GlyphClass: 2
Flags: W
LayerCount: 2
Fore
SplineSet
584 0 m 1,0,-1
 584 698 l 1,1,-1
 563 698 l 1,2,-1
 563 27 l 1,3,-1
 560 27 l 1,4,-1
 140 698 l 1,5,-1
 108 698 l 1,6,-1
 108 0 l 1,7,-1
 129 0 l 1,8,-1
 129 671 l 1,9,-1
 132 671 l 1,10,-1
 552 0 l 1,11,-1
 584 0 l 1,0,-1
358 783 m 1,12,-1
 486 916 l 1,13,-1
 472 927 l 1,14,-1
 346 800 l 1,15,-1
 220 927 l 1,16,-1
 206 916 l 1,17,-1
 334 783 l 1,18,-1
 358 783 l 1,12,-1
EndSplineSet
EndChar

StartChar: ncaron
Encoding: 328 328 263
Width: 556
GlyphClass: 3
Flags: W
LayerCount: 2
Fore
SplineSet
461 0 m 1,0,-1
 461 325 l 2,1,2
 461 516 461 516 287 518 c 0,3,4
 219 518 219 518 180.5 491.5 c 128,-1,5
 142 465 142 465 129 430 c 1,6,-1
 126 430 l 1,7,-1
 126 506 l 1,8,-1
 105 506 l 1,9,-1
 105 0 l 1,10,-1
 126 0 l 1,11,-1
 126 362 l 2,12,13
 126 430 126 430 174 465 c 0,14,15
 224 499 224 499 285 499 c 0,16,17
 440 499 440 499 440 321 c 2,18,-1
 440 0 l 1,19,-1
 461 0 l 1,0,-1
297 603 m 1,20,-1
 425 736 l 1,21,-1
 411 747 l 1,22,-1
 285 620 l 1,23,-1
 159 747 l 1,24,-1
 145 736 l 1,25,-1
 273 603 l 1,26,-1
 297 603 l 1,20,-1
EndSplineSet
EndChar

StartChar: napostrophe
Encoding: 329 329 264
Width: 761
GlyphClass: 3
Flags: W
LayerCount: 2
Fore
SplineSet
78 550 m 1,0,1
 111 581 111 581 133 625.5 c 128,-1,2
 155 670 155 670 155 712 c 2,3,-1
 155 724 l 2,4,5
 155 750 155 750 129 750 c 0,6,7
 101 750 101 750 101 724 c 2,8,-1
 101 715 l 2,9,10
 101 692 101 692 133 692 c 1,11,12
 127 620 127 620 59 550 c 1,13,-1
 78 550 l 1,0,1
666 0 m 1,14,-1
 666 325 l 2,15,16
 666 516 666 516 492 518 c 0,17,18
 424 518 424 518 385.5 491.5 c 128,-1,19
 347 465 347 465 334 430 c 1,20,-1
 331 430 l 1,21,-1
 331 506 l 1,22,-1
 310 506 l 1,23,-1
 310 0 l 1,24,-1
 331 0 l 1,25,-1
 331 362 l 2,26,27
 331 430 331 430 379 465 c 0,28,29
 429 499 429 499 490 499 c 0,30,31
 645 499 645 499 645 321 c 2,32,-1
 645 0 l 1,33,-1
 666 0 l 1,14,-1
EndSplineSet
EndChar

StartChar: Eng
Encoding: 330 330 265
Width: 692
Flags: W
LayerCount: 2
Fore
SplineSet
555 -200 m 2,0,1
 584 -200 584 -200 584 -171 c 2,2,-1
 584 698 l 1,3,-1
 563 698 l 1,4,-1
 563 27 l 1,5,-1
 560 27 l 1,6,-1
 140 698 l 1,7,-1
 108 698 l 1,8,-1
 108 0 l 1,9,-1
 129 0 l 1,10,-1
 129 671 l 1,11,-1
 132 671 l 1,12,-1
 552 0 l 1,13,-1
 563 0 l 1,14,-1
 563 -181 l 1,15,-1
 478 -181 l 1,16,-1
 478 -200 l 1,17,-1
 555 -200 l 2,0,1
EndSplineSet
EndChar

StartChar: eng
Encoding: 331 331 266
Width: 556
GlyphClass: 2
Flags: W
LayerCount: 2
Fore
SplineSet
432 -200 m 2,0,1
 461 -200 461 -200 461 -171 c 2,2,-1
 461 325 l 2,3,4
 461 516 461 516 287 518 c 0,5,6
 219 518 219 518 180.5 491.5 c 128,-1,7
 142 465 142 465 129 430 c 1,8,-1
 126 430 l 1,9,-1
 126 506 l 1,10,-1
 105 506 l 1,11,-1
 105 0 l 1,12,-1
 126 0 l 1,13,-1
 126 362 l 2,14,15
 126 430 126 430 174 465 c 0,16,17
 224 499 224 499 285 499 c 0,18,19
 440 499 440 499 440 321 c 2,20,-1
 440 -181 l 1,21,-1
 355 -181 l 1,22,-1
 355 -200 l 1,23,-1
 432 -200 l 2,0,1
EndSplineSet
EndChar

StartChar: Omacron
Encoding: 332 332 267
Width: 680
GlyphClass: 5
Flags: W
LayerCount: 2
Fore
SplineSet
340 -12 m 256,0,1
 471 -12 471 -12 540.5 78 c 128,-1,2
 610 168 610 168 610 349 c 256,3,4
 610 530 610 530 540.5 620 c 128,-1,5
 471 710 471 710 340 710 c 256,6,7
 209 710 209 710 139.5 620 c 128,-1,8
 70 530 70 530 70 349 c 256,9,10
 70 168 70 168 139.5 78 c 128,-1,11
 209 -12 209 -12 340 -12 c 256,0,1
340 8 m 256,12,13
 225 8 225 8 159.5 88.5 c 128,-1,14
 94 169 94 169 94 328 c 2,15,-1
 94 370 l 2,16,17
 94 529 94 529 159.5 609.5 c 128,-1,18
 225 690 225 690 340 690 c 256,19,20
 455 690 455 690 520.5 609.5 c 128,-1,21
 586 529 586 529 586 370 c 2,22,-1
 586 328 l 2,23,24
 586 169 586 169 520.5 88.5 c 128,-1,25
 455 8 455 8 340 8 c 256,12,13
469 838 m 1,26,-1
 469 856 l 1,27,-1
 211 856 l 1,28,-1
 211 838 l 1,29,-1
 469 838 l 1,26,-1
EndSplineSet
EndChar

StartChar: omacron
Encoding: 333 333 268
Width: 540
Flags: W
LayerCount: 2
Fore
SplineSet
270 -12 m 256,0,1
 370 -12 370 -12 425 54.5 c 128,-1,2
 480 121 480 121 480 253 c 256,3,4
 480 385 480 385 425 451.5 c 128,-1,5
 370 518 370 518 270 518 c 256,6,7
 170 518 170 518 115 451.5 c 128,-1,8
 60 385 60 385 60 253 c 256,9,10
 60 121 60 121 115 54.5 c 128,-1,11
 170 -12 170 -12 270 -12 c 256,0,1
270 7 m 256,12,13
 179 7 179 7 131 66.5 c 128,-1,14
 83 126 83 126 83 229 c 2,15,-1
 83 277 l 2,16,17
 83 380 83 380 131 439.5 c 128,-1,18
 179 499 179 499 270 499 c 256,19,20
 361 499 361 499 409 439.5 c 128,-1,21
 457 380 457 380 457 277 c 2,22,-1
 457 229 l 2,23,24
 457 126 457 126 409 66.5 c 128,-1,25
 361 7 361 7 270 7 c 256,12,13
400 658 m 1,26,-1
 400 676 l 1,27,-1
 142 676 l 1,28,-1
 142 658 l 1,29,-1
 400 658 l 1,26,-1
EndSplineSet
EndChar

StartChar: Obreve
Encoding: 334 334 269
Width: 680
Flags: W
LayerCount: 2
Fore
SplineSet
340 -12 m 256,0,1
 471 -12 471 -12 540.5 78 c 128,-1,2
 610 168 610 168 610 349 c 256,3,4
 610 530 610 530 540.5 620 c 128,-1,5
 471 710 471 710 340 710 c 256,6,7
 209 710 209 710 139.5 620 c 128,-1,8
 70 530 70 530 70 349 c 256,9,10
 70 168 70 168 139.5 78 c 128,-1,11
 209 -12 209 -12 340 -12 c 256,0,1
340 8 m 256,12,13
 225 8 225 8 159.5 88.5 c 128,-1,14
 94 169 94 169 94 328 c 2,15,-1
 94 370 l 2,16,17
 94 529 94 529 159.5 609.5 c 128,-1,18
 225 690 225 690 340 690 c 256,19,20
 455 690 455 690 520.5 609.5 c 128,-1,21
 586 529 586 529 586 370 c 2,22,-1
 586 328 l 2,23,24
 586 169 586 169 520.5 88.5 c 128,-1,25
 455 8 455 8 340 8 c 256,12,13
340 786 m 0,26,27
 390 786 390 786 417 816 c 128,-1,28
 444 846 444 846 468 895 c 2,29,-1
 472 903 l 1,30,-1
 456 910 l 1,31,-1
 441 883 l 2,32,33
 416 836 416 836 394 820.5 c 128,-1,34
 372 805 372 805 340 805 c 0,35,36
 306 805 306 805 287 821 c 0,37,38
 264 836 264 836 239 883 c 2,39,-1
 224 910 l 1,40,-1
 208 903 l 1,41,-1
 212 895 l 2,42,43
 236 846 236 846 262 816 c 128,-1,44
 288 786 288 786 340 786 c 0,26,27
EndSplineSet
EndChar

StartChar: obreve
Encoding: 335 335 270
Width: 540
GlyphClass: 3
Flags: W
LayerCount: 2
Fore
SplineSet
270 -12 m 256,0,1
 370 -12 370 -12 425 54.5 c 128,-1,2
 480 121 480 121 480 253 c 256,3,4
 480 385 480 385 425 451.5 c 128,-1,5
 370 518 370 518 270 518 c 256,6,7
 170 518 170 518 115 451.5 c 128,-1,8
 60 385 60 385 60 253 c 256,9,10
 60 121 60 121 115 54.5 c 128,-1,11
 170 -12 170 -12 270 -12 c 256,0,1
270 7 m 256,12,13
 179 7 179 7 131 66.5 c 128,-1,14
 83 126 83 126 83 229 c 2,15,-1
 83 277 l 2,16,17
 83 380 83 380 131 439.5 c 128,-1,18
 179 499 179 499 270 499 c 256,19,20
 361 499 361 499 409 439.5 c 128,-1,21
 457 380 457 380 457 277 c 2,22,-1
 457 229 l 2,23,24
 457 126 457 126 409 66.5 c 128,-1,25
 361 7 361 7 270 7 c 256,12,13
271 606 m 0,26,27
 321 606 321 606 348 636 c 128,-1,28
 375 666 375 666 399 715 c 2,29,-1
 403 723 l 1,30,-1
 387 730 l 1,31,-1
 372 703 l 2,32,33
 347 656 347 656 325 640.5 c 128,-1,34
 303 625 303 625 271 625 c 0,35,36
 237 625 237 625 218 641 c 0,37,38
 195 656 195 656 170 703 c 2,39,-1
 155 730 l 1,40,-1
 139 723 l 1,41,-1
 143 715 l 2,42,43
 167 666 167 666 193 636 c 128,-1,44
 219 606 219 606 271 606 c 0,26,27
EndSplineSet
EndChar

StartChar: Odblacute
Encoding: 336 336 271
Width: 680
GlyphClass: 5
Flags: W
LayerCount: 2
Fore
SplineSet
340 -12 m 256,0,1
 471 -12 471 -12 540.5 78 c 128,-1,2
 610 168 610 168 610 349 c 256,3,4
 610 530 610 530 540.5 620 c 128,-1,5
 471 710 471 710 340 710 c 256,6,7
 209 710 209 710 139.5 620 c 128,-1,8
 70 530 70 530 70 349 c 256,9,10
 70 168 70 168 139.5 78 c 128,-1,11
 209 -12 209 -12 340 -12 c 256,0,1
340 8 m 256,12,13
 225 8 225 8 159.5 88.5 c 128,-1,14
 94 169 94 169 94 328 c 2,15,-1
 94 370 l 2,16,17
 94 529 94 529 159.5 609.5 c 128,-1,18
 225 690 225 690 340 690 c 256,19,20
 455 690 455 690 520.5 609.5 c 128,-1,21
 586 529 586 529 586 370 c 2,22,-1
 586 328 l 2,23,24
 586 169 586 169 520.5 88.5 c 128,-1,25
 455 8 455 8 340 8 c 256,12,13
260 767 m 1,26,-1
 375 919 l 1,27,-1
 356 931 l 1,28,-1
 245 777 l 1,29,-1
 260 767 l 1,26,-1
420 767 m 1,30,-1
 535 919 l 1,31,-1
 516 931 l 1,32,-1
 405 777 l 1,33,-1
 420 767 l 1,30,-1
EndSplineSet
EndChar

StartChar: odblacute
Encoding: 337 337 272
Width: 540
GlyphClass: 6
Flags: W
LayerCount: 2
Fore
SplineSet
270 -12 m 256,0,1
 370 -12 370 -12 425 54.5 c 128,-1,2
 480 121 480 121 480 253 c 256,3,4
 480 385 480 385 425 451.5 c 128,-1,5
 370 518 370 518 270 518 c 256,6,7
 170 518 170 518 115 451.5 c 128,-1,8
 60 385 60 385 60 253 c 256,9,10
 60 121 60 121 115 54.5 c 128,-1,11
 170 -12 170 -12 270 -12 c 256,0,1
270 7 m 256,12,13
 179 7 179 7 131 66.5 c 128,-1,14
 83 126 83 126 83 229 c 2,15,-1
 83 277 l 2,16,17
 83 380 83 380 131 439.5 c 128,-1,18
 179 499 179 499 270 499 c 256,19,20
 361 499 361 499 409 439.5 c 128,-1,21
 457 380 457 380 457 277 c 2,22,-1
 457 229 l 2,23,24
 457 126 457 126 409 66.5 c 128,-1,25
 361 7 361 7 270 7 c 256,12,13
191 587 m 1,26,-1
 306 739 l 1,27,-1
 287 751 l 1,28,-1
 176 597 l 1,29,-1
 191 587 l 1,26,-1
351 587 m 1,30,-1
 466 739 l 1,31,-1
 447 751 l 1,32,-1
 336 597 l 1,33,-1
 351 587 l 1,30,-1
EndSplineSet
EndChar

StartChar: OE
Encoding: 338 338 273
Width: 967
Flags: W
LayerCount: 2
Fore
SplineSet
370 -12 m 0,0,1
 441 -12 441 -12 514 0 c 1,2,-1
 895 0 l 1,3,-1
 895 20 l 1,4,-1
 536 20 l 1,5,-1
 536 344 l 1,6,-1
 883 344 l 1,7,-1
 883 364 l 1,8,-1
 536 364 l 1,9,-1
 536 678 l 1,10,-1
 895 678 l 1,11,-1
 895 698 l 1,12,-1
 514 698 l 1,13,14
 441 710 441 710 370 710 c 0,15,16
 224 710 224 710 147 620 c 128,-1,17
 70 530 70 530 70 349 c 256,18,19
 70 168 70 168 147 78 c 128,-1,20
 224 -12 224 -12 370 -12 c 0,0,1
370 8 m 0,21,22
 241 8 241 8 167.5 89 c 128,-1,23
 94 170 94 170 94 328 c 2,24,-1
 94 370 l 2,25,26
 94 528 94 528 167.5 609 c 128,-1,27
 241 690 241 690 370 690 c 0,28,29
 460 690 460 690 514 676 c 1,30,-1
 514 22 l 1,31,32
 460 8 460 8 370 8 c 0,21,22
EndSplineSet
EndChar

StartChar: oe
Encoding: 339 339 274
Width: 929
Flags: W
LayerCount: 2
Fore
SplineSet
270 7 m 256,0,1
 179 7 179 7 131 66.5 c 128,-1,2
 83 126 83 126 83 229 c 2,3,-1
 83 277 l 2,4,5
 83 380 83 380 131 439.5 c 128,-1,6
 179 499 179 499 270 499 c 256,7,8
 361 499 361 499 409 439.5 c 128,-1,9
 457 380 457 380 457 277 c 2,10,-1
 457 229 l 2,11,12
 457 126 457 126 409 66.5 c 128,-1,13
 361 7 361 7 270 7 c 256,0,1
846 275 m 1,14,-1
 479 275 l 1,15,16
 479 380 479 380 527 439.5 c 128,-1,17
 575 499 575 499 664 499 c 0,18,19
 747 499 747 499 796.5 439.5 c 128,-1,20
 846 380 846 380 846 275 c 1,14,-1
668 -12 m 0,21,22
 741 -12 741 -12 789.5 24 c 128,-1,23
 838 60 838 60 861 124 c 1,24,-1
 843 131 l 1,25,26
 796 7 796 7 668 7 c 0,27,28
 577 7 577 7 528 66.5 c 128,-1,29
 479 126 479 126 479 229 c 2,30,-1
 479 256 l 1,31,-1
 869 256 l 1,32,-1
 869 266 l 2,33,34
 869 382 869 382 812.5 450 c 128,-1,35
 756 518 756 518 664 518 c 0,36,37
 514 518 514 518 470 362 c 1,38,-1
 467 362 l 1,39,40
 422 518 422 518 270 518 c 0,41,42
 170 518 170 518 115 451.5 c 128,-1,43
 60 385 60 385 60 253 c 256,44,45
 60 121 60 121 115 54.5 c 128,-1,46
 170 -12 170 -12 270 -12 c 0,47,48
 425 -12 425 -12 466 146 c 1,49,-1
 469 146 l 1,50,51
 514 -12 514 -12 668 -12 c 0,21,22
EndSplineSet
EndChar

StartChar: Racute
Encoding: 340 340 275
Width: 630
Flags: W
LayerCount: 2
Fore
SplineSet
566 0 m 1,0,-1
 374 322 l 1,1,2
 462 322 462 322 506 373 c 128,-1,3
 550 424 550 424 550 510 c 256,4,5
 550 596 550 596 506 647 c 128,-1,6
 462 698 462 698 376 698 c 2,7,-1
 108 698 l 1,8,-1
 108 0 l 1,9,-1
 130 0 l 1,10,-1
 130 322 l 1,11,-1
 349 322 l 1,12,-1
 541 0 l 1,13,-1
 566 0 l 1,0,-1
376 342 m 2,14,-1
 130 342 l 1,15,-1
 130 678 l 1,16,-1
 376 678 l 2,17,18
 449 678 449 678 490 633 c 1,19,20
 526 587 526 587 526 531 c 2,21,-1
 526 489 l 2,22,23
 526 431 526 431 490 387 c 0,24,25
 449 342 449 342 376 342 c 2,14,-1
286 767 m 1,26,-1
 401 919 l 1,27,-1
 382 931 l 1,28,-1
 271 777 l 1,29,-1
 286 767 l 1,26,-1
EndSplineSet
EndChar

StartChar: racute
Encoding: 341 341 276
Width: 341
GlyphClass: 2
Flags: W
LayerCount: 2
Fore
SplineSet
126 0 m 1,0,-1
 126 349 l 2,1,2
 126 416 126 416 174 453 c 0,3,4
 223 487 223 487 284 487 c 2,5,-1
 328 487 l 1,6,-1
 328 506 l 1,7,-1
 287 506 l 2,8,9
 169 506 169 506 129 419 c 1,10,-1
 126 419 l 1,11,-1
 126 506 l 1,12,-1
 105 506 l 1,13,-1
 105 0 l 1,14,-1
 126 0 l 1,0,-1
204 587 m 1,15,-1
 319 739 l 1,16,-1
 300 751 l 1,17,-1
 189 597 l 1,18,-1
 204 587 l 1,15,-1
EndSplineSet
EndChar

StartChar: Rcedilla
Encoding: 342 342 277
Width: 630
GlyphClass: 6
Flags: W
LayerCount: 2
Fore
SplineSet
566 0 m 1,0,-1
 374 322 l 1,1,2
 462 322 462 322 506 373 c 128,-1,3
 550 424 550 424 550 510 c 256,4,5
 550 596 550 596 506 647 c 128,-1,6
 462 698 462 698 376 698 c 2,7,-1
 108 698 l 1,8,-1
 108 0 l 1,9,-1
 130 0 l 1,10,-1
 130 322 l 1,11,-1
 349 322 l 1,12,-1
 541 0 l 1,13,-1
 566 0 l 1,0,-1
376 342 m 2,14,-1
 130 342 l 1,15,-1
 130 678 l 1,16,-1
 376 678 l 2,17,18
 449 678 449 678 490 633 c 1,19,20
 526 587 526 587 526 531 c 2,21,-1
 526 489 l 2,22,23
 526 431 526 431 490 387 c 0,24,25
 449 342 449 342 376 342 c 2,14,-1
283 -212 m 1,26,27
 304 -189 304 -189 316 -157 c 128,-1,28
 328 -125 328 -125 328 -99 c 2,29,-1
 328 -88 l 2,30,31
 328 -66 328 -66 308 -66 c 2,32,-1
 306 -66 l 2,33,34
 282 -66 282 -66 282 -88 c 2,35,-1
 282 -96 l 2,36,37
 282 -116 282 -116 310 -116 c 1,38,39
 308 -134 308 -134 297.5 -160.5 c 128,-1,40
 287 -187 287 -187 265 -212 c 1,41,-1
 283 -212 l 1,26,27
EndSplineSet
EndChar

StartChar: rcedilla
Encoding: 343 343 278
Width: 341
GlyphClass: 1
Flags: W
LayerCount: 2
Fore
SplineSet
126 0 m 1,0,-1
 126 349 l 2,1,2
 126 416 126 416 174 453 c 0,3,4
 223 487 223 487 284 487 c 2,5,-1
 328 487 l 1,6,-1
 328 506 l 1,7,-1
 287 506 l 2,8,9
 169 506 169 506 129 419 c 1,10,-1
 126 419 l 1,11,-1
 126 506 l 1,12,-1
 105 506 l 1,13,-1
 105 0 l 1,14,-1
 126 0 l 1,0,-1
94 -212 m 1,15,16
 115 -189 115 -189 127 -157 c 128,-1,17
 139 -125 139 -125 139 -99 c 2,18,-1
 139 -88 l 2,19,20
 139 -66 139 -66 119 -66 c 2,21,-1
 117 -66 l 2,22,23
 93 -66 93 -66 93 -88 c 2,24,-1
 93 -96 l 2,25,26
 93 -116 93 -116 121 -116 c 1,27,28
 119 -134 119 -134 108.5 -160.5 c 128,-1,29
 98 -187 98 -187 76 -212 c 1,30,-1
 94 -212 l 1,15,16
EndSplineSet
EndChar

StartChar: Rcaron
Encoding: 344 344 279
Width: 630
Flags: W
LayerCount: 2
Fore
SplineSet
566 0 m 1,0,-1
 374 322 l 1,1,2
 462 322 462 322 506 373 c 128,-1,3
 550 424 550 424 550 510 c 256,4,5
 550 596 550 596 506 647 c 128,-1,6
 462 698 462 698 376 698 c 2,7,-1
 108 698 l 1,8,-1
 108 0 l 1,9,-1
 130 0 l 1,10,-1
 130 322 l 1,11,-1
 349 322 l 1,12,-1
 541 0 l 1,13,-1
 566 0 l 1,0,-1
376 342 m 2,14,-1
 130 342 l 1,15,-1
 130 678 l 1,16,-1
 376 678 l 2,17,18
 449 678 449 678 490 633 c 1,19,20
 526 587 526 587 526 531 c 2,21,-1
 526 489 l 2,22,23
 526 431 526 431 490 387 c 0,24,25
 449 342 449 342 376 342 c 2,14,-1
316 783 m 1,26,-1
 444 916 l 1,27,-1
 430 927 l 1,28,-1
 304 800 l 1,29,-1
 178 927 l 1,30,-1
 164 916 l 1,31,-1
 292 783 l 1,32,-1
 316 783 l 1,26,-1
EndSplineSet
EndChar

StartChar: rcaron
Encoding: 345 345 280
Width: 341
GlyphClass: 5
Flags: W
LayerCount: 2
Fore
SplineSet
126 0 m 1,0,-1
 126 349 l 2,1,2
 126 416 126 416 174 453 c 0,3,4
 223 487 223 487 284 487 c 2,5,-1
 328 487 l 1,6,-1
 328 506 l 1,7,-1
 287 506 l 2,8,9
 169 506 169 506 129 419 c 1,10,-1
 126 419 l 1,11,-1
 126 506 l 1,12,-1
 105 506 l 1,13,-1
 105 0 l 1,14,-1
 126 0 l 1,0,-1
234 603 m 1,15,-1
 362 736 l 1,16,-1
 348 747 l 1,17,-1
 222 620 l 1,18,-1
 96 747 l 1,19,-1
 82 736 l 1,20,-1
 210 603 l 1,21,-1
 234 603 l 1,15,-1
EndSplineSet
EndChar

StartChar: Sacute
Encoding: 346 346 281
Width: 547
GlyphClass: 2
Flags: W
LayerCount: 2
Fore
SplineSet
276 -12 m 0,0,1
 374 -12 374 -12 431.5 35.5 c 128,-1,2
 489 83 489 83 489 178 c 0,3,4
 489 247 489 247 454 291 c 0,5,6
 417 341 417 341 312 362 c 2,7,-1
 242 375 l 1,8,9
 80 400 80 400 80 534 c 0,10,11
 80 613 80 613 130 651.5 c 128,-1,12
 180 690 180 690 269 690 c 0,13,14
 337 690 337 690 383 668 c 128,-1,15
 429 646 429 646 459 602 c 1,16,-1
 477 615 l 1,17,18
 413 710 413 710 271 710 c 0,19,20
 174 710 174 710 116 666.5 c 128,-1,21
 58 623 58 623 58 534 c 0,22,23
 58 466 58 466 95 423 c 0,24,25
 133 374 133 374 236 354 c 2,26,-1
 306 341 l 2,27,28
 371 331 371 331 418 297 c 1,29,30
 467 256 467 256 467 176 c 0,31,32
 467 93 467 93 417 50.5 c 128,-1,33
 367 8 367 8 276 8 c 0,34,35
 137 8 137 8 60 115 c 1,36,-1
 42 102 l 1,37,38
 125 -12 125 -12 276 -12 c 0,0,1
251 767 m 1,39,-1
 366 919 l 1,40,-1
 347 931 l 1,41,-1
 236 777 l 1,42,-1
 251 767 l 1,39,-1
EndSplineSet
EndChar

StartChar: sacute
Encoding: 347 347 282
Width: 462
GlyphClass: 3
Flags: W
LayerCount: 2
Fore
SplineSet
236 -12 m 0,0,1
 314 -12 314 -12 358.5 23.5 c 128,-1,2
 403 59 403 59 403 125 c 256,3,4
 403 191 403 191 364 223.5 c 128,-1,5
 325 256 325 256 258 265 c 2,6,-1
 214 272 l 2,7,8
 149 282 149 282 118 307.5 c 128,-1,9
 87 333 87 333 87 390 c 0,10,11
 87 444 87 444 125.5 471.5 c 128,-1,12
 164 499 164 499 227 499 c 0,13,14
 287 499 287 499 320.5 478.5 c 128,-1,15
 354 458 354 458 377 431 c 1,16,-1
 393 445 l 1,17,18
 335 518 335 518 226 518 c 0,19,20
 159 518 159 518 112.5 486 c 128,-1,21
 66 454 66 454 66 389 c 0,22,23
 66 323 66 323 104.5 292 c 128,-1,24
 143 261 143 261 210 252 c 2,25,-1
 254 245 l 2,26,27
 317 236 317 236 349.5 208.5 c 128,-1,28
 382 181 382 181 382 124 c 0,29,30
 382 10 382 10 236 7 c 0,31,32
 124 7 124 7 67 93 c 1,33,-1
 49 81 l 1,34,35
 84 31 84 31 129.5 9.5 c 128,-1,36
 175 -12 175 -12 236 -12 c 0,0,1
206 587 m 1,37,-1
 321 739 l 1,38,-1
 302 751 l 1,39,-1
 191 597 l 1,40,-1
 206 587 l 1,37,-1
EndSplineSet
EndChar

StartChar: Scircumflex
Encoding: 348 348 283
Width: 547
GlyphClass: 2
Flags: W
LayerCount: 2
Fore
SplineSet
276 -12 m 0,0,1
 374 -12 374 -12 431.5 35.5 c 128,-1,2
 489 83 489 83 489 178 c 0,3,4
 489 247 489 247 454 291 c 0,5,6
 417 341 417 341 312 362 c 2,7,-1
 242 375 l 1,8,9
 80 400 80 400 80 534 c 0,10,11
 80 613 80 613 130 651.5 c 128,-1,12
 180 690 180 690 269 690 c 0,13,14
 337 690 337 690 383 668 c 128,-1,15
 429 646 429 646 459 602 c 1,16,-1
 477 615 l 1,17,18
 413 710 413 710 271 710 c 0,19,20
 174 710 174 710 116 666.5 c 128,-1,21
 58 623 58 623 58 534 c 0,22,23
 58 466 58 466 95 423 c 0,24,25
 133 374 133 374 236 354 c 2,26,-1
 306 341 l 2,27,28
 371 331 371 331 418 297 c 1,29,30
 467 256 467 256 467 176 c 0,31,32
 467 93 467 93 417 50.5 c 128,-1,33
 367 8 367 8 276 8 c 0,34,35
 137 8 137 8 60 115 c 1,36,-1
 42 102 l 1,37,38
 125 -12 125 -12 276 -12 c 0,0,1
395 779 m 1,39,-1
 409 790 l 1,40,-1
 281 923 l 1,41,-1
 257 923 l 1,42,-1
 129 790 l 1,43,-1
 143 779 l 1,44,-1
 269 906 l 1,45,-1
 395 779 l 1,39,-1
EndSplineSet
EndChar

StartChar: scircumflex
Encoding: 349 349 284
Width: 462
GlyphClass: 5
Flags: W
LayerCount: 2
Fore
SplineSet
236 -12 m 0,0,1
 314 -12 314 -12 358.5 23.5 c 128,-1,2
 403 59 403 59 403 125 c 256,3,4
 403 191 403 191 364 223.5 c 128,-1,5
 325 256 325 256 258 265 c 2,6,-1
 214 272 l 2,7,8
 149 282 149 282 118 307.5 c 128,-1,9
 87 333 87 333 87 390 c 0,10,11
 87 444 87 444 125.5 471.5 c 128,-1,12
 164 499 164 499 227 499 c 0,13,14
 287 499 287 499 320.5 478.5 c 128,-1,15
 354 458 354 458 377 431 c 1,16,-1
 393 445 l 1,17,18
 335 518 335 518 226 518 c 0,19,20
 159 518 159 518 112.5 486 c 128,-1,21
 66 454 66 454 66 389 c 0,22,23
 66 323 66 323 104.5 292 c 128,-1,24
 143 261 143 261 210 252 c 2,25,-1
 254 245 l 2,26,27
 317 236 317 236 349.5 208.5 c 128,-1,28
 382 181 382 181 382 124 c 0,29,30
 382 10 382 10 236 7 c 0,31,32
 124 7 124 7 67 93 c 1,33,-1
 49 81 l 1,34,35
 84 31 84 31 129.5 9.5 c 128,-1,36
 175 -12 175 -12 236 -12 c 0,0,1
350 599 m 1,37,-1
 364 610 l 1,38,-1
 236 743 l 1,39,-1
 212 743 l 1,40,-1
 84 610 l 1,41,-1
 98 599 l 1,42,-1
 224 726 l 1,43,-1
 350 599 l 1,37,-1
EndSplineSet
EndChar

StartChar: Scedilla
Encoding: 350 350 285
Width: 547
GlyphClass: 2
Flags: W
LayerCount: 2
Fore
SplineSet
283 -202 m 0,0,1
 321 -202 321 -202 343 -181 c 128,-1,2
 365 -160 365 -160 365 -131 c 0,3,4
 365 -77 365 -77 298 -72 c 0,5,6
 278 -72 278 -72 268 -75 c 1,7,-1
 266 -73 l 1,8,-1
 281 -12 l 1,9,10
 375 -12 375 -12 432 35.5 c 128,-1,11
 489 83 489 83 489 178 c 0,12,13
 489 247 489 247 454 291 c 0,14,15
 417 341 417 341 312 362 c 2,16,-1
 242 375 l 1,17,18
 80 400 80 400 80 534 c 0,19,20
 80 613 80 613 130 651.5 c 128,-1,21
 180 690 180 690 269 690 c 0,22,23
 337 690 337 690 383 668 c 128,-1,24
 429 646 429 646 459 602 c 1,25,-1
 477 615 l 1,26,27
 413 710 413 710 271 710 c 0,28,29
 174 710 174 710 116 666.5 c 128,-1,30
 58 623 58 623 58 534 c 0,31,32
 58 466 58 466 95 423 c 0,33,34
 133 374 133 374 236 354 c 2,35,-1
 306 341 l 2,36,37
 371 331 371 331 418 297 c 1,38,39
 467 256 467 256 467 176 c 0,40,41
 467 93 467 93 417 50.5 c 128,-1,42
 367 8 367 8 276 8 c 0,43,44
 137 8 137 8 60 115 c 1,45,-1
 42 102 l 1,46,47
 77 53 77 53 130 22.5 c 128,-1,48
 183 -8 183 -8 263 -12 c 1,49,-1
 246 -84 l 1,50,-1
 283 -86 l 2,51,52
 344 -91 344 -91 344 -132 c 0,53,54
 344 -158 344 -158 327 -171 c 128,-1,55
 310 -184 310 -184 283 -184 c 0,56,57
 237 -184 237 -184 215 -157 c 1,58,-1
 202 -170 l 1,59,60
 211 -183 211 -183 232.5 -192.5 c 128,-1,61
 254 -202 254 -202 283 -202 c 0,0,1
EndSplineSet
EndChar

StartChar: scedilla
Encoding: 351 351 286
Width: 462
GlyphClass: 1
Flags: W
LayerCount: 2
Fore
SplineSet
246 -202 m 0,0,1
 284 -202 284 -202 306 -181 c 128,-1,2
 328 -160 328 -160 328 -131 c 0,3,4
 328 -77 328 -77 261 -72 c 0,5,6
 241 -72 241 -72 231 -75 c 1,7,-1
 229 -73 l 1,8,-1
 244 -12 l 1,9,10
 403 -2 403 -2 403 125 c 0,11,12
 403 191 403 191 364 223.5 c 128,-1,13
 325 256 325 256 258 265 c 2,14,-1
 214 272 l 2,15,16
 149 282 149 282 118 307.5 c 128,-1,17
 87 333 87 333 87 390 c 0,18,19
 87 444 87 444 125.5 471.5 c 128,-1,20
 164 499 164 499 227 499 c 0,21,22
 287 499 287 499 320.5 478.5 c 128,-1,23
 354 458 354 458 377 431 c 1,24,-1
 393 445 l 1,25,26
 335 518 335 518 226 518 c 0,27,28
 159 518 159 518 112.5 486 c 128,-1,29
 66 454 66 454 66 389 c 0,30,31
 66 323 66 323 104.5 292 c 128,-1,32
 143 261 143 261 210 252 c 2,33,-1
 254 245 l 2,34,35
 317 236 317 236 349.5 208.5 c 128,-1,36
 382 181 382 181 382 124 c 0,37,38
 382 10 382 10 236 7 c 0,39,40
 124 7 124 7 67 93 c 1,41,-1
 49 81 l 1,42,43
 114 -11 114 -11 226 -12 c 1,44,-1
 209 -84 l 1,45,-1
 246 -86 l 2,46,47
 307 -91 307 -91 307 -132 c 0,48,49
 307 -158 307 -158 290 -171 c 128,-1,50
 273 -184 273 -184 246 -184 c 0,51,52
 200 -184 200 -184 178 -157 c 1,53,-1
 165 -170 l 1,54,55
 174 -183 174 -183 195.5 -192.5 c 128,-1,56
 217 -202 217 -202 246 -202 c 0,0,1
EndSplineSet
EndChar

StartChar: Scaron
Encoding: 352 352 287
Width: 547
Flags: W
LayerCount: 2
Fore
SplineSet
276 -12 m 0,0,1
 374 -12 374 -12 431.5 35.5 c 128,-1,2
 489 83 489 83 489 178 c 0,3,4
 489 247 489 247 454 291 c 0,5,6
 417 341 417 341 312 362 c 2,7,-1
 242 375 l 1,8,9
 80 400 80 400 80 534 c 0,10,11
 80 613 80 613 130 651.5 c 128,-1,12
 180 690 180 690 269 690 c 0,13,14
 337 690 337 690 383 668 c 128,-1,15
 429 646 429 646 459 602 c 1,16,-1
 477 615 l 1,17,18
 413 710 413 710 271 710 c 0,19,20
 174 710 174 710 116 666.5 c 128,-1,21
 58 623 58 623 58 534 c 0,22,23
 58 466 58 466 95 423 c 0,24,25
 133 374 133 374 236 354 c 2,26,-1
 306 341 l 2,27,28
 371 331 371 331 418 297 c 1,29,30
 467 256 467 256 467 176 c 0,31,32
 467 93 467 93 417 50.5 c 128,-1,33
 367 8 367 8 276 8 c 0,34,35
 137 8 137 8 60 115 c 1,36,-1
 42 102 l 1,37,38
 125 -12 125 -12 276 -12 c 0,0,1
281 783 m 1,39,-1
 409 916 l 1,40,-1
 395 927 l 1,41,-1
 269 800 l 1,42,-1
 143 927 l 1,43,-1
 129 916 l 1,44,-1
 257 783 l 1,45,-1
 281 783 l 1,39,-1
EndSplineSet
EndChar

StartChar: scaron
Encoding: 353 353 288
Width: 462
Flags: W
LayerCount: 2
Fore
SplineSet
236 -12 m 0,0,1
 314 -12 314 -12 358.5 23.5 c 128,-1,2
 403 59 403 59 403 125 c 256,3,4
 403 191 403 191 364 223.5 c 128,-1,5
 325 256 325 256 258 265 c 2,6,-1
 214 272 l 2,7,8
 149 282 149 282 118 307.5 c 128,-1,9
 87 333 87 333 87 390 c 0,10,11
 87 444 87 444 125.5 471.5 c 128,-1,12
 164 499 164 499 227 499 c 0,13,14
 287 499 287 499 320.5 478.5 c 128,-1,15
 354 458 354 458 377 431 c 1,16,-1
 393 445 l 1,17,18
 335 518 335 518 226 518 c 0,19,20
 159 518 159 518 112.5 486 c 128,-1,21
 66 454 66 454 66 389 c 0,22,23
 66 323 66 323 104.5 292 c 128,-1,24
 143 261 143 261 210 252 c 2,25,-1
 254 245 l 2,26,27
 317 236 317 236 349.5 208.5 c 128,-1,28
 382 181 382 181 382 124 c 0,29,30
 382 10 382 10 236 7 c 0,31,32
 124 7 124 7 67 93 c 1,33,-1
 49 81 l 1,34,35
 84 31 84 31 129.5 9.5 c 128,-1,36
 175 -12 175 -12 236 -12 c 0,0,1
236 603 m 1,37,-1
 364 736 l 1,38,-1
 350 747 l 1,39,-1
 224 620 l 1,40,-1
 98 747 l 1,41,-1
 84 736 l 1,42,-1
 212 603 l 1,43,-1
 236 603 l 1,37,-1
EndSplineSet
EndChar

StartChar: Tcedilla
Encoding: 354 354 289
Width: 560
GlyphClass: 6
Flags: W
LayerCount: 2
Fore
SplineSet
291 0 m 1,0,-1
 291 678 l 1,1,-1
 543 678 l 1,2,-1
 543 698 l 1,3,-1
 17 698 l 1,4,-1
 17 678 l 1,5,-1
 269 678 l 1,6,-1
 269 0 l 1,7,-1
 291 0 l 1,0,-1
258 -212 m 1,8,9
 279 -189 279 -189 291 -157 c 128,-1,10
 303 -125 303 -125 303 -99 c 2,11,-1
 303 -88 l 2,12,13
 303 -66 303 -66 283 -66 c 2,14,-1
 281 -66 l 2,15,16
 257 -66 257 -66 257 -88 c 2,17,-1
 257 -96 l 2,18,19
 257 -116 257 -116 285 -116 c 1,20,21
 283 -134 283 -134 272.5 -160.5 c 128,-1,22
 262 -187 262 -187 240 -212 c 1,23,-1
 258 -212 l 1,8,9
EndSplineSet
EndChar

StartChar: tcedilla
Encoding: 355 355 290
Width: 310
GlyphClass: 7
Flags: W
LayerCount: 2
Fore
SplineSet
259 0 m 1,0,-1
 259 19 l 1,1,-1
 146 19 l 1,2,-1
 146 487 l 1,3,-1
 267 487 l 1,4,-1
 267 506 l 1,5,-1
 146 506 l 1,6,-1
 146 650 l 1,7,-1
 125 650 l 1,8,-1
 125 531 l 2,9,10
 125 517 125 517 120.5 511.5 c 128,-1,11
 116 506 116 506 102 506 c 2,12,-1
 30 506 l 1,13,-1
 30 487 l 1,14,-1
 125 487 l 1,15,-1
 125 29 l 2,16,17
 125 1 125 1 154 0 c 2,18,-1
 259 0 l 1,0,-1
168 -212 m 1,19,20
 189 -189 189 -189 201 -157 c 128,-1,21
 213 -125 213 -125 213 -99 c 2,22,-1
 213 -88 l 2,23,24
 213 -66 213 -66 193 -66 c 2,25,-1
 191 -66 l 2,26,27
 167 -66 167 -66 167 -88 c 2,28,-1
 167 -96 l 2,29,30
 167 -116 167 -116 195 -116 c 1,31,32
 193 -134 193 -134 182.5 -160.5 c 128,-1,33
 172 -187 172 -187 150 -212 c 1,34,-1
 168 -212 l 1,19,20
EndSplineSet
EndChar

StartChar: Tcaron
Encoding: 356 356 291
Width: 560
GlyphClass: 6
Flags: W
LayerCount: 2
Fore
SplineSet
291 0 m 1,0,-1
 291 678 l 1,1,-1
 543 678 l 1,2,-1
 543 698 l 1,3,-1
 17 698 l 1,4,-1
 17 678 l 1,5,-1
 269 678 l 1,6,-1
 269 0 l 1,7,-1
 291 0 l 1,0,-1
293 783 m 1,8,-1
 421 916 l 1,9,-1
 407 927 l 1,10,-1
 281 800 l 1,11,-1
 155 927 l 1,12,-1
 141 916 l 1,13,-1
 269 783 l 1,14,-1
 293 783 l 1,8,-1
EndSplineSet
EndChar

StartChar: tcaron
Encoding: 357 357 292
Width: 310
GlyphClass: 5
Flags: W
LayerCount: 2
Fore
SplineSet
259 0 m 1,0,-1
 259 19 l 1,1,-1
 146 19 l 1,2,-1
 146 487 l 1,3,-1
 267 487 l 1,4,-1
 267 506 l 1,5,-1
 146 506 l 1,6,-1
 146 650 l 1,7,-1
 125 650 l 1,8,-1
 125 531 l 2,9,10
 125 517 125 517 120.5 511.5 c 128,-1,11
 116 506 116 506 102 506 c 2,12,-1
 30 506 l 1,13,-1
 30 487 l 1,14,-1
 125 487 l 1,15,-1
 125 29 l 2,16,17
 125 1 125 1 154 0 c 2,18,-1
 259 0 l 1,0,-1
263 564 m 1,19,-1
 287 740 l 1,20,-1
 262 740 l 1,21,-1
 246 564 l 1,22,-1
 263 564 l 1,19,-1
EndSplineSet
EndChar

StartChar: Tbar
Encoding: 358 358 293
Width: 560
Flags: W
LayerCount: 2
Fore
SplineSet
291 0 m 1,0,-1
 291 365 l 1,1,-1
 479 365 l 1,2,-1
 479 384 l 1,3,-1
 291 384 l 1,4,-1
 291 678 l 1,5,-1
 543 678 l 1,6,-1
 543 698 l 1,7,-1
 17 698 l 1,8,-1
 17 678 l 1,9,-1
 269 678 l 1,10,-1
 269 384 l 1,11,-1
 82 384 l 1,12,-1
 82 365 l 1,13,-1
 269 365 l 1,14,-1
 269 0 l 1,15,-1
 291 0 l 1,0,-1
EndSplineSet
EndChar

StartChar: tbar
Encoding: 359 359 294
Width: 316
GlyphClass: 5
Flags: W
LayerCount: 2
Fore
SplineSet
262 0 m 1,0,-1
 262 19 l 1,1,-1
 149 19 l 1,2,-1
 149 280 l 1,3,-1
 250 280 l 1,4,-1
 250 298 l 1,5,-1
 149 298 l 1,6,-1
 149 487 l 1,7,-1
 270 487 l 1,8,-1
 270 506 l 1,9,-1
 149 506 l 1,10,-1
 149 650 l 1,11,-1
 128 650 l 1,12,-1
 128 531 l 2,13,14
 128 517 128 517 123.5 511.5 c 128,-1,15
 119 506 119 506 105 506 c 2,16,-1
 33 506 l 1,17,-1
 33 487 l 1,18,-1
 128 487 l 1,19,-1
 128 298 l 1,20,-1
 59 298 l 1,21,-1
 59 280 l 1,22,-1
 128 280 l 1,23,-1
 128 29 l 2,24,25
 128 1 128 1 157 0 c 2,26,-1
 262 0 l 1,0,-1
EndSplineSet
EndChar

StartChar: Utilde
Encoding: 360 360 295
Width: 652
GlyphClass: 3
Flags: W
LayerCount: 2
Fore
SplineSet
326 -12 m 256,0,1
 452 -12 452 -12 502 51 c 128,-1,2
 552 114 552 114 552 270 c 2,3,-1
 552 698 l 1,4,-1
 530 698 l 1,5,-1
 530 268 l 2,6,7
 530 126 530 126 486 67 c 128,-1,8
 442 8 442 8 326 8 c 0,9,10
 208 8 208 8 166 67 c 0,11,12
 122 126 122 126 122 268 c 2,13,-1
 122 698 l 1,14,-1
 100 698 l 1,15,-1
 100 270 l 2,16,17
 100 114 100 114 150 51 c 128,-1,18
 200 -12 200 -12 326 -12 c 256,0,1
396 808 m 0,19,20
 440 808 440 808 474 847 c 1,21,-1
 462 859 l 1,22,23
 433 826 433 826 397 826 c 0,24,25
 369 826 369 826 331 852 c 0,26,27
 305 869 305 869 288 875.5 c 128,-1,28
 271 882 271 882 254 882 c 0,29,30
 211 882 211 882 176 843 c 1,31,-1
 188 831 l 1,32,33
 219 864 219 864 253 864 c 0,34,35
 282 864 282 864 319 838 c 0,36,37
 345 821 345 821 362 814.5 c 128,-1,38
 379 808 379 808 396 808 c 0,19,20
EndSplineSet
EndChar

StartChar: utilde
Encoding: 361 361 296
Width: 556
GlyphClass: 6
Flags: W
LayerCount: 2
Fore
SplineSet
269 -12 m 0,0,1
 337 -12 337 -12 375 14.5 c 128,-1,2
 413 41 413 41 427 76 c 1,3,-1
 430 76 l 1,4,-1
 430 0 l 1,5,-1
 451 0 l 1,6,-1
 451 506 l 1,7,-1
 430 506 l 1,8,-1
 430 144 l 2,9,10
 430 78 430 78 382 41 c 0,11,12
 333 7 333 7 271 7 c 0,13,14
 116 7 116 7 116 185 c 2,15,-1
 116 506 l 1,16,-1
 95 506 l 1,17,-1
 95 181 l 2,18,19
 95 -9 95 -9 269 -12 c 0,0,1
345 628 m 0,20,21
 389 628 389 628 423 667 c 1,22,-1
 411 679 l 1,23,24
 382 646 382 646 346 646 c 0,25,26
 318 646 318 646 280 672 c 0,27,28
 254 689 254 689 237 695.5 c 128,-1,29
 220 702 220 702 203 702 c 0,30,31
 160 702 160 702 125 663 c 1,32,-1
 137 651 l 1,33,34
 168 684 168 684 202 684 c 0,35,36
 231 684 231 684 268 658 c 0,37,38
 294 641 294 641 311 634.5 c 128,-1,39
 328 628 328 628 345 628 c 0,20,21
EndSplineSet
EndChar

StartChar: Umacron
Encoding: 362 362 297
Width: 652
GlyphClass: 7
Flags: W
LayerCount: 2
Fore
SplineSet
326 -12 m 256,0,1
 452 -12 452 -12 502 51 c 128,-1,2
 552 114 552 114 552 270 c 2,3,-1
 552 698 l 1,4,-1
 530 698 l 1,5,-1
 530 268 l 2,6,7
 530 126 530 126 486 67 c 128,-1,8
 442 8 442 8 326 8 c 0,9,10
 208 8 208 8 166 67 c 0,11,12
 122 126 122 126 122 268 c 2,13,-1
 122 698 l 1,14,-1
 100 698 l 1,15,-1
 100 270 l 2,16,17
 100 114 100 114 150 51 c 128,-1,18
 200 -12 200 -12 326 -12 c 256,0,1
454 838 m 1,19,-1
 454 856 l 1,20,-1
 196 856 l 1,21,-1
 196 838 l 1,22,-1
 454 838 l 1,19,-1
EndSplineSet
EndChar

StartChar: umacron
Encoding: 363 363 298
Width: 556
GlyphClass: 7
Flags: W
LayerCount: 2
Fore
SplineSet
269 -12 m 0,0,1
 337 -12 337 -12 375 14.5 c 128,-1,2
 413 41 413 41 427 76 c 1,3,-1
 430 76 l 1,4,-1
 430 0 l 1,5,-1
 451 0 l 1,6,-1
 451 506 l 1,7,-1
 430 506 l 1,8,-1
 430 144 l 2,9,10
 430 78 430 78 382 41 c 0,11,12
 333 7 333 7 271 7 c 0,13,14
 116 7 116 7 116 185 c 2,15,-1
 116 506 l 1,16,-1
 95 506 l 1,17,-1
 95 181 l 2,18,19
 95 -9 95 -9 269 -12 c 0,0,1
403 658 m 1,20,-1
 403 676 l 1,21,-1
 145 676 l 1,22,-1
 145 658 l 1,23,-1
 403 658 l 1,20,-1
EndSplineSet
EndChar

